<svg xmlns:xlink="http://www.w3.org/1999/xlink" xmlns="http://www.w3.org/2000/svg" viewBox="0 0 210 297"
     height="1122.52" width="793.701">
    <style><![CDATA[.B{stroke-width:.265}.C{stroke-width:.191}]]></style>
    <g transform="matrix(1.005474 0 0 1.005474 257.92223 -207.78378)">
        <path d="M-149.555 219.113l-42.937 38.312c-.3.048-.487.111-.487.18v.254 95.368c0 .152.872.274 1.955.274h81.768c1.083 0 1.955-.122 1.955-.274v-95.3h.937z"
              fill="#cacaca"/>
        <g fill="red">
            <rect ry=".331" rx="2.074" y="352.546" x="-157.41" height="61.205" width="2.138"/>
            <rect ry=".331" rx="2.074" y="353.081" x="-141.107" height="127.22" width="2.673"/>
        </g>
        <path d="M-150.316 214.407c-.792.023-1.553.305-2.168.833-.399.177-.783.417-1.135.731l-54.299 48.411c-1.698 1.514-2.002 4.043-.682 5.67s3.75 1.719 5.448.205l52.859-47.126 51.966 47.06c1.687 1.528 4.118 1.456 5.45-.161s1.047-4.148-.64-5.676l-53.941-48.849c-.843-.764-1.873-1.128-2.858-1.099z"
              fill="gray"/>
        <g fill="#828282">
            <ellipse ry="20.222" rx="4.536" cy="407.95" cx="-156.331"/>
            <ellipse ry="23.624" rx="5.67" cy="466.99" cx="-139.851"/>
        </g>
        <ellipse ry="23.813" rx="24.675" cy="320.707" cx="-149.671" fill="#e9e9e9"/>
        <path d="M-149.993 243.282c-8.449 0-15.251 5.251-15.251 11.774v13.779c0 .199.007.396.019.593-.012.035-.019.071-.019.106v8.975c0 1.163 6.802 2.099 15.251 2.099h.209c8.449 0 15.251-.936 15.251-2.099v-8.975c0-.121-.078-.24-.221-.355.004-.114.011-.228.011-.343v-13.779c0-6.522-6.802-11.774-15.251-11.774z"
              fill="#5a5a5a"/>
        <rect ry="1.871" rx="13.891" y="287.55" x="-186.688" height="1.871" width="74.034" fill="red"/>
        <g fill="#9c9c9c">
            <rect ry="1.871" rx=".333" y="297.467" x="-150.071" height="7.222" width=".8"/>
            <rect width=".8" height="7.222" x="-150.071" y="336.569" rx=".333" ry="1.871"/>
            <g transform="rotate(89.359)">
                <rect width=".8" height="7.222" x="318.838" y="129.624" rx=".333" ry="1.871"/>
                <rect ry="1.871" rx=".333" y="169.696" x="318.39" height="7.222" width=".8"/>
            </g>
        </g>
        <g fill="red">
            <circle r="1.169" cy="320.824" cx="-149.899"/>
            <rect transform="rotate(359.386)" ry="1.871" rx=".333" y="297.738" x="-153.384" height="21.782"
                  width="1.002"/>
            <rect transform="rotate(335.962)" ry=".869" rx=".333" y="231.746" x="-284.548" height=".869"
                  width="17.707"/>
            <ellipse ry="3.686" rx="3.848" cy="280.344" cx="-149.174"/>
        </g>
        <path d="M-146.259 278.08c-.105-1.367-.564-2.705-1.32-3.848s-1.806-2.09-3.022-2.723c-2.335-1.215-5.229-1.207-7.631-.132s-4.301 3.158-5.313 5.588c-.507 1.216-.805 2.539-.69 3.851s.674 2.611 1.667 3.476c.834.727 1.949 1.116 3.054 1.09s2.193-.465 3.024-1.195 1.401-1.746 1.615-2.831a5.47 5.47 0 0 0-.372-3.245c-.68-1.538-2.057-2.723-3.637-3.298s-3.344-.563-4.962-.104-3.094 1.349-4.358 2.459-2.322 2.436-3.253 3.837c-1.184 1.782-2.192 3.767-2.32 5.903-.055.926.06 1.866.372 2.74a5.74 5.74 0 0 0 1.512 2.305c.686.625 1.545 1.066 2.459 1.222s1.883.02 2.703-.414c.675-.357 1.242-.91 1.63-1.567a4.55 4.55 0 0 0 .619-2.179c.042-1.526-.686-3.03-1.833-4.038-1.006-.884-2.311-1.402-3.644-1.534s-2.69.11-3.931.615c-2.481 1.009-4.436 3.008-6.005 5.18-.746 1.032-1.424 2.121-1.919 3.294s-.802 2.438-.787 3.711.362 2.557 1.085 3.605 1.837 1.843 3.088 2.084c1.1.212 2.287-.021 3.203-.666s1.539-1.704 1.618-2.821c.049-.688-.102-1.385-.412-2.001s-.775-1.15-1.331-1.558c-1.111-.817-2.555-1.112-3.925-.962s-2.672.717-3.82 1.48-2.156 1.717-3.118 2.705c-1.156 1.188-2.272 2.457-2.948 3.97-.338.756-.561 1.569-.606 2.397s.095 1.67.449 2.419c.326.689.84 1.298 1.502 1.676s1.474.509 2.205.293a2.75 2.75 0 0 0 1.244-.793c.335-.369.574-.821.709-1.3.272-.958.129-2.001-.247-2.923-.427-1.047-1.156-1.975-2.094-2.606s-2.084-.959-3.212-.883c-1.617.109-3.102 1.031-4.165 2.255s-1.746 2.729-2.286 4.257c-.508 1.439-.9 2.918-1.173 4.419"
              fill="none" stroke="#919191" stroke-width=".465"/>
        <g transform="matrix(.590024 -1.153521 1.153521 .590024 -354.33225 -145.98059)">
            <ellipse cx="-260.999" cy="260.419" rx="7.607" ry="9.898" fill="#d4d4d4"/>
            <path d="M-256.6 268.591a8.48 8.48 0 0 0 2.32-3.715 8.49 8.49 0 0 0 .145-4.378c-.255-1.09-.722-2.115-1.102-3.168s-.675-2.167-.562-3.28c.031-.307.097-.621.277-.87s.471-.418.776-.475a1.62 1.62 0 0 1 .913.112c.574.24.995.742 1.331 1.265 1.169 1.824 1.542 4.056 1.541 6.222-.001 1.203-.111 2.412-.424 3.573s-.837 2.276-1.609 3.198a7.04 7.04 0 0 1-4.314 2.418m-7.802-.582a8.5 8.5 0 0 1-2.46-8.092c.254-1.09.72-2.116 1.099-3.168s.673-2.167.562-3.28c-.031-.307-.097-.621-.277-.87a1.24 1.24 0 0 0-.775-.474 1.62 1.62 0 0 0-.911.112c-.572.24-.993.742-1.328 1.264-1.168 1.824-1.539 4.056-1.538 6.222.001 1.203.11 2.411.423 3.572s.836 2.276 1.607 3.198c1.079 1.291 2.642 2.168 4.306 2.418"
                  fill="#919191"/>
            <path d="M-256.717 253.634l-.05-4.159c-.016-.889-.036-1.781-.183-2.657s-.427-1.743-.926-2.479c-.722-1.065-1.883-1.802-3.136-2.095s-2.588-.157-3.794.291c-.92.342-1.789.879-2.387 1.656-.299.389-.527.835-.647 1.31s-.13.981-.01 1.457c.127.5.392.955.701 1.369s.661.792.989 1.19.633.823.83 1.3.277 1.015.147 1.514c-.142.547-.543 1.021-1.058 1.253"
                  fill="#d4d4d4"/>
            <path d="M-267.635 245.289l.283 2.67-4.924-1.216z" fill="#989898"/>
            <ellipse cx="-264.252" cy="245.041" rx=".529" ry=".626" fill="#5b5b5b"/>
            <path d="M-266.444 258.868c1.899-4.391 8.864-4.738 11.055-.552s-1.043 11.663-5.133 11.867-7.821-6.924-5.922-11.315z"
                  fill="#ededed"/>
            <g fill="red">
                <use xlink:href="#B"/>
                <use xlink:href="#C"/>
                <use xlink:href="#B" x="-3.518" y="0.074"/>
                <use xlink:href="#C" x="-3.519" y="0.074"/>
            </g>
        </g>
        <g fill="none">
            <ellipse transform="matrix(.644362 .764721 -.421866 .906658 0 0)" ry="8.347" rx="3.147" cy="408.751"
                     cx="-95.241" stroke="#bbb" stroke-width=".612" stroke-dasharray="4.89815, 4.89815"
                     stroke-dashoffset="2.57153"/>
            <g stroke="red" stroke-dashoffset="1.89">
                <g stroke-width=".466">
                    <use xlink:href="#D"/>
                    <use xlink:href="#D" x="-0.866" y="19.738"/>
                </g>
                <path d="M-235.3 291.257c.292-.114-.927-.854-.831-.505s.714-1.109.422-.995.927.854.831.505-.714 1.109-.422.995z"
                      stroke-width=".242"/>
                <path d="M-229.97 289.111c.221-.142-.701-1.061-.629-.626s.54-1.377.319-1.235.701 1.061.629.626-.54 1.377-.319 1.235z"
                      stroke-width=".259"/>
            </g>
            <path d="M-142.214 304.743l2.362-4.158m4.489 10.584l3.827-1.984m-28.537-7.607l1.559 2.457m-10.819 5.386l4.677 1.37m4.678 28.49l2.032-3.78m-11.718-6.52l4.677-2.504m23.435 8.504l2.882 3.449m3.071-9.26l4.11 1.606"
                  stroke="#a2a2a2" class="B"/>
            <g stroke="#cacaca">
                <use xlink:href="#E" class="B"/>
                <use xlink:href="#E" x="3.024" y="-0.142" class="B"/>
                <use xlink:href="#E" x="6.17" y="9.024" class="B"/>
                <path d="M-144.676 466.709c-.027.342.088.692.311.952s.554.424.896.447a1.32 1.32 0 0 0 1.369-1.501"
                      stroke-width=".208"/>
                <use xlink:href="#E" x="4.611" y="23.671" class="B"/>
                <path d="M-141.772 477.957c-.062.318.018.661.215.919s.507.425.831.448a1.17 1.17 0 0 0 1.185-1.467"
                      class="C"/>
                <g class="B">
                    <use xlink:href="#E" x="-15.115" y="-59.602"/>
                    <use xlink:href="#E" x="-13.957" y="-53.082"/>
                </g>
                <path d="M-155.085 400.962a1.03 1.03 0 0 0 .918 1.226c.328.024.664-.124.869-.383a1.03 1.03 0 0 0 .171-.934"
                      stroke-width=".169"/>
                <path d="M-154.214 407.339a1.14 1.14 0 0 0 .983 1.456c.191.015.386-.021.56-.102s.326-.208.438-.365.182-.342.202-.533a1.13 1.13 0 0 0-.086-.563"
                      class="C"/>
                <path d="M-159.149 410.503c-.074.262-.024.556.131.779s.415.37.686.391c.155.012.312-.017.453-.081s.265-.165.357-.29.152-.273.172-.427.001-.312-.056-.457"
                      stroke-width=".156"/>
                <use xlink:href="#E" x="-13.438" y="-36.687" class="B"/>
                <path d="M-159.709 417.604a1.14 1.14 0 0 0 .994 1.434 1.13 1.13 0 0 0 .991-.457 1.13 1.13 0 0 0 .208-.524c.024-.188-.002-.383-.072-.559"
                      class="C"/>
            </g>
        </g>
    </g>
    <defs>
        <path id="B"
              d="M-257.81 272.623c.06-.272.047-.561-.038-.827s-.241-.509-.447-.696c-.156-.142-.339-.251-.511-.374s-.337-.265-.439-.45c-.028-.051-.051-.107-.05-.165s.028-.116.07-.157.096-.068.154-.08c.115-.024.234.009.343.054.377.158.675.465.907.802.129.187.242.387.317.601a1.58 1.58 0 0 1 .093.67 1.33 1.33 0 0 1-.411.839"/>
        <path id="C"
              d="M-260.123 272.75c-.076-.268-.08-.557-.011-.827s.21-.522.404-.722c.148-.151.323-.272.487-.405s.321-.284.411-.475c.025-.053.045-.11.04-.168s-.035-.113-.079-.152-.1-.062-.158-.071c-.116-.017-.233.023-.338.075-.367.181-.645.505-.857.856a2.6 2.6 0 0 0-.281.619 1.58 1.58 0 0 0-.053.674 1.33 1.33 0 0 0 .46.812"/>
        <path id="D"
              d="M-233.895 290.52c.512-.233-1.623-1.739-1.455-1.027s1.25-2.258.738-2.025 1.623 1.739 1.455 1.027-1.25 2.258-.738 2.025z"/>
        <path id="E"
              d="M-144.151 454.186c-.106.442-.008.929.261 1.296a1.6 1.6 0 0 0 1.156.641c.516.038 1.045-.198 1.362-.608s.412-.981.245-1.471"/>
    </defs>
</svg>