<svg xmlns:xlink="http://www.w3.org/1999/xlink" xmlns="http://www.w3.org/2000/svg" width="1074.392" height="584.231">
    <style>
        <![CDATA[.B{fill:none}.C{stroke:#3f3d56}.D{stroke-miterlimit:10}.E{fill:#57b894}.F{fill:#2f2e41}.G{fill:#f25022}.H{fill:#3f3d56}.I{fill:#fbbebe}]]></style>
    <ellipse cx="540.643" cy="549.309" rx="527.5" ry="34.922" fill="#f2f2f2"/>
    <use xlink:href="#B" class="F"/>
    <path d="M321.311 433.517h-35.534v-104.64a20.96 20.96 0 0 0-20.956-20.956h-8.326c-5.558 0-10.888 2.208-14.818 6.138s-6.138 9.26-6.138 14.818v104.639h-100.23a11.96 11.96 0 0 1-10.246-5.788c-2.164-3.592-2.29-8.055-.331-11.764l106.082-200.78c2.673-5.058 3.161-10.989 1.352-16.417s-5.759-9.879-10.932-12.322l-6.262-2.957a20.96 20.96 0 0 0-27.429 9.07L58.16 434.591c-2.203 4.121-3.356 8.723-3.356 13.396h0c0 7.536 2.994 14.764 8.323 20.093s12.557 8.323 20.093 8.323h152.319v66.167a25.12 25.12 0 0 0 25.119 25.119h0a25.12 25.12 0 0 0 25.119-25.119v-66.167h35.534c5.687 0 11.141-2.259 15.163-6.281a21.44 21.44 0 0 0 6.281-15.163h0c0-11.843-9.6-21.443-21.443-21.443zm657.997 0h-35.534v-104.64a20.96 20.96 0 0 0-20.956-20.956h-8.326c-5.558 0-10.888 2.208-14.818 6.138s-6.138 9.26-6.138 14.818v104.639h-100.23a11.96 11.96 0 0 1-10.246-5.788c-2.164-3.592-2.29-8.056-.331-11.764l106.082-200.78c2.673-5.058 3.161-10.99 1.352-16.417s-5.759-9.879-10.932-12.322l-6.262-2.957a20.96 20.96 0 0 0-27.429 9.07L716.157 434.591c-2.203 4.121-3.356 8.723-3.356 13.396h0c0 7.536 2.994 14.764 8.323 20.093s12.557 8.323 20.093 8.323h152.319v66.167a25.12 25.12 0 0 0 25.119 25.119h0a25.12 25.12 0 0 0 25.119-25.119v-66.167h35.534c5.687 0 11.141-2.259 15.163-6.281a21.44 21.44 0 0 0 6.281-15.163h0c0-11.843-9.6-21.443-21.443-21.443z"
          class="G"/>
    <g class="B C D">
        <path d="M331.114 421.264H295.58v-104.64c0-5.558-2.208-10.888-6.138-14.818s-9.26-6.138-14.818-6.138h-8.326c-5.558 0-10.888 2.208-14.818 6.138s-6.138 9.26-6.138 14.818v104.639h-100.23a11.96 11.96 0 0 1-10.246-5.788c-2.164-3.592-2.29-8.055-.331-11.764l106.082-200.78c2.673-5.058 3.161-10.99 1.352-16.417s-5.759-9.879-10.932-12.322l-6.262-2.957a20.96 20.96 0 0 0-27.429 9.07L67.963 422.338c-2.203 4.121-3.356 8.723-3.356 13.396h0c0 7.536 2.994 14.764 8.323 20.093s12.557 8.323 20.093 8.323h152.319v66.167a25.12 25.12 0 0 0 25.119 25.119h0a25.12 25.12 0 0 0 25.119-25.119V464.15h35.534c5.687 0 11.141-2.259 15.163-6.281a21.44 21.44 0 0 0 6.281-15.163h0c0-5.687-2.259-11.141-6.28-15.163a21.44 21.44 0 0 0-15.163-6.281zm666.574 0h-35.534v-104.64c0-5.558-2.208-10.888-6.138-14.818s-9.26-6.138-14.818-6.138h-8.326c-5.558 0-10.888 2.208-14.818 6.138s-6.138 9.26-6.138 14.818v104.639h-100.23a11.96 11.96 0 0 1-10.246-5.788c-2.164-3.592-2.29-8.055-.331-11.764l106.082-200.78c2.673-5.058 3.161-10.99 1.352-16.417s-5.759-9.879-10.932-12.322l-6.262-2.957a20.96 20.96 0 0 0-27.429 9.07L734.536 422.338c-2.203 4.121-3.356 8.723-3.356 13.396h0c0 7.536 2.994 14.764 8.323 20.093s12.557 8.323 20.093 8.323h152.319v66.167a25.12 25.12 0 0 0 25.119 25.119h0c13.873 0 25.119-11.246 25.119-25.119V464.15h35.534c5.687 0 11.141-2.259 15.163-6.281a21.44 21.44 0 0 0 6.281-15.163h0c0-11.843-9.6-21.443-21.443-21.443z"/>
        <use xlink:href="#B" x="19.605" y="-11.028"/>
    </g>
    <g class="F">
        <circle cx="471.141" cy="18.25" r="12.901"/>
        <ellipse cx="502.607" cy="46.885" rx="36.186" ry="46.885"/>
    </g>
    <path d="M502.607 79.61c-18.128 0-33.141-17.271-35.776-39.805-.274 2.35-.411 4.714-.41 7.08 0 25.894 16.201 46.885 36.186 46.885s36.186-20.991 36.186-46.885c.001-2.366-.136-4.73-.41-7.08-2.634 22.534-17.648 39.805-35.776 39.805z"
          opacity=".1"/>
    <use xlink:href="#C" class="H"/>
    <use xlink:href="#C" opacity=".1"/>
    <path d="M477.044 160.321a19.77 19.77 0 0 0-1.199 15.075 26.34 26.34 0 0 0 8.829 12.497c10.095 8.092 23.988 9.205 36.925 9.093a284.65 284.65 0 0 0 33.905-2.324 40.54 40.54 0 0 0 11.001-2.554c4.222-1.827 7.933-5.178 9.436-9.526s.436-9.672-3.134-12.574c-3.137-2.55-7.463-2.9-11.498-3.143l-23.088-1.387c2.281-2.308 5.318-3.614 8.096-5.292 3.685-2.226 6.134-5.965 8.813-9.335a129 129 0 0 1 13.439-13.817c.751 4.31 3.478 7.85 6.687 10.824s6.908 5.368 10.244 8.2c8.079 6.858 13.896 16.167 22.392 22.5a43.83 43.83 0 0 0 16.049-8.012l-3.302-5.981a3.94 3.94 0 0 0-1.245-1.553c-.935-.575-2.14-.279-3.225-.441-2.901-.435-4.168-3.784-5.306-6.487-3.125-7.422-9.108-13.18-14.218-19.404a98.01 98.01 0 0 1-9.996-14.723c-1.717-3.102-3.288-6.331-5.617-9.003s-5.594-4.773-9.139-4.781c-3.132-.007-6.021 1.584-8.714 3.183-8.202 4.872-16.094 10.249-23.63 16.099-3.944 3.062-7.863 6.296-12.489 8.174-1.947.79-4 1.331-5.869 2.292-3.273 1.684-5.757 4.534-8.431 7.064-9.538 9.023-22.596 14.869-35.717 15.337z"
          class="H"/>
    <g class="I">
        <path d="M525.32 96.098c-.107 2.758-.694 5.477-1.734 8.033-1.065 2.578-3.155 4.596-5.768 5.573-1.835.492-3.76.554-5.623.182a10.88 10.88 0 0 1-4.582-1.561c-2.165-1.488-3.244-4.144-3.637-6.743s-.217-5.249-.469-7.863c-.245-2.112-.647-4.203-1.202-6.255l-.513-2.042-.481-2.039-.378-1.926-.233-1.643c-.055-1.632-.327-3.25-.809-4.811-.452-1.012-1.018-1.97-1.687-2.854l-.818-1.243a5.89 5.89 0 0 1-.972-3.748c.03-.205.08-.406.148-.601l.085-.223a1.8 1.8 0 0 0 1.23-1.149c.108-.595.057-1.209-.148-1.778a11.32 11.32 0 0 0-.96-2.288c-.264-.478-1.161-1.34-1.167-1.888-.013-1.101 2.14-1.989 3.011-2.423 2.661-1.332 5.627-1.934 8.597-1.743 1.904.129 3.968.714 5.019 2.31.944 1.438.818 3.301 1.221 4.972a1.47 1.47 0 0 0 .299.664 1.34 1.34 0 0 0 .739.34 4.55 4.55 0 0 0 1.416.057h.003a2.93 2.93 0 0 0 .371-.054c.735-.136 1.43-.436 2.033-.878q.585-.156 1.18-.255a.25.25 0 0 0 .047-.009c1.576 4.975 1.781 10.308 3.071 15.374.639 2.52 1.554 5.009 1.683 7.602.009.113.013.23.016.346.019.834-.047 1.674-.013 2.505a6.98 6.98 0 0 0 .126 1.114 15.61 15.61 0 0 0 .525 1.743l.009.028a8.59 8.59 0 0 1 .164.554c.035.135.066.267.091.403l.003.009a14.94 14.94 0 0 1 .104 4.207z"/>
        <circle cx="503.237" cy="44.997" r="18.565"/>
        <path d="M621.103 146.148c-.538-5.065-2.338-9.914-5.236-14.103q.722 4.295 1.447 8.587c-1.228.355-2.55-.051-3.367-1.035-.782-.976-1.38-2.086-1.765-3.276-2.109-5.236-4.867-10.187-8.209-14.736-11.819-.985-23.502-5.884-33.896-11.595s-20.126-12.552-30.384-18.502c-1.778-1.075-3.631-2.021-5.544-2.832-3.21-1.287-6.812-1.954-9.855-3.468-.205-.101-.409-.208-.61-.318a12.58 12.58 0 0 1-1.945-1.306c-.328-.266-.639-.552-.931-.856a20.35 20.35 0 0 1-3.559-5.953c-1.633-3.612-2.215-7.97-3.845-11.583.749-.7 1.591-1.294 2.502-1.765h.003a9.37 9.37 0 0 1 .4-.198 11.94 11.94 0 0 1 2.004-.733q.585-.156 1.18-.255a.25.25 0 0 0 .047-.009c1.839-.3 3.722-.151 5.491.434 2.587.875 4.767 2.621 6.941 4.273a114.02 114.02 0 0 1 10.148 8.049c1.794 1.718 3.43 3.606 5.359 5.167 1.603 1.237 3.293 2.357 5.057 3.351q15.656 9.327 31.315 18.65l10.526 6.438c5.249 3.386 10.308 7.055 15.365 10.721q4.47 3.238 8.936 6.479a9.73 9.73 0 0 1 2.533 2.341 8.47 8.47 0 0 1 1.123 3.433c.747 4.896.326 9.899-1.23 14.6z"/>
    </g>
    <path d="M529.923 110.06c-1.252 5.617-6.929 9.012-9.896 13.946-3.688 6.123-2.184 13.241-.799 20.255q-3.795 3.271-7.593 6.542c-1.397 1.199-2.794 2.404-4.298 3.464a57.35 57.35 0 0 1-6.86 3.94q-3.361 1.728-6.721 3.458a32.13 32.13 0 0 1-6.58 2.788c-4.415 1.133-9.103.34-13.471-.972a6.09 6.09 0 0 1-1.473-.601c-.272-.162-.51-.377-.699-.632a3.91 3.91 0 0 1-.444-2.539c.444-7.351 2.24-14.547 4.031-21.69a85.26 85.26 0 0 1 3.848-12.577c1.574-3.502 3.383-6.893 5.415-10.151a68.37 68.37 0 0 1 7.929-11.514 18.48 18.48 0 0 0 3.675-4.739c1.117-2.549.686-5.472.913-8.247a17.15 17.15 0 0 1 1.633-6.007v-.003c.485-1.016 1.069-1.981 1.743-2.882q.458 1.067.916 2.13.302.699.598 1.394.387.897.768 1.787 1.1 2.558 2.196 5.113a21.59 21.59 0 0 0 3.335 5.944 6.5 6.5 0 0 0 11.123-.853 21.26 21.26 0 0 0 2.272-6.013c.621-2.567.707-5.234.252-7.835-.758-5.009-2.889-10.126-4.437-14.78-.63-1.552-.995-3.198-1.079-4.871a3.35 3.35 0 0 1 .057-.56l.028-.145a11.94 11.94 0 0 1 2.004-.733q.585-.156 1.18-.255 2.044 11.064 4.094 22.127l.098.522.614 3.169c.198.957.412 1.91.651 2.857l.009.028.255.957.003.009a37.2 37.2 0 0 0 .818 2.58c1.85 5.12 5.076 10.274 3.889 15.588z"
          class="G"/>
    <path d="M605.267 188.993c-.058 1.082.151 2.162.61 3.143 1.162 2.124 3.95 2.606 6.362 2.805 14.092 1.158 28.27.726 42.266-1.288.759-.052 1.496-.281 2.151-.668 1.99-1.395.763-4.795-1.41-5.884s-4.751-.826-7.135-1.297a22.48 22.48 0 0 1-6.678-2.896q-7.252-4.167-14.293-8.688c-2.795-1.795-6.093-3.71-9.24-2.646-8.525 2.884-12.69 8.222-12.634 17.418z"
          class="H"/>
    <path d="M501.383 82.989v.003l-.072.39-.116.645-1.419 5.963c-1.51 5.459-3.534 10.831-5.541 16.123q-8.081 21.287-16.164 42.577c-1.359 3.575-2.716 7.152-4.261 10.654l-1.576 3.534c-1.894 4.257-3.713 8.653-4.317 13.184a27.45 27.45 0 0 0-.192 9.04c.604 2.97 2.407 5.872 5.23 6.97 1.378.538 3.351 1.259 2.974 2.69-.205.787-1.098 1.171-1.901 1.303a7.31 7.31 0 0 1-5.966-1.718c-1.507-1.337-2.665-3.417-4.67-3.641-1.388-.151-2.665.68-3.936 1.262-5.186 2.369-11.227.711-16.674-.972.428-2.206 2.643-3.66 4.843-4.1s4.474-.129 6.718-.189a3.51 3.51 0 0 0 2.042-.525c.548-.503.931-1.158 1.101-1.882 1.445-4.282 2.52-8.681 3.213-13.147.724-4.666 1.026-9.405 2.058-14.015.802-3.597 2.042-7.08 3.106-10.61a224.68 224.68 0 0 0 5.06-22.077 78.02 78.02 0 0 0 1.425-9.368c.179-2.612.094-5.236.346-7.838a60.89 60.89 0 0 1 2.111-9.997q1.444-5.348 2.885-10.689c1.425-5.271 2.955-10.746 6.567-14.843a13.96 13.96 0 0 1 10.028-4.789 9.88 9.88 0 0 1 2.13.23l.349.088c.762.199 1.494.502 2.174.9 1.114-.708 1.68-.459 2.42.632.648 1.156.954 2.472.881 3.795.062 3.492-.224 6.981-.856 10.415z"
          class="I"/>
    <path d="M502.607 87.162l-.047.047-.255.255-2.53 2.527-1.24-5.208-4.251-17.854a9.88 9.88 0 0 1 2.13.23c.03-.205.08-.406.148-.601l.201.689 1.441 4.902 2.728 9.308.45 1.532v.003z"
          class="G"/>
    <g class="F">
        <path d="M518.661 30.203a12.58 12.58 0 0 1-3.7 8.896c-.424.425-.879.818-1.36 1.176a12.53 12.53 0 0 1-7.536 2.524h-15.096c-6.946-.011-12.571-5.644-12.571-12.59s5.625-12.579 12.571-12.59h15.096a12.63 12.63 0 0 1 12.596 12.584z"/>
        <circle cx="532.815" cy="18.25" r="12.901"/>
    </g>
    <path d="M532.5 5.349l-.472.012a12.9 12.9 0 0 1 0 25.778l.472.012c7.125 0 12.901-5.776 12.901-12.901S539.625 5.349 532.5 5.349zm-61.359 0l.472.012a12.9 12.9 0 0 0 0 25.778l-.472.012c-7.121-.006-12.89-5.78-12.89-12.901s5.769-12.895 12.89-12.901zm42.46 34.926a12.53 12.53 0 0 1-7.536 2.524h-15.096a12.53 12.53 0 0 1-7.536-2.524z"
          opacity=".1"/>
    <path d="M611.086 133.756s3.252 9.372 6.229 6.876l-2.373-12.25z" class="I"/>
    <use xlink:href="#D" class="E"/>
    <g class="B C D">
        <path d="M1031.941 543.793c-1.789-9.11 5.963-17.187 13.621-22.437s16.605-10.408 19.218-19.317c3.755-12.804-7.43-24.53-16.136-34.642a125.3 125.3 0 0 1-16.524-24.557c-1.811-3.533-3.476-7.225-3.952-11.166-.686-5.675 1.137-11.323 2.974-16.737q9.179-27.052 19.628-53.65"/>
        <use xlink:href="#D" x="0.857" y="-2.758"/>
    </g>
    <use xlink:href="#E" class="E"/>
    <use xlink:href="#E" x="1.143" y="-3.677" class="B C D"/>
    <use xlink:href="#F" class="E"/>
    <use xlink:href="#F" x="0.99" y="-3.724" class="B C D"/>
    <use xlink:href="#G" class="E"/>
    <use xlink:href="#G" x="0.857" y="-2.758" class="B C D"/>
    <path d="M9.007 470.249c5.458 1.984 11.574.305 15.253-4.189s4.118-10.821 1.096-15.779-8.847-7.468-14.527-6.257l.342 7.038-3.33-6.032c-3.268 1.536-5.793 4.306-7.019 7.702a13.41 13.41 0 0 0-.787 3.699c-.432 6.093 3.231 11.733 8.973 13.818z"
          class="E"/>
    <path d="M25.484 551.879c-1.175-5.986 3.918-11.292 8.949-14.741s10.91-6.838 12.626-12.692c2.467-8.412-4.882-16.117-10.601-22.76-4.244-4.93-7.888-10.346-10.856-16.135a22.21 22.21 0 0 1-2.597-7.336c-.451-3.729.747-7.439 1.954-10.996q6.031-17.773 12.896-35.249M9.571 468.437c5.458 1.984 11.574.305 15.253-4.189s4.118-10.82 1.096-15.779-8.847-7.468-14.527-6.257l.342 7.038-3.33-6.032a13.62 13.62 0 0 0-7.019 7.702 13.41 13.41 0 0 0-.787 3.699c-.432 6.093 3.231 11.733 8.973 13.818z"
          class="B C D"/>
    <use xlink:href="#H" class="E"/>
    <use xlink:href="#H" x="0.751" y="-2.416" class="B C D"/>
    <path d="M34.058 501.822c6.534 2.37 13.807-.539 16.904-6.763s1.03-13.78-4.802-17.562l-1.604 5.4-1.137-6.77c-.011-.005-.023-.01-.035-.013-4.593-1.67-9.729-.762-13.47 2.383s-5.52 8.047-4.665 12.859 4.214 8.802 8.81 10.465z"
          class="E"/>
    <path d="M34.708 499.374c6.534 2.37 13.807-.539 16.904-6.763s1.03-13.78-4.802-17.562l-1.604 5.4-1.137-6.77c-.011-.005-.023-.01-.035-.013-4.592-1.666-9.724-.755-13.463 2.389s-5.516 8.044-4.663 12.854 4.208 8.799 8.8 10.465z"
          class="B C D"/>
    <path d="M19.822 524.53a13.67 13.67 0 0 0 26.731.9 13.67 13.67 0 0 0-24.096-11.608l6.092 9.17-8.324-4.867c-.645 2.072-.784 4.269-.403 6.405z"
          class="E"/>
    <path d="M20.385 522.718a13.67 13.67 0 0 0 26.731.9A13.67 13.67 0 0 0 23.02 512.01l6.092 9.17-8.324-4.867c-.645 2.072-.784 4.269-.403 6.405z"
          class="B C D"/>
    <g class="F">
        <ellipse cx="480.946" cy="319.116" rx="17" ry="22"/>
        <ellipse cx="573.446" cy="319.616" rx="17" ry="22"/>
        <path d="M560.446 384.616c0 9.94-13.88 18-31 18s-31-8.06-31-18c0-8.61 10.41-15.81 24.32-17.57 2.215-.292 4.446-.436 6.68-.43a50.7 50.7 0 0 1 11.13 1.2c11.62 2.59 19.87 9.14 19.87 16.8z"/>
    </g>
    <g class="B C">
        <ellipse cx="484.946" cy="314.116" rx="17" ry="22"/>
        <ellipse cx="577.446" cy="314.616" rx="17" ry="22"/>
        <ellipse cx="533.446" cy="379.616" rx="31" ry="18"/>
    </g>
    <g fill="#fff">
        <path d="M540.946 369.316c.008 1.258-.464 2.471-1.32 3.392a4.34 4.34 0 0 1-3.18 1.408h-10c-2.565-.089-4.576-2.234-4.5-4.8-.005-.975.28-1.929.82-2.741a47.02 47.02 0 0 1 6.68-.459c3.747-.012 7.483.417 11.13 1.28.247.61.373 1.262.37 1.92z"/>
        <circle cx="484.946" cy="308.116" r="5"/>
        <circle cx="577.946" cy="308.116" r="5"/>
    </g>
    <g class="G">
        <circle cx="582.946" cy="355.116" r="5" opacity=".3"/>
        <circle cx="460.946" cy="355.116" r="5" opacity=".3"/>
    </g>
    <defs>
        <path id="B"
              d="M520.426 167.01c-85.944 0-147.651 55.139-147.651 183.798 0 145.813 61.707 184.411 147.651 184.411s151.327-42.274 151.327-184.411c0-151.94-65.383-183.798-151.327-183.798zm.565 319.808c-59.527 0-90.626-34.923-90.626-135.916 0-89.112 32.372-136.105 91.899-136.105s91.899 30.868 91.899 136.105c0 98.447-33.645 135.916-93.172 135.916z"/>
        <path id="C"
              d="M576.242 184.189c-.777 3.193-4.128 5.751-7.839 7.538-7.802 3.757-17.425 4.878-26.76 5.254-2.381.145-4.77.101-7.144-.132-4.601-.445-8.917-2.429-12.251-5.631a1.68 1.68 0 0 1 .044-2.844c4.969-5.459 13.262-8.806 21.616-11.216 6.334-1.827 17.381-6.561 24.29-5.922 6.692.619 9.025 8.921 8.044 12.953z"/>
        <path id="D"
              d="M1006.864 419.55c8.307 3.02 17.615.463 23.215-6.376s6.268-16.469 1.668-24.016-13.466-11.366-22.111-9.523l.521 10.712-5.068-9.18c-4.974 2.337-8.817 6.554-10.684 11.723a20.41 20.41 0 0 0-1.197 5.63 20.81 20.81 0 0 0 13.656 21.031z"/>
        <path id="E"
              d="M1029.397 357.588a20.79 20.79 0 0 1 14.98-13.198l1.714 10.184 3.177-10.696a20.81 20.81 0 0 1 11.509 37.936 20.81 20.81 0 0 1-31.38-24.227z"/>
        <path id="F"
              d="M1044.991 467.604c9.946 3.608 21.015-.821 25.728-10.293s1.568-20.973-7.309-26.729l-2.441 8.219-1.731-10.304c-.017-.008-.035-.015-.053-.02a20.81 20.81 0 0 0-27.599 23.199 20.81 20.81 0 0 0 13.405 15.928z"/>
        <path id="G"
              d="M1023.324 502.167c1.702 9.687 9.957 16.858 19.787 17.189s18.549-6.268 20.899-15.819-2.31-19.442-11.171-23.711-19.501-1.747-25.504 6.043l9.273 13.957-12.67-7.408c-.982 3.153-1.193 6.497-.613 9.749z"/>
        <path id="H"
              d="M23.812 429.539a13.66 13.66 0 0 1 9.842-8.671l1.126 6.691 2.087-7.027c5.947.088 11.154 4.01 12.881 9.702s-.424 11.846-5.319 15.223-11.412 3.203-16.12-.432-6.526-9.895-4.497-15.486z"/>
    </defs>
</svg>