<svg xmlns="http://www.w3.org/2000/svg" width="536.832" height="536.832" viewBox="13.584 12.584 536.832 536.832">
    <circle fill="#5e5e5e" cx="282" cy="281" r="268.416"/>
    <path fill="#e3e3e3"
          d="M315.408 300.584c9.792 3.456 18.72 8.352 26.783 14.4s14.688 13.248 20.16 21.6 9.793 16.992 12.672 26.784 4.608 19.584 4.608 30.239h-13.823c0-12.096-2.017-23.039-6.336-33.407s-10.08-19.296-17.568-26.784-16.416-13.536-26.496-17.855-21.312-6.337-33.12-6.337c-7.776 0-15.264.864-22.464 2.88S246 317 239.664 320.457c-6.336 3.744-11.808 8.063-16.992 12.96-5.184 5.184-9.504 10.656-12.96 16.992s-6.336 12.96-8.352 20.16-2.88 14.688-2.88 22.752h-13.824c0-10.656 1.44-20.736 4.608-30.24s7.488-18.432 12.96-26.496 12.384-15.264 20.448-21.312 16.704-10.944 26.784-14.688c-5.76-3.168-10.656-6.912-15.264-11.232s-8.352-9.216-11.52-14.688-5.472-11.232-7.2-17.28-2.592-12.384-2.592-18.72c0-9.792 1.728-18.72 5.472-27.359s8.64-15.841 14.976-22.465c6.336-6.336 13.824-11.52 22.176-14.976 8.352-3.744 17.568-5.472 27.072-5.472 9.792 0 18.72 1.728 27.072 5.472s15.84 8.64 22.176 14.976 11.232 13.824 14.976 22.465 5.472 17.567 5.472 27.359c0 6.336-.863 12.672-2.592 18.72s-4.031 11.809-7.199 16.992c-3.168 5.473-6.912 10.368-11.521 14.688-4.896 4.895-10.08 8.639-15.552 11.519zm-89.28-61.632c0 7.776 1.44 14.976 4.32 21.888s6.912 12.672 12.096 17.856 10.944 9.216 17.856 12.096c6.624 2.88 14.112 4.32 21.6 4.32 7.775 0 14.977-1.44 21.6-4.32s12.672-6.912 17.856-12.096 8.928-10.944 12.096-17.856c2.88-6.912 4.32-14.112 4.32-21.888s-1.44-14.976-4.32-21.888-6.911-12.672-12.096-17.856-10.944-9.216-17.856-12.096c-6.623-2.88-14.111-4.32-21.6-4.32-7.776 0-14.976 1.44-21.6 4.32s-12.672 6.912-17.856 12.096-8.928 10.944-12.096 17.856c-2.88 6.624-4.32 14.112-4.32 21.888z"/>
</svg>