<?xml version="1.0" encoding="UTF-8" standalone="no"?>
<svg
   xmlns:dc="http://purl.org/dc/elements/1.1/"
   xmlns:cc="http://creativecommons.org/ns#"
   xmlns:rdf="http://www.w3.org/1999/02/22-rdf-syntax-ns#"
   xmlns:svg="http://www.w3.org/2000/svg"
   xmlns="http://www.w3.org/2000/svg"
   xmlns:sodipodi="http://sodipodi.sourceforge.net/DTD/sodipodi-0.dtd"
   xmlns:inkscape="http://www.inkscape.org/namespaces/inkscape"
   version="1.0"
   width="590.60175"
   height="600"
   id="svg2413"
   xml:space="preserve"
   sodipodi:docname="jedi-logo.svg"
   inkscape:version="0.92.3 (2405546, 2018-03-11)"><metadata
   id="metadata9"><rdf:RDF><cc:Work
       rdf:about=""><dc:format>image/svg+xml</dc:format><dc:type
         rdf:resource="http://purl.org/dc/dcmitype/StillImage" /></cc:Work></rdf:RDF></metadata><sodipodi:namedview
   pagecolor="#ffffff"
   bordercolor="#666666"
   borderopacity="1"
   objecttolerance="10"
   gridtolerance="10"
   guidetolerance="10"
   inkscape:pageopacity="0"
   inkscape:pageshadow="2"
   inkscape:window-width="1920"
   inkscape:window-height="1017"
   id="namedview7"
   showgrid="false"
   inkscape:zoom="1.1125147"
   inkscape:cx="112.0951"
   inkscape:cy="249.90535"
   inkscape:window-x="-8"
   inkscape:window-y="-8"
   inkscape:window-maximized="1"
   inkscape:current-layer="svg2413" /><defs
   id="defs9" />
<g
   transform="matrix(1.105415,0,0,-1.105415,769.46208,605.46488)"
   id="g1">
<g
   transform="matrix(2.5676375,0,0,-2.5676375,-860.6843,-186.96836)"
   style="fill:#532814;fill-opacity:1"
   id="g2">



<path
   d="m 171.38577,-146.87499 c 2.03842,-2.9749 12.91487,-18.84945 12.91487,-18.84945 0,0 -8.28916,22.79757 -8.28916,22.79757 0,0 25.69819,3.73169 25.69819,3.73169 0,0 -25.69819,3.73028 -25.69819,3.73028 0,0 9.94777,19.48177 9.94777,19.48177 0,0 -12.41092,-13.0482 -14.16467,-14.89141 0.72286,28.24941 0.90074,35.20213 0.90074,35.20213 0,0 63.4176,-29.4306 28.1854,-94.5075 0,0 43.93724,-48.49718 4.14546,-78.34119 0,0 67.97754,41.03556 24.86995,111.50064 0,0 35.64632,-34.817 16.99421,-70.05061 0,0 32.33051,45.59585 -7.04679,95.75093 0,0 10.77707,-6.63302 20.31036,-31.91745 0,0 -6.95413,75.271875 -91.168,76.259267 0,0.0099 0,0.0099 0,0.0099 -0.2808,0 -0.55983,0 -0.83956,-0.0014 -0.27868,0.0014 -0.55876,0.0014 -0.83885,0.0014 0,0 0,0 0,-0.0099 -84.213519,-0.987392 -91.167653,-76.259267 -91.167653,-76.259267 9.532939,25.28443 20.309299,31.91745 20.309299,31.91745 -39.376596,-50.15508 -7.046081,-95.75093 -7.046081,-95.75093 -18.652818,35.23361 16.994915,70.05061 16.994915,70.05061 -43.108292,-70.46508 24.86853,-111.50064 24.86853,-111.50064 -39.791073,29.84401 4.14617,78.34119 4.14617,78.34119 -35.23183,65.0769 28.18575,94.5075 28.18575,94.5075 0,0 0.17682,-6.95272 0.89968,-35.20213 -1.75409,1.84321 -14.16431,14.89141 -14.16431,14.89141 0,0 9.94741,-19.48177 9.94741,-19.48177 0,0 -25.69748,-3.73028 -25.69748,-3.73028 0,0 25.69748,-3.73169 25.69748,-3.73169 0,0 -8.28809,-22.79757 -8.28809,-22.79757 0,0 10.87538,15.87455 12.91381,18.84945 0.92373,-36.08343 3.21395,-125.61475 3.22527,-126.03736 0.004,-0.99269 0.004,-0.99835 0.004,-0.99835 0,0 0,0.001 0.01,0.41271 0.011,-0.41165 0.011,-0.41271 0.011,-0.41271 0,0 0,0.006 0.004,0.99835 0.0184,0.70623 2.30295,90.03598 3.22421,126.03736 0,0 0,0 0,0 z"
   style="fill:#fafafa;fill-opacity:1;fill-rule:evenodd;stroke:none"
   id="path1"
   inkscape:connector-curvature="0" /></g>
</g>
</svg>