<?xml version="1.0" encoding="UTF-8"?>
<svg id="Layer_1" data-name="Layer 1" xmlns="http://www.w3.org/2000/svg" viewBox="0 0 2405.58 2100.66">
  <defs>
    <style>
      .cls-1 {
        fill: #e14b52;
      }

      .cls-2 {
        fill: #484b58;
      }
    </style>
  </defs>
  <g>
    <g>
      <path class="cls-2" d="M963.64,547.31c-.22-1.51-.75-2.94-1.59-4.28-.84-1.34-1.92-2.5-3.24-3.47-1.32-.97-2.81-1.74-4.47-2.3-1.66-.56-3.4-.84-5.22-.84-1.64,0-3.18,.17-4.6,.52-1.43,.35-2.67,.88-3.73,1.59-1.06,.71-1.9,1.63-2.53,2.75-.63,1.12-.94,2.46-.94,4.02,0,1.94,.42,3.49,1.26,4.64,.84,1.15,1.92,2.09,3.24,2.82,1.32,.73,2.78,1.32,4.38,1.75,1.6,.43,3.15,.91,4.67,1.43l17.83,5.96c2.46,.87,4.77,2.05,6.94,3.57,2.16,1.51,4.03,3.35,5.61,5.51,1.58,2.16,2.82,4.65,3.73,7.45,.91,2.81,1.36,5.96,1.36,9.46,0,4.75-.88,9.1-2.63,13.03-1.75,3.93-4.2,7.3-7.36,10.11-3.15,2.81-6.94,4.99-11.34,6.55-4.41,1.56-9.29,2.33-14.65,2.33-3.76,0-7.31-.42-10.66-1.26-3.35-.84-6.41-2.06-9.17-3.66-2.77-1.6-5.19-3.51-7.26-5.74-2.07-2.23-3.69-4.74-4.86-7.55h-6.68v-19.51h23.46v4.02c0,1.94,.31,3.74,.94,5.38,.63,1.64,1.57,3.07,2.82,4.28,1.25,1.21,2.83,2.15,4.73,2.82,1.9,.67,4.13,1,6.68,1,3.89,0,6.85-.9,8.88-2.69,2.03-1.79,3.05-4.29,3.05-7.49,0-1.64-.36-3.01-1.07-4.12-.71-1.1-1.63-2.03-2.75-2.79-1.12-.76-2.38-1.39-3.76-1.91-1.38-.52-2.75-.99-4.08-1.43l-14.84-4.8c-2.81-.86-5.52-2.07-8.13-3.63-2.62-1.56-4.93-3.5-6.94-5.83-2.01-2.33-3.61-5.07-4.8-8.2-1.19-3.13-1.78-6.71-1.78-10.73,0-4.67,.86-8.83,2.59-12.48,1.73-3.65,4.15-6.73,7.26-9.24,3.11-2.51,6.81-4.41,11.08-5.7,4.28-1.3,8.97-1.94,14.07-1.94,4.02,0,7.73,.47,11.15,1.39,3.41,.93,6.47,2.17,9.17,3.73,2.7,1.56,4.99,3.34,6.87,5.35,1.88,2.01,3.32,4.09,4.31,6.25h6.48v19.58h-23.46v-5.7Z"/>
      <path class="cls-2" d="M1023.64,519.63h42.07v17.76h-10.37v62.74h10.37v17.76h-42.07v-17.76h10.18v-62.74h-10.18v-17.76Z"/>
      <path class="cls-2" d="M1164.79,519.63h37.33v17.83h-7.97v80.44h-21.52l-40.9-63.52v45.76h8.23v17.76h-37.27v-17.76h8.1v-62.68h-7.97v-17.83h29.69l40.64,64.37v-46.54h-8.36v-17.83Z"/>
      <path class="cls-2" d="M1303.67,549.51c-2.42-3.46-4.6-5.91-6.55-7.36-1.95-1.45-4.04-2.48-6.29-3.11-2.25-.63-4.6-.94-7.07-.94-3.63,0-7,.81-10.11,2.43-3.11,1.62-5.8,3.82-8.07,6.61-2.27,2.79-4.05,6.03-5.35,9.72-1.3,3.69-1.94,7.62-1.94,11.76s.64,8.13,1.91,11.83c1.27,3.69,3.04,6.93,5.28,9.69,2.25,2.77,4.93,4.96,8.04,6.58,3.11,1.62,6.52,2.43,10.24,2.43,2.59,0,5.01-.42,7.26-1.26,2.25-.84,4.29-1.95,6.12-3.34,1.84-1.38,3.45-2.97,4.83-4.76,1.38-1.79,2.46-3.66,3.24-5.61l20.87,5.83c-1.34,4.24-3.31,8.16-5.9,11.76-2.59,3.61-5.72,6.73-9.37,9.37-3.65,2.64-7.76,4.71-12.32,6.22-4.56,1.51-9.47,2.27-14.75,2.27-4.45,0-8.71-.61-12.77-1.81-4.06-1.21-7.85-2.92-11.38-5.12-3.52-2.2-6.72-4.86-9.59-7.97-2.87-3.11-5.33-6.56-7.36-10.34-2.03-3.78-3.61-7.84-4.73-12.19-1.12-4.34-1.68-8.87-1.68-13.58,0-7.04,1.23-13.64,3.69-19.8,2.46-6.16,5.83-11.54,10.11-16.14,4.28-4.6,9.3-8.23,15.07-10.89,5.77-2.66,11.98-3.99,18.63-3.99,5.31,0,9.79,.66,13.42,1.98,3.63,1.32,7.63,3.92,11.99,7.81h14.52v21.91h-20.03Z"/>
      <path class="cls-2" d="M1366.58,519.63h78.17v33.51h-21.13v-13.94h-25.21v19.38h19.51v18.8h-19.51v22.75h25.21v-17.44h21.13v35.2h-78.17v-17.76h10.31v-60.93h-10.31v-19.58Z"/>
    </g>
    <g>
      <path class="cls-2" d="M1003.23,1706.31l33.96-36.1c2.94-2.85,5.21-5.7,6.81-8.56,1.6-2.85,2.4-5.75,2.4-8.69,0-1.25-.26-2.5-.78-3.73-.52-1.23-1.26-2.33-2.24-3.31-.97-.97-2.16-1.75-3.56-2.33-1.4-.58-2.99-.88-4.76-.88-2.12,0-3.97,.33-5.54,1-1.58,.67-2.9,1.59-3.95,2.75-1.06,1.17-1.87,2.53-2.43,4.08-.56,1.55-.87,3.2-.91,4.93h-19.51c0-5.1,.84-9.65,2.53-13.64,1.68-4,4.01-7.37,6.97-10.11,2.96-2.74,6.43-4.83,10.4-6.25,3.98-1.43,8.23-2.14,12.77-2.14,4.28,0,8.35,.65,12.22,1.94,3.87,1.3,7.28,3.2,10.24,5.7,2.96,2.51,5.3,5.6,7.03,9.27,1.73,3.67,2.59,7.91,2.59,12.71,0,3.85-.79,7.4-2.37,10.66-1.58,3.26-3.71,6.38-6.38,9.37l-28,30.27h36.62v19.9h-64.11v-16.85Z"/>
      <path class="cls-2" d="M1141.46,1724.07c-6.91,0-12.79-1.27-17.63-3.83-4.84-2.55-8.78-6.06-11.83-10.53-3.05-4.47-5.27-9.74-6.68-15.82-1.4-6.07-2.11-12.61-2.11-19.61s.67-13.43,2.01-19.54c1.34-6.11,3.52-11.47,6.55-16.07,3.02-4.6,6.98-8.24,11.86-10.92,4.88-2.68,10.87-4.02,17.95-4.02s12.93,1.32,17.79,3.95c4.86,2.64,8.8,6.22,11.83,10.76,3.03,4.54,5.22,9.84,6.58,15.91,1.36,6.07,2.04,12.54,2.04,19.41s-.7,13.49-2.11,19.61c-1.4,6.12-3.63,11.44-6.68,15.98-3.05,4.54-7.01,8.12-11.89,10.76-4.88,2.64-10.78,3.95-17.7,3.95Zm0-19.9c3.85,0,6.9-.77,9.17-2.3,2.27-1.53,4.01-3.65,5.22-6.35,1.21-2.7,1.99-5.91,2.33-9.62,.35-3.72,.52-7.76,.52-12.12s-.17-8.26-.52-11.96-1.11-6.91-2.3-9.66c-1.19-2.74-2.92-4.89-5.19-6.45-2.27-1.56-5.31-2.33-9.11-2.33s-6.91,.78-9.2,2.33c-2.29,1.56-4.04,3.71-5.25,6.45-1.21,2.75-2,5.96-2.37,9.66-.37,3.69-.55,7.68-.55,11.96s.18,8.41,.55,12.12c.37,3.72,1.14,6.92,2.33,9.62,1.19,2.7,2.92,4.82,5.19,6.35,2.27,1.53,5.33,2.3,9.17,2.3Z"/>
      <path class="cls-2" d="M1215.91,1705.4h10.31v-51.27l-15.1,9.01v-22.56l27.09-15.94,9.4,.13v80.63h10.37v17.76h-42.07v-17.76Z"/>
      <path class="cls-2" d="M1307.6,1723.29l19.9-35c-1.17,.09-2.29,.06-3.37-.06-1.08-.13-2.12-.3-3.11-.52-3.67-.69-7.11-1.96-10.31-3.79-3.2-1.84-5.99-4.11-8.36-6.81-2.38-2.7-4.25-5.76-5.61-9.17-1.36-3.41-2.04-7.04-2.04-10.89,0-4.71,.9-9.07,2.69-13.09,1.79-4.02,4.22-7.5,7.29-10.44,3.07-2.94,6.68-5.24,10.82-6.9,4.15-1.66,8.56-2.5,13.22-2.5s8.92,.83,13.03,2.5c4.1,1.66,7.7,3.94,10.79,6.84,3.09,2.9,5.53,6.31,7.33,10.24,1.79,3.93,2.69,8.17,2.69,12.7,0,2.16-.22,4.22-.65,6.19-.43,1.97-1.03,3.88-1.78,5.74-.76,1.86-1.61,3.69-2.56,5.51-.95,1.82-1.95,3.65-2.98,5.51l-24.31,43.95h-22.69Zm21.52-53.34c2.51,0,4.8-.44,6.87-1.33,2.07-.88,3.8-2.21,5.19-3.99,.6-1.12,1.11-2.34,1.52-3.66,.41-1.32,.61-2.75,.61-4.31,0-1.47-.29-3-.87-4.6-.58-1.6-1.47-3.07-2.66-4.41-1.19-1.34-2.7-2.43-4.54-3.27-1.84-.84-4.01-1.26-6.52-1.26-1.81,0-3.6,.3-5.35,.91-1.75,.61-3.33,1.48-4.73,2.62-1.41,1.15-2.54,2.55-3.4,4.21-.86,1.66-1.3,3.55-1.3,5.67s.4,3.87,1.2,5.51c.8,1.64,1.88,3.05,3.24,4.21,1.36,1.17,2.97,2.08,4.83,2.72,1.86,.65,3.83,.97,5.9,.97Z"/>
    </g>
    <g>
      <path class="cls-2" d="M845.05,793c20.61-81.74-10.31-177.97-141.82-293.67-96.33-84.7-328.54-288.76-332.31-282.97-7.17,11.35,216.85,214.26,301.44,312.38,20.61,23.93-19.77,59.01-43.04,35.49-32.79-33.21-292.14-285.82-312.49-294.52-23.01-9.81,250.53,276.51,280.07,306.62,29.81,30.26,9.03,47.18,9.03,47.18,0,0-17.27,20.46-46.87-9.73-29.54-30.13-312.27-307.46-302.97-284.43,8.61,20.44,257.28,283.4,290.33,316.61,23.21,23.41-12.65,63.37-36.03,42.37-97.24-86.13-297.34-312.83-308.4-305.73-5.52,3.55,195.11,238.6,278.48,336.15,113.87,133.13,209.89,164.9,291.87,145.62,0,0,9.15,8.97,45.68,46.11h143.08c-97.17-97.65-116.08-117.48-116.08-117.48Z"/>
      <path class="cls-2" d="M1817.9,1975.12c73.21,51.91,114.56-7.33,114.56-7.33,0,0,59.67-40.27,9.09-114.45-32.57-47.46-243.37-238.63-475.71-454.89h-182.72c246.65,269.96,481.35,539.14,534.79,576.67Z"/>
      <path class="cls-2" d="M1602.92,856.48c10.31,2.5,21.62,1.91,32.36,2.68,104.35,33.74,253.93-15.62,372.69-134.38,148.03-148.04,190.65-345.69,95.16-441.32-95.86-95.8-293.78-53.26-441.82,94.74-118.76,118.89-167.8,268.63-134.11,373.04,.69,10.78,.21,21.91,2.76,32.2,0,0-20.63,21.17-127.64,127.04h146.48c43.58-43.73,54.12-54.01,54.12-54.01Z"/>
      <path class="cls-2" d="M405.25,1856.47c-52.45,75.24,7.81,116.63,7.92,116.84,0,0,41.34,60.05,116.68,7.76,54.48-37.63,294.89-309.51,547.68-582.62h-187.22c-237.23,217.88-451.89,410.09-485.05,458.02Z"/>
    </g>
    <path class="cls-2" d="M2340.43,1409.34H17.21c-6.01,0-10.9-4.89-10.9-10.89s4.89-10.9,10.9-10.9H2340.43c6,0,10.9,4.89,10.9,10.9s-4.89,10.89-10.9,10.89Z"/>
    <path class="cls-2" d="M2340.43,921.38H17.21c-6.01,0-10.9-4.89-10.9-10.9s4.89-10.89,10.9-10.89H2340.43c6,0,10.9,4.89,10.9,10.89s-4.89,10.9-10.9,10.9Z"/>
    <g>
      <path class="cls-2" d="M0,1005.9H122.83v52.05h-30.28v83.46l91.79-80.06v-55.45h97.85v55.83h-21.39l-95.58,82.14,91.6,92.74h23.28v56.21h-95.2v-56.21l-92.36-92.36v96.71h30.28v51.86H0v-51.86H29.71v-183.01H0v-52.05Z"/>
      <path class="cls-2" d="M390.74,1005.9h122.83v51.86h-30.28v183.2h30.28v51.86h-122.83v-51.86h29.71v-183.2h-29.71v-51.86Z"/>
      <path class="cls-2" d="M670.77,1240.96h29.71v-184.91h-34.82v37.1h-61.7v-87.25h260.99v87.25h-62.08v-37.1h-39.56v184.91h30.28v51.86h-122.83v-51.86Z"/>
      <path class="cls-2" d="M1157.65,1093.15c-7.07-10.09-13.44-17.25-19.11-21.48-5.68-4.22-11.8-7.25-18.36-9.08-6.56-1.83-13.44-2.74-20.63-2.74-10.6,0-20.44,2.36-29.52,7.1-9.08,4.73-16.94,11.17-23.56,19.3-6.62,8.14-11.83,17.6-15.61,28.39-3.79,10.79-5.68,22.24-5.68,34.35s1.86,23.75,5.58,34.54c3.72,10.79,8.86,20.22,15.42,28.29,6.56,8.08,14.38,14.48,23.47,19.21,9.08,4.73,19.05,7.1,29.9,7.1,7.57,0,14.63-1.23,21.2-3.69,6.56-2.46,12.52-5.71,17.89-9.75,5.36-4.04,10.06-8.67,14.1-13.91,4.04-5.23,7.19-10.69,9.46-16.37l60.94,17.03c-3.91,12.37-9.65,23.82-17.22,34.35-7.57,10.54-16.69,19.65-27.35,27.35-10.66,7.7-22.65,13.75-35.96,18.17-13.31,4.42-27.66,6.62-43.06,6.62-13,0-25.43-1.77-37.28-5.3-11.86-3.53-22.93-8.52-33.21-14.95-10.29-6.44-19.62-14.2-28.01-23.28-8.39-9.08-15.55-19.14-21.48-30.19-5.93-11.04-10.54-22.9-13.82-35.58-3.28-12.68-4.92-25.9-4.92-39.65,0-20.56,3.6-39.84,10.79-57.82,7.19-17.98,17.03-33.69,29.52-47.13,12.49-13.44,27.16-24.04,44-31.79,16.84-7.76,34.98-11.64,54.41-11.64,15.52,0,28.58,1.93,39.18,5.77,10.6,3.85,22.27,11.45,35.01,22.81h42.39v63.97h-58.48Z"/>
      <path class="cls-2" d="M1533.44,1005.9h123.02v52.05h-30.28v183.01h30.28v51.86h-123.02v-51.86h29.9v-73.43h-129.45v73.43h30.28v51.86h-122.83v-51.86h29.71v-183.01h-29.71v-52.05h122.83v52.05h-30.28v59.62h129.45v-59.62h-29.9v-52.05Z"/>
      <path class="cls-2" d="M1776.56,1005.9h228.25v97.85h-61.7v-40.69h-73.62v56.59h56.97v54.88h-56.97v66.43h73.62v-50.91h61.7v102.77h-228.25v-51.86h30.09v-177.9h-30.09v-57.16Z"/>
      <path class="cls-2" d="M2296.57,1005.9h109.01v52.05h-23.28v234.87h-62.83l-119.42-185.47v133.62h24.04v51.86h-108.82v-51.86h23.66v-183.01h-23.28v-52.05h86.68l118.66,187.93v-135.89h-24.41v-52.05Z"/>
    </g>
    <g>
      <path class="cls-1" d="M808.54,125.82l1.94,1.08,.76,1.63-.08,2.92,.03,1.61-.13,2.04-.22,2.62-.06,2.19-.34,1.6-.26,1.38-.12,1.68-.7,3.92-.62,3.71-.5,2.03-.41,1.45-.62,1.37-.55,1.52-.93,1.87-2.31,4.32-.92,1.51-1.15,1.79-1.59,2-1.43,1.57-1.27,1.13-1.05,.85-1.41,.84-1.57,1.27-1.86,1.04-1.26,.77-2.66,1.24-1.4,.47-2.81,1.31-1.4,.47-1.69,.24-1.54,.18-1.17,.19-1.61,.03-1.46-.04-1.68-.12-1.09-.03-1.75-.27-1.45-.41-1.59-.7-1.08-.4-1.44-.77-1.37-.62-1.21-1.06-2.29-1.82-1.06-1.13-.99-.98-2.13-2.25-.92-1.19-1.24-2.66-.77-1.26-.69-1.48-.93-.83-1.6-.34-1.98,.38-1.17,.19-4.2,1.42-5.51,1.3-1.4,.47-.53,.79-.11,1.31,.45,2.13,.51,2.64,.58,2.79,.29,2.56,.3,2.2,.18,1.54,.45,2.13,.36,2.71,.51,2.64,.45,2.13,.41,3.59-.05,1.83-.62,1.37-1.5,1.42-2.23,1.4-2.44,.95-2.5,.44-2.1-.64-1.05-1.49-.32-1.47-.45-2.13-.38-1.98-.35-3.08,.04-1.46-.32-1.47-.25-1.32-.65-2.94-.35-3.08-.38-1.98-.23-2.05-.39-1.62-.18-1.54-.25-1.32-.17-1.54-.4-1.25-.79-.53-1.39,.11-3.97,.76-1.69,.25-3.9,.91-5.88,1.29-1.03,.12-1.98,.38-1.1,.33-1.85,.68-1.13,1.06-.11,1.31,.18,1.54,.32,1.47,.38,1.98,.3,2.2,.17,1.54,.11,1.39,.18,1.54,.11,1.39,.18,1.54,.11,1.39-.08,2.92,.03,1.61-.03,1.09,.03,1.61-.04,1.46,.03,1.61-.28,2.11-.5,2.03-.81,2.9-.26,1.38-.41,1.45-.62,1.37-.69,1.22-.84,1.29-2.73,3.43-1.13,1.06-1.05,.85-1.34,.98-1.64,1.12-1.79,1.19-4.14,1.93-3.54,1.29-1.47,.32-1.77,.46-1.54,.18-1.97,.02-2.48-.29-1.52-.55-1.59-.7-1.8-.78-2.58-1.68-1.06-1.12-1.27-1.57-1.12-1.64-.47-1.4-1.24-2.66-.32-1.47-.18-1.54-.11-1.39-.32-1.47,.04-1.46-.11-1.39,.04-1.46,.12-1.68,.35-1.96,.5-2.03,.34-1.6,.41-1.45,.48-1.3,.41-1.45,.62-1.37,.48-1.3,.77-1.44,.76-1.07,.99-1.36,1-1.72,1.22-1.65,1.06-1.21,1.82-2.29,1.13-1.06,1.19-.91,1.05-.85,1.27-1.13,1.5-1.42,1.64-1.12,1.34-.98,5.05-3.07,1.64-1.12,.99-1.36,.26-1.38-.23-2.05-.6-2.06-.17-1.54-.11-1.39-.18-1.54-.3-2.2-.53-1.91-.17-1.54-.32-1.47-.17-1.54-.45-2.13-.38-1.98-.18-1.54-.32-1.47-.64-5.64-.97-4.41-.25-1.32-.18-1.54-.25-1.32-.24-1.69-.64-5.64-.32-1.47-.12-1.03h-.37s-.46,.93-.46,.93l-1.68,2.58-1.36,1.71-2.63,2.48-1.49,1.05-1.41,.84-5.18,2.41-4.05,1.35-.96,.26-2.95,1.01-1.33,.62-1.55,.54-1.63,.76-1.99,.75-3.11,1.45-1.41,.84-1.34,.98-2.63,2.48-1.06,1.21-.76,1.07-.84,1.29-.62,1.37-1.03,2.82-.26,1.38-.04,1.46,.17,1.54,.4,1.25,.69,1.48,.92,1.19,1.14,.91,1.29,.84,1.3,.47,1.45,.41,3.08-.35,1.47-.32,2.66-1.24,1.26-.77,1.27-1.13,.91-1.14,.76-1.07,.84-1.29,1.06-1.21,1.33-.62,1.68,.12,1.44,.77,1.21,1.06,.69,1.48-.35,1.96-.56,1.88-.92,1.51-1.22,1.64-1.43,1.57-1.27,1.13-1.57,1.27-1.79,1.19-1.56,.9-.89,.41-1.56,.91-1.85,.68-1.77,.46-1.47,.32-1.83,.31-1.47,.32-1.68-.12-2.26-.21-1.96-.35-1.3-.47-1.37-.62-1.14-.91-1.22-.69-.99-.98-2.13-2.25-.85-1.05-1.53-2.53-.54-1.55-.47-1.4-.53-1.91-.23-2.05-.03-1.61,.19-1.53,.26-1.38,1.22-4.35,.62-1.37,.69-1.22,1.68-2.58,.69-1.22,.91-1.14,1.13-1.06,.98-.99,1.2-1.28,.82-.56,1.27-1.13,2.39-1.83,3.79-2.3,2.66-1.24,1.4-.47,1.55-.54,.96-.27,1.7-.61,4.2-1.41,1.47-.32,1.33-.62,7-2.36,1.33-.62,2.53-1.54,1.2-.92,.98-.99,1.13-1.06,.98-.99,.84-1.29,.91-1.14,.62-1.37,1.1-2.67,1.25-2.74,.84-1.29,1.06-1.21,1.19-.92,1.48-.69,1.55-.54,1.47-.32,1.61-.03,1.45,.41,1.06,1.13,.6,2.06,.38,1.98,.1,1.76,.38,1.98,.41,3.59,.38,1.98,.23,2.05,.24,1.69,.25,1.32,.18,1.54,.38,1.98,.45,2.13,.32,1.47,.11,1.39,.24,1.69,.38,1.98,.66,2.57,.3,2.2,.41,3.59,.45,2.13,.18,1.54,.45,2.13,.53,1.91,.24,1.69,.3,2.2,.44,2.5,.3,2.2,.18,1.54,.45,2.13,.88,2.29,1.58,1.07,2.42-.22,2.57-.66,2.13-.45,1.98-.38,4.7-.74,4.41-.97,1.69-.24,1.7-.61,.92-1.51-.02-1.97-.17-1.54-.32-1.47-.11-1.39-.65-2.94-.25-1.32-.18-1.54-.32-1.47-.39-1.62-.27-.96-.39-1.62-.65-2.94-.11-1.39-.32-1.47-.18-1.54-.32-1.47-.6-2.06-.38-1.98-.32-1.47-.18-1.54-.32-1.47-.18-1.54-.32-1.47-.64-5.64-.32-1.47-.25-1.32-.35-3.08-.25-1.32-.18-1.54-.11-1.39,.08-2.92-.18-1.54-.28-2.93,.04-1.46,.19-1.53,.85-1.66,1.28-1.5,1.48-.69,1.4-.47,3.08-.35,1.46,.04,1.45,.41,.93,.83,.47,1.4,.03,1.61,.02,1.97,.23,2.05,.03,1.61,.23,2.05,.09,2.12,.18,1.54,.11,1.39,.18,1.54,.24,1.69,.11,1.39,.19,1.17,.18,1.54,.11,1.39,.18,1.54,.53,1.91,.38,1.98,.24,1.69,.11,1.39,.97,4.41,.38,1.98,.6,2.06,.24,1.69,.38,1.98,.53,1.91,.18,1.54,.32,1.47,.18,1.54,.25,1.32,.32,1.47,.45,2.13,.38,1.98,.32,1.47,.18,1.54,.4,1.25,.32,1.47,.55,1.18,1.52,.55,2.2-.3,2.35-.37,.96-.27,1.84-.31,1.4-.47,1.98-.38,1.91-.53,1.33-.62,.46-.94-.04-1.24-.18-1.54,.03-3.8,.07-2.55-.09-2.12,.19-1.53,.23-2.99,.11-1.31,.41-1.45,.19-1.53,.26-1.38,1.19-3.25,.7-1.59,.78-1.8,.62-1.37,.92-1.51,1.29-1.86,.68-.86,1.21-1.65,.84-1.29,.98-.99,1.27-1.13,1.57-1.27,1.94-1.62,1.79-1.19,1.49-1.05,4.13-1.56,2.21-.67,1.91-.53,1.47-.32,1.54-.17,1.39-.11,1.53,.19,1.45,.41,1.3,.47,2.74,1.25,1.29,.84,1.07,.76,1.06,1.13,1,.98,.77,1.26,.91,1.19,1.31,2.81,.65,2.94,.45,2.13,.38,1.98,.03,1.61-.28,2.11-.5,2.03-1.03,2.82-.41,1.45-.71,1.95-1,1.72-.92,1.51-1.43,1.57-2.48,2.41-1.58,1.63-1.8,1.56-1.27,1.13-1.41,.84-1.79,1.19-3.64,2.23-2,1.11-3.26,1.51-2.6,1.39-1.4,.47-1.11,.7-.32,.87,.4,1.25,.77,1.26,.69,1.48,.77,1.26,1.06,1.13,1,.98,1.36,.99,1.14,.91,1.37,.62,1.44,.77,1.3,.48,1.53,.19,3.21-.05,2.94-.65,2.8-.94,1.33-.62,1.05-.85,1.26-.77,1.19-.92,1.26-.77,1.05-.85,1.13-1.06,.91-1.14,1.06-1.21,1.22-1.64,1.07-1.58,.77-1.44,.84-1.29,.62-1.37,1.42-3.9,.41-1.45,.49-1.67,.26-1.38,.11-1.31,.77-4.14,.19-1.53,.27-1.75,.28-2.11,.14-2.41,.1-3.65,.26-1.38,1.05-.85,1.82,.05Zm-126.26,89.67l.84-1.29,.69-1.22,.62-1.37,.69-1.22,.41-1.45,.19-1.53,.45-2.91,.26-1.38,.03-3.8-.02-1.97-.35-3.08-.11-1.39-.18-1.54-.24-1.69-.12-1.03-.1-1.76-.45-2.13-.38-1.98-.4-1.25-.94-.47-1.1,.33-2.53,1.54-2.39,1.83-1.13,1.06-1.19,.92-1.13,1.06-.91,1.14-.84,1.29-.91,1.14-.69,1.22-.92,1.51-.46,.94-.92,1.51-1.03,2.82-.34,1.6-.26,1.38-.19,1.53-.26,1.38-.04,1.46,.03,1.61,.18,1.54,.65,2.94,.47,1.4,.69,1.48,.77,1.26,1.21,1.06,1.29,.84,1.52,.55,1.68,.12,1.47-.32,1.4-.47,2.52-1.17,1.49-1.05,.98-.99Zm84.58-92.98l-1.15,1.79-.77,1.44-.93,1.87-.78,1.8-.48,1.67-.64,2.1-.51,2.4-.29,2.48-.1,.95-.05,1.82-.19,1.53-.13,2.04,.16,1.9,.03,1.61,.76,1.63,1.44,.77,2.28-.52,1.79-1.19,3.79-2.3,1.57-1.27,1.8-1.56,.75-.71,1.73-1.7,1.74-2.07,1.45-2.3,.93-1.87,.55-1.52,.5-2.03,.22-2.62,.13-2.04-.24-1.69-.6-2.06-.89-2.29-1.12-1.64-1.36-.99-1.96-.35-1.97,.02-1.62,.39-1.85,1.04-2.16,1.54-1.81,1.92Z"/>
      <path class="cls-1" d="M883.01,112.31l-.06,.88-.27,1.8-.42,1.34-.22,1.44-.17,1.6-.22,1.44-.74,2.99-.42,1.34-.37,1.49-.22,1.44-.37,1.49-.58,1.39-.53,1.55-.58,1.39-1,2.73-.58,1.39-.63,1.24-3.13,5.14-.99,1.18-1.14,1.23-1.45,1.33-1.61,1.38-1.24,.92-1.3,.77-1.55,.51-1.91,.45-2.01,.14h-1.55s-1.34-.43-1.34-.43l-1.39-.58-1.59-1.2-1.64-1.35-.92-1.25-1.07-1.71-.81-1.97-.51-1.55-.5-2.07-.45-1.91-.57-.16-.42,1.34-.74,2.99-.84,2.68-.58,1.39-.42,1.34-.58,1.39-.42,1.34-.78,1.29-.63,1.24-.78,1.28-.83,1.13-.99,1.18-1.35,1.64-1.97,1.85-2.23,1.59-1.87,1.12-2.69,1.22-1.6,.35-1.96,.3-2.02,.14h-1.55s-1.39-.07-1.39-.07l-1.34-.42-2.78-1.15-1.13-.83-1.18-.99-1.49-1.4-1.69-2.02-1.12-1.87-.66-1.5-.97-1.92-.97-2.43-.66-2.02-.35-1.6-.5-2.07-.3-1.96-.04-1.7-.14-2.01-.19-2.17v-1.55s.23-1.44,.23-1.44v-1.55s1.31-8.66,1.31-8.66l.37-1.49,.42-1.34,.37-1.49,.84-2.68,.58-1.39,1.26-2.99,.42-.82,.68-1.59,1.56-2.57,.94-1.85,1.3-1.8,1.62-2.42,.99-1.18,.83-1.13,1.19-1.08,1.61-1.38,1.4-1.49,1.3-1.28,1.66-1.23,1.71-1.07,1.4-.97,3.78-1.58,1.35-.61,1.86-.61,3.15-.86,3.67-.85,3.62-.49,1.5-.15,1.86-.09,7.12,.77,1.39,.58,1.34,.42,1.39,.58,1.29,.78,.87,1.61,.09,2.38-1.1,2.42-1.35,1.64-1.19,.56-1.39-.06-1.55-.53-1.65-.32-1.49-.37-1.24-.11-1.44-.22-1.6-.16-1.34,.09-2.84,.24-1.7,.04-1.65,.2-3.1,1.01-1.04,.51-1.5,.66-1.87,1.12-3.42,2.66-1.3,1.28-1.25,1.44-.83,1.13-.99,1.18-.83,1.13-.78,1.29-.89,1.49-.42,.82-.68,1.59-.58,1.39-.42,1.34-1.15,2.78-.42,1.34-.37,1.49-.65,4.33-.37,1.49-.02,3.1-.17,1.6-.22,1.44,.44,4.49,.04,1.7,.9,4.34,1.42,4.35,.66,1.5,.92,1.25,1.03,1.04,1.18,.99,1.23,.63,1.6,.17,1.96-.3,1.97-.81,1.24-.92,2.08-2.05,1.57-2.57,.63-1.23,.78-1.29,.58-1.39,.42-1.34,.58-1.39,.42-1.34,.95-2.88,.42-1.34,1.11-4.48,.37-2.01,.43-2.37,.32-1.13,.55-4.64,.17-1.6-.04-1.19,.17-1.6,.06-1.39v-1.55s.07-1.91,.07-1.91l-.08-3.41,.06-1.91-.04-1.7,.48-1.7,1.3-1.28,1.3-.77,1.45-.3,1.5-.14,2.89,.43,1.49,.37,.92,.73,.61,1.35-.06,1.39,.15,1.5v1.55s.28,3,.28,3v1.55s.08,1.34,.08,1.34l-.02,3.1,.2,1.65,.15,.98,.14,2.01,.14,1.5,.24,2.84,.14,2.01,.2,1.65,.25,1.81,.29,2.48,.39,2.79,.6,2.38,.81,1.97,1.18,.99,1.8,.27,2.38-.6,1.66-1.23,1.14-1.23,1.67-2.26,.73-1.44,1.21-2.62,1.15-2.78,.84-2.68,.37-1.49,.53-1.55v-1.03s1.27-4.53,1.27-4.53l.22-1.44,.37-1.49,1.08-7.22,1.14-1.23,1.96-.3,1.75,1.15,.66,1.5-.16,1.6-.27,1.81Z"/>
      <path class="cls-1" d="M981.93,83.8l.41,1.75-.3,1.58-.49,1.46-.14,1.54-.33,1.42-.37,1.26-.49,1.46-.33,1.42-.37,1.26-.33,1.42-.82,2.21-.54,1.97-.65,1.5-.99,2.92-.53,1.3-1.38,2.68-.53,1.3-.69,1.34-.89,1.22-2.3,3.73-.89,1.22-1.04,1.25-1.64,1.56-1.56,1.21-1.12,.94-1.35,.66-1.16,.78-1.67,.73-.92,.38-1.55,.54-1.39,.5-1.47,.18-1.78,.26-2.06-.18-2.02-.02-2.84-.67-1.46-.49-1.22-.89-1.06-.92-1.1-1.08-.94-1.12-.78-1.16-.94-1.12-.82-1.32-.66-1.35-.46-1.23-1-2.78-.34-1.43-.54-1.55-.5-1.39-.87-.13-.73,1.18-1.55,3.39-.89,1.89-1.45,2.36-.81,1.53-.85,1.38-.45,.95-1.01,1.41-.73,1.18-1.77,2.43-1.29,1.65-1.33,1.49-1.36,1.33-.72,.51-2.52,2.11-1.48,.85-.88,.54-1.48,.85-3.9,1.93-.91,.38-1.51,.69-1.39,.5-1.47,.18-1.82,.1-1.98,.13-1.86-.06-1.74-.26-2.01-.7-2.28-1.14-1.77-1.09-1.25-1.04-.94-1.12-.97-1.28-.85-1.48-1.09-1.76-.73-1.67-.66-1.35-.68-2.86-.5-1.39-.94-3.97-.54-1.55-.18-1.47-.34-1.43-.13-1.98-.33-2.1-.07-3.84-.28-2.62-.17-2.14-.18-1.47-.1-1.82-.03-.83-.1-1.82,.02-1.35-.02-1.5,.14-1.54,.02-2.02,.12-3.72,.18-1.38-.02-1.5,.02-1.35,.14-1.54,.02-1.35,.14-1.54,.02-1.35,.5-5.66-.02-1.5,.14-1.54,.8-3.71,.39-2.61,.5-2.13,.22-1.9,.34-2.09,.46-2.29,.34-2.09,.46-1.62,.98-2.92,.7-2.01,.94-2.4,1.35-3.51,.49-1.46,1.06-2.6,.69-1.34,1.77-2.43,1.48-1.53,1.64-1.56,1.28-.97,1-.74,1.16-.78,1.51-.69,2.7-.64,1.5-.02,1.35,.02,1.54,.14,1.42,.33,1.3,.53,1.22,.89,1.18,.73,1.09,1.08,1.87,2.24,.97,1.28,.93,1.79,.77,1.83,.5,1.39,.22,1.63,.36,2.93,.34,1.43,.18,1.47,.02,1.5-.64,7.2-.3,1.58-.38,1.94-.34,2.09-.3,1.58-.33,1.42-.49,1.46-.54,1.97-.73,1.85-.65,1.5-1.06,2.6-.69,1.34-.77,1.69-.73,1.85-.93,1.73-1.38,2.68-1.42,2.52-.69,1.34-.89,1.22-1.65,2.24-1.77,2.43-.73,1.18-.77,1.02-.92,1.06-1.01,1.41-1.08,1.1-1.85,2.11-2.16,2.19-1.12,.94-.92,1.06-.45,1.62-.1,1.7,.1,1.82,.13,1.98,.18,1.47,.02,1.5,.22,1.63,1.02,4.29,.5,1.39,.34,1.43,.54,1.55,.5,1.39,.62,1.2,1.63,2.63,2.19,2.16,1.18,.73,1.34,.69,1.54,.14,1.38,.17,3.02-.72,1.32-.82,1.35-.66,1.12-.94,1.44-1.01,.68-.67,1.24-1.13,1.12-.94,2.16-2.19,.92-1.06,1.05-1.25,2.66-3.65,2.54-4.13,.45-.94,.85-1.38,.69-1.34,.65-1.5,1.02-2.76,.69-1.34,.61-1.66,.25-1.07,1.3-2.99,.37-1.26,.3-1.58-.02-1.5,.17-1.38,.14-1.54-.06-4.51,.02-2.02v-2.18s-.03-1.5-.03-1.5l.06-1.86,.09-1.03,.11-2.38-.25-2.46-1.45-1.17-2.25-.31-2.61-.39-1.57-.97-.66-1.35-.34-1.43-.02-1.5,.97-1.57,2.19-1.36,4.92-1.17,1.32-.82,.53-1.3,.14-1.54-.02-1.5,.14-1.54,.18-1.38,.28-3.08,.1-1.7,.29-.91,.1-1.7,.3-1.58,.14-1.54,.17-1.38-.02-1.51,.28-3.08,.47-2.96,.14-1.54,.33-1.42,.14-1.54,.33-1.42,.14-1.54,.3-1.58,.18-1.38,.49-1.46,.96-.9,1.35-.66,1.43-.34,1.63-.22,1.47-.18,1.38,.18,1.58,.3,1.45,1.17,.69,2.19,.17,2.14-.3,1.58-.18,2.06-.34,2.09-.32,3.6-.34,2.09-.64,7.2-.18,1.38-.1,1.7-.09,1.03-.1,1.7-.18,2.06-.3,2.25-.09,1.03,.13,1.98,1.1,1.08,1.66-.06,1.63-.22,2.03-.65,7.9-2.04,1.94-.29,1.3,.53,.66,1.35,.46,1.23,.18,1.47-.3,1.58-.97,1.57-1.52,1.37-1.48,.85-1.55,.54-1.39,.5-1.55,.54-1.43,.34-1.78,.26-1.11,.26-1.94,.29-1.11,.26-1.78,.26-1.2,.62-.85,1.38-.42,1.78-.14,1.54v2.18s.14,2.65,.14,2.65v2.85s-.03,2.69-.03,2.69l-.15,2.89-.06,5.38,.17,2.14-.14,1.54,.54,4.4-.14,1.54,.13,1.98,1.51,6.35,.5,1.39,.54,1.55,.77,1.83,1.09,1.76,1.09,1.08,1.22,.89,1.3,.53,1.58,.3,1.47-.18,1.43-.34,1.39-.5,1.16-.78,1.28-.97,1.32-.82,1.12-.94,1.08-1.1,.92-1.06,.89-1.22,.69-1.34,.85-1.38,1.38-2.68,1.06-2.6,.65-1.5,.53-1.3,.99-2.92,.37-1.26,.49-1.46,.3-1.58,.61-1.66,.29-.91,.54-1.97,.49-1.46,.21-1.23,.49-1.46,1.24-1.13,2.14-.17,1.65,1.29Zm-89.74-20.49v2.18s-.12,1.54-.12,1.54l-.26,1.74-.17,1.38-.05,1.19-.3,1.58-.17,1.38-.14,1.54-.02,1.35-.31,2.93-.14,1.54-.17,1.38,.02,1.51-.14,1.54v2.85s.11,1.15,.11,1.15l.6-.31,.92-1.06,1.01-1.41,1.13-1.61,.89-1.22,.73-1.18,.89-1.22,.53-1.3,2.07-4.01,1.06-2.6,.69-1.34,.53-1.3,.65-1.5,.53-1.3,.33-1.42,.46-1.62,1.08-3.95,.46-1.62,.67-2.84,.3-1.58,.18-1.38,.3-1.58,.41-4.63-.06-4.51-.06-1.66-.18-1.47-.02-1.5-.38-1.59-.66-1.35-.94-1.12-1.46-.49-1.47,.18-1.35,.66-1.08,1.1-.97,1.57-.45,.94-.81,1.53-.49,1.46-.3,1.58-.49,1.46-.67,2.84-.3,1.58-.34,1.42-.3,1.58-.33,1.42-.3,1.58-.18,1.38-.3,1.58-.33,1.42-.32,3.6Z"/>
      <path class="cls-1" d="M1017.31,64.87l-.22-1.45-.41-1.59-.54-1.4-.7-1.38-.98-1.01-1.28-.8-1.5-.1-1.43,.38-1.4,.54-1.38,.7-1.33,1.03-.9,.63-2.61,2.38-.98,1.14-.85,.95-1.12,1.33-.69,.93-1.26,1.51-.52,.9-1.12,1.32-.91,1.62-.52,.9-.91,1.62-.64,1.25-.75,1.6-.34,1.04-.75,1.6-.64,1.25-.43,1.55-.29,1.36-.22,1.85-.2,.86-.48,3.37-.19,2.01-.17,2.17-.1,1.5-.06,1.82v.99s-.21,2.01-.21,2.01l-.2,.85-.24,1.69-.1,1.5-.06,1.82-.18,1.02v4.29s-.07,1.82-.07,1.82l-.21,3-.47,1.23-1.01,.98-2,.96-2.35,.85-2.05,.64-1.66-.08-2.06-.51-1.67-1.23-.5-2.24,.16-5.47-.08-1.64,.24-1.69,.2-.86,.05-2.98,.19-2.01,.18-1.02,.19-2.01,.02-.99,.48-3.37,.18-1.02,.24-1.69,.1-1.5-.06-1.48,.24-1.69,.18-1.02,.19-2.01,.02-.99,.24-1.69,.31-4.5,.19-2.01,.17-2.17,.24-1.69,.6-2.57,.22-1.85,.1-1.5,.29-1.37,.62-3.56,.17-2.17,.16-3.33,.2-.86,.22-1.85,.27-1.53,.24-1.69,.04-.83,.4-1.71,.26-1.53,.24-1.69,.18-1.02,.24-1.69,.26-1.53,.6-2.57,.35-2.03,.04-.83,.35-2.03,.36-.88,.35-2.04,.04-.83,.35-2.04v-.99s.37-2.03,.37-2.03l.36-.88,.4-1.71,.26-1.53,.29-1.36,.45-1.39,.53-3.05,.29-1.36,.43-1.55,.51-2.06,.89-1.78,1.17-1,1.43-.38,1.64-.08,2.95-.11,1.66,.08,1.36,.29,1.28,.8,.68,1.22-.1,1.5-.29,1.36-.45,1.39-.26,1.53-.4,1.71-.04,.83-.49,2.22-.8,3.42-.38,1.87-.24,1.69-.19,2.01-.62,3.56-.38,1.87-.2,.85-.35,2.03-.04,.83-.35,2.03-.36,.88-.24,1.69-.26,1.53-.24,1.69v.99s-.26,1.69-.26,1.69l-.26,1.53-.38,1.87-.48,3.37-.22,1.85-.24,1.69-.19,2.01-.35,2.03-.4,1.71-.29,1.37-.26,1.53,.06,1.48,.37,.27,.8-1.28,.93-1.46,1.05-1.81,1.21-1.83,.71-.77,.93-1.46,.77-1.44,1.23-1.67,1.85-1.93,1.42-1.54,2.34-2,1.01-.98,1.63-1.24,1.81-1.1,1.54-.73,1.91-.45,3.71-.56,1.48-.06,1.69,.24,3.82,1.24,1.25,.64,1.28,.8,.98,1.01,.87,1.36,.68,1.22,.7,1.38,.54,1.4,.2,1.29,.06,1.48,.44,2.9v2.15s-.04,1.99-.04,1.99l-.08,1.66-.13,1.34,.06,1.48-.21,3-.88,5.09-.17,2.17-.26,1.53-.21,3-.24,1.69-.02,.99-.14,2.33-.28,2.52-.18,1.02-.19,2.01-.33,2.2-.22,1.85,.03,1.32,.11,1.8-.02,.99,.41,1.59,.84,1.19,1.36,.29,1.48-.06,1.24-.52,1.35-.87,1.14-1.16,1.28-1.35,1.37-1.86,1.26-1.51,1.6-2.55,.77-1.44,1.25-2.66,.8-1.28,.59-1.57,.5-1.07,.7-1.92,1.9-4.91,.72-1.76,.56-1.74,.18-1.02,.56-1.74,.61-1.41,1.17-1,1.99,.03,1.7,1.39,.43,1.75-.45,1.39-.43,1.55-.72,1.76-4.02,10.51-1.01,3.12-.75,1.6-.52,.9-1.39,2.85-.8,1.28-1.73,2.74-.52,.9-.93,1.46-1.97,2.28-.8,1.28-1.14,1.16-1.01,.98-2.39,1.68-2.76,1.41-1.4,.54-1.59,.41-2.07,.48-2.63,.07h-2.15s-1.55-.43-1.55-.43l-1.83-1.21-1.75-1.72-1.1-1.82-.86-1.35-.45-1.91-.46-3.07-.04-2.47v-2.15s.08-1.66,.08-1.66l.13-1.34,.26-1.53,.19-2.01,.17-2.17,.26-1.53,.21-3,.17-2.17,.03-1.99,.24-1.69,.38-4.02,.1-1.5,.24-1.69,.18-1.02,.24-1.69,.39-2.87,.21-3Z"/>
      <path class="cls-1" d="M1130.56,67.71l.31,1.78-.54,1.35-.52,1.68-1.23,3.05-.83,1.87-.86,1.54-.83,1.87-.67,1.86-.53,1.52-1.42,2.74-.58,.87-.69,1.53-.71,1.37-.87,1.38-1.02,1.56-1.17,1.73-.87,1.38-1.06,1.07-1.94,2.29-.73,1.04-1.04,1.23-1.97,1.96-1.06,1.07-1.21,1.25-2.62,2.02-.92,.73-3.39,2.57-2.81,1.7-1.72,.96-1.06,1.07-.9,1.06-.74,3.01-.21,1.49-1.11,4.51-.35,1.67-.37,1.5-.19,1.65-.49,2.01-.65,2.02-.53,1.52-.38,1.34-.69,1.53-.25,1-.69,1.53-1.09,2.71-.72,1.2-1.77,2.44-.9,1.06-1.06,1.07-1.22,1.08-1.53,1.27-1.71,1.12-1.4,.93-1.9,.81-2.24,.67-1.93,.49-4.39,.36-2.64-.28-2.01-.49-1.68-.52-1.73-1.17-1.94-1.64-1.43-1.52-.95-1.56-.65-1.91-.48-1.93-.12-1.46,.04-1.48,.21-1.49,.22-1.33,.21-1.49,.38-1.34,.53-1.52,.83-1.87,.99-1.88,1.03-1.4,2.69-3.17,1.23-.92,1.38-1.1,4.14-3.45,1.24-.92,1.56-.95,.77-.55,4.07-2.3,.95-.4,2.04-1.15,1.89-.97,1.4-.93,1.72-.96,1.36-1.42,.71-1.37,.37-1.5,.22-1.33,.2-1.49,.37-1.5,.38-1.34,.37-1.5,.59-2.83,.37-1.5,.21-1.49,.98-4.01,.19-1.65,.21-1.49h-.16s-.72,1.22-.72,1.22l-.88,1.22-.72,1.21-.88,1.22-1.44,2.41-.88,1.22-1.03,1.39-1.79,2.11-1.52,1.44-1.34,1.58-1.22,1.08-1.07,.91-1.41,.77-1.55,1.11-1.87,1.14-1.42,.61-2.88,.89-1.94,.32-2.09,.5-1.48-.04-1.82-.18-1.49-.21-1.68-.52-1.86-.67-1.38-.87-1.22-.88-.92-1.24-.96-1.72-.81-1.9-.3-1.61-.16-1.95-.34-2.1-.13-1.63v-1.97s.15-2.14,.15-2.14l.03-1.64,.19-1.65,.23-1.17,.19-1.65,.04-1.48,.37-1.5,.21-1.49,.37-1.5,.82-5.96,.38-1.34,.74-3.01,.52-1.68,.37-1.5,.23-1.17,.74-3.01,.38-1.34,.35-1.67,.04-1.48,.38-1.34,.74-3.01,.21-1.49,.37-1.5,.62-4.47,.38-1.34,.73-1.04,1.41-.77,1.45-.28,1.61-.3,1.46-.12,1.64,.03,1.33,.22,1.37,.71,.74,1.09,.11,1.3-.04,1.48-.21,1.49-.37,1.5-.62,4.47-.22,1.33-.21,1.49-.37,1.5-.62,4.47-.22,1.33-.21,1.49-.53,1.52-.31,2.15-.33,1.99-.41,2.98-.74,3.01-.04,1.48-.21,1.49-.22,1.33-.37,1.5-.21,1.49-.19,1.65-.08,.99-.34,1.83-.21,1.49-.19,1.65-.04,1.48,.25,3.09,.28,1.45,.77,1.41,1.06,.9,1.5,.37,1.49,.21,1.48,.04,1.44-.45,1.42-.61,1.24-.92,1.06-1.07,1.22-1.08,1.21-1.24,.6-.7,1.52-1.44,1.79-2.11,.88-1.22,.72-1.21,1.02-1.56,.42-.85,.86-1.54,.87-1.38,.72-1.21,.69-1.53,.54-1.35,.37-1.5,.69-1.53,.58-.87,1.06-3.03,.38-1.34,.37-1.5,.8-2.19,.79-2.36,.48-2.17,.21-1.49,.37-1.5,.21-1.49,.38-1.34,.53-1.52,.5-1.84,.33-1.99,.36-1.67,.41-2.98,.34-1.83,.33-1.99,.35-1.67,.54-1.35,.9-1.06,1.42-.61,1.45-.28,3.09-.25,1.65,.19,1.5,.37,1.37,.71,.58,1.1,.12,1.47-.04,1.48-.37,1.5-.76,2.68-.37,1.5-.15,2.14-.33,1.99-.35,1.67-.33,1.99-.5,1.84-.35,1.67-.33,1.99-.48,2.17-.41,2.98-.37,1.5-.33,1.99-.49,2.01-.21,1.49-.37,1.5-.2,1.49-.33,1.99-.32,2.15-.37,1.5-.22,1.33-.37,1.5-.33,1.99-.49,2-.19,1.65-.31,2.15-.17,1.98-.41,2.98-.35,1.67-.25,1-.36,1.67,.13,1.63,1.02,.41,2.06-.82,1.71-1.12,1.4-.93,1.07-.91,1.22-1.08,1.05-1.23,.76-.72,1.2-1.41,1.06-1.07,.9-1.06,1.06-1.07,.88-1.22,.72-1.21,1.77-2.44,.9-1.06,.72-1.2,.87-1.38,.71-1.37,1.25-2.72,1.41-2.74,1.5-3.73,.69-1.53,.71-1.37,1.63-4.07,1.38-1.1h1.97s1.43,1.52,1.43,1.52Zm-48.82,57.88l.17-1.98-.85-.42-1.57,.78-1.24,.92-1.22,1.08-1.07,.91-3.26,2.23-1.06,1.07-1.22,1.08-2.39,2.82-1.45,2.25-1.28,2.4-.61,2.51v1.97s.44,1.44,.44,1.44l1.58,1.34,2.19,.8,2.12-.17,1.59-.62,2.47-1.84,1.03-1.39,.71-1.37,.88-1.22,.71-1.37,.68-1.69,.53-1.52,.4-1.18,.36-1.67,.49-2.01,.45-2.49,.44-2.66Z"/>
      <path class="cls-1" d="M1236.96,90.4l1.43,1.51,.94,1.33,2.36,3.17,1.1,1.34,1.26,1.67,1.08,1.99-.55,2.11-2,1.25-2.62,.25-2.6-.56-1.76-1.19-1.27-1.18-3.33-3.52-1.88-2.67-1.11-1.01-.98-.03-1.49,.77-.67,.63-1.5,1.1-1.33,.94-1.33,.78-1,.62-1.49,.77-.99,.46-1.49,.61-1.32,.61-1.48,.45-1.65,.61-1.64,.28-1.81,.44-1.97,.43-1.47,.12-1.64,.12-1.47-.04-1.64,.12-1.14-.03-1.64,.12-1.63-.05-2.93-.41-1.62-.37-1.94-.55-1.94-.71-1.62-.54-1.29-.69-1.28-.85-1.29-.69-1.12-.85-1.11-1.01-1.9-2.01-1.1-1.34-.95-1.17-.78-1.33-1.23-2.65-.89-2.97-.28-1.64-.3-.99-.28-1.64,.12-4.24,.21-1.79,.21-1.46,.37-1.46,.38-1.95,.55-2.11,.53-1.45,.53-1.29,.69-1.29,.85-1.28,.86-1.44,.68-.8,1.02-1.44,1.19-1.6,1.35-1.59,2.02-2.23,1.17-.95,1.34-1.1,.67-.47,2.51-2.05,1.67-1.26,1.66-1.1,1.33-.94,1.17-.78,1.49-.61,1.5-1.1,.86-1.44,.04-1.31-.61-1.49-.89-2.97-.29-1.31-.28-1.48-.28-1.64-.24-2.95,.09-3.1,.62-4.39,.21-1.63,.37-1.46,.36-1.3,1.06-2.91,1.38-2.57,.85-1.28,1.02-1.28,.68-.8,1.02-1.44,2.18-2.06,1.17-.78,1.32-.62,2.66-1.56,1.16-.62,1.49-.61,1.65-.6,1.64-.28,1.81-.44,1.96-.11,1.64-.12,2.94,.08,1.46,.21,1.94,.55,2.1,.88,1.45,.7,1.28,.85,1.12,.85,1.12,1.01,.95,1.01,.78,1.33,.62,1.33,.45,1.48,.45,1.32,.45,1.48,.12,1.47-.21,1.63-.03,.98-.21,1.79-.21,1.46-1.24,3.39-.87,1.93-.7,1.45-1.19,1.76-1.52,1.75-1.35,1.59-1.18,1.27-1.01,1.11-1.17,.95-1.67,1.26-1.84,1.42-.83,.63-1.84,1.42-2.17,1.57-1.83,1.09-1.49,.77-1.83,1.09-1.84,1.58-.71,1.94,.44,1.81,1.37,3.47,.93,1.82,1.22,2.81,.61,1.49,1.09,1.66,1.09,1.83,.77,1.49,2,4.3,1.25,2,.46,.99,.94,1.5,.78,1.17,.78,1.33,.78,1.17,.78,1.33,.79,.84,.98-.14,.84-.79,.85-1.12,1.02-1.28,1.03-1.77,1.03-1.6,.7-1.45,.53-1.29,.7-1.45,.53-1.29,.7-1.45,.71-1.94,.57-2.6,.39-2.11,1.06-2.91,1.01-.95,1.48-.45,1.46,.37,1.11,1.18,.61,1.49-.06,2.12-.22,2.12-.37,1.46-.38,1.95-.55,1.94-.37,1.62-1.76,4.52-.89,2.42-1.04,1.93-.86,1.45-1.03,1.77-1.19,1.6-.86,1.45-.86,1.61-.21,1.63,.62,1.32,1.26,1.67Zm-33.77,4.41l1.48-.28,4.6-1.01,1.48-.28,1.32-.45,1.49-.61,6.64-3.89,.84-.96,.2-1.14-.61-1.49-.46-.83-1.87-2.99-.63-.83-1.09-1.66-.63-.83-.94-1.5-.78-1.17-.78-1.33-.45-1.48-.78-1.33-.61-1.32-.94-1.5-.78-1.33-.46-1.16-.62-1.32-.78-1.33-.61-1.32-.94-1.5-.3-.99-.94-1.5-1.56-2.66-.62-1-.81-.35-1.16,.46-3.99,2.66-1.67,1.26-1.5,.94-1.51,1.26-1.35,1.43-2.37,2.87-1.35,1.43-.86,1.45-.87,1.77-.87,1.93-.37,1.46-.55,2.11-.24,2.61-.08,2.77,.26,2.13,.28,1.64,.6,1.98,1.08,1.99,.94,1.5,1.11,1.17,1.43,1.35,1.28,1.02,1.93,.87,1.78,.7,1.62,.37,2.12,.23,3.92,.11,1.31-.13Zm4.37-72.05l-.38,1.95-.37,1.46-.09,3.1,.12,1.47-.04,1.47,.12,1.47,.12,1.31,.28,1.48,.62,1.16,.81,.19,.99-.46,2.66-1.56,2.33-1.56,1.17-.95,1.17-1.11,1.17-.95,1.17-.78,1.17-.95,1.18-1.11,.85-1.12,.85-1.28,1.02-1.28,.69-1.12,.69-1.29,1.06-2.91,.37-1.46,.21-1.46-.12-1.47-.45-1.48-.61-1.32-.95-1.17-1.29-.69-1.45-.53-1.46-.21-1.47,.12-1.48,.28-1.48,.45-2.66,1.56-1.17,.78-1.18,1.11-1.02,1.28-.69,1.29-.7,1.45-.69,1.29-.53,1.45-.55,2.11Z"/>
      <path class="cls-1" d="M1340.65,1.23l1.64,.09,1.48,.07,3.2,.67,1.13,.18,1.59,.41,1.43,.39,2.99,.96,4.2,1.65,1.24,.52,1.4,.55,1.35,.87,1.38,.71,1.24,.52,2.75,1.42,1.19,.85,1.35,.87,1.19,.85,2.89,1.61,1.19,.85,1.05,.66,1.35,.87,1.21,.68,5.55,2.52,1.54,.74,.92,.47,1.54,.74,1.59,.41,2.05,.65,1.94,.3,1.75,.44,2.95,.13,1.31,.04,1.5-.1,1.53-.26,1.39-.44,1.25-.63,1.42-.6,1.09-.65,1.28-.79,.98-1,.85-1.19,.87-1.35,.81-2.02,1.46-1.92,2.25-.64,2.39,.54,1.76,1.43,.55,1.74,.07,1.66-.25,1.61-.55,1.4-.71,1.38-.57,1.56-.71,1.38-.85,1.19-.66,1.05-1.03,1.33-1.33,1.11-1.14,.98-1.3,.95-1.6,.74-1.93,.69-3.48,1.11-1.55,.42-1.34,.12-1.31-.04-1.5,.1-1.8-.12-1.31-.04-1.91-.46-1.77-.28-1.75-.44-1.88-.62-4.12-1.14-1.4-.55-4.31-2-1.91-.46-1.58,.58-.85,1.19-.74,1.54-.76,1.7-.57,1.56-.81,2.02-.79,1.86-1.26,2.78-.71,1.38-.55,1.4-.52,1.24-.55,1.4-.71,1.38-.69,1.21-.39,1.43-1.1,2.8-.69,1.21-.55,1.4-1.42,2.75-.81,2.02-.62,1.89-.57,1.56-.55,1.4-.52,1.24-2.37,4.59-.97,2-.55,1.4-.71,1.38-2.2,5.6-.73,1.54-.47,.92-.74,1.54-.71,1.38-.85,1.19-.69,1.21-.87,1.35-.69,1.21-2.13,4.13-.85,1.19-.87,1.35-.85,1.19-.98,1-3.02,3.49-.98,1-2.29,1.95-1.28,.79-1.14,.98-1.25,.63-1.44,.77-1.58,.58-1.39,.44-1.21,.31-1.55,.42-1.37,.28-1.5,.1-1.48-.07-1.64-.09-1.48-.07-1.31-.04-1.45-.23-1.59-.41-2.07-.49-2.5-.89-1.54-.74-1.7-.76-1.97-1.13-1.62-1.25-1.16-1.01-1.39-1.7-1.5-2.05-1.04-1.81-.56-1.74-.36-.88-.39-1.71-.28-1.37-.09-1.5,.17-2.12,.14-1.96,.41-1.59,.46-1.91,.65-2.05,2.13-4.13,1.01-1.17,.85-1.19,.98-1,1.01-1.16,1.17-1.14,1.12-.82,1.15-.98,1.25-.63,1.39-.44,1.5-.1,1.26,.36,1.38,.71,1,.98,.79,1.28,.47,1.23-.23,1.45-1.08,1.65-1.64,2.06-1.25,1.62-.9,1.51-.79,1.86-.89,2.5-.43,2.74v2.15s.25,1.53,.25,1.53l.69,1.92,.88,1.79,1.11,1.33,1.46,1.22,2.27,1.35,2.05,.65,1.59,.41,1.45,.23,1.34-.12,1.53-.26,1.42-.6,1.25-.63,2.24-1.63,1.14-.98,1.19-1.3,.87-1.35,2.54-3.57,.87-1.35,.71-1.38,.85-1.19,.71-1.38,.87-1.35,.69-1.21,1.42-2.75,.69-1.21,.76-1.7,.47-.92,.76-1.7,1.1-2.8,.36-1.26,.76-1.7,.47-.92,.84-2.18,.79-1.86,1.42-2.75,.55-1.4,.69-1.21,.71-1.38,.69-1.21,.39-1.43,1.1-2.8,.52-1.24,.71-1.38,.55-1.4,.71-1.38,.79-1.86,.95-1.84,.57-1.56,.39-1.43,.68-1.22,1.26-2.78,.97-2,.79-1.86,1.42-2.75,.55-1.4,.79-1.86,.81-2.02,.74-1.54,.44-1.75-.1-1.5-.84-.96-2.54-1.72-1.19-.85-1.7-.76-3.67-1.89-1.7-.76-1.21-.69-2.8-1.1-1.59-.41-1.43-.39-1.75-.44-4.35-.68-3,.19-5.56,1.77-1.25,.63-1.31,.95-.98,1-1.25,1.62-1.11,1.81-.55,1.4-.25,1.61-.04,1.31,.26,1.53,.47,1.23,.95,1.31,1,.98,1.19,.85,1.38,.71,1.43,.39,1.45,.23,1.48,.07,1.34-.12,1.5-.1,1.53-.26,1.71-.39,.88-.36,1.71-.39,1.56,.57,1.14,1.17,.61,1.42,.23,1.69-.55,1.4-1.49,1.09-1.81,1.04-1.58,.58-2.09,.67-2.41,.61-2.22,.48-1.53,.26h-2.15s-2.28-.2-2.28-.2l-4.03-.63-1.86-.79-1.83-.95-1.35-.87-1.65-1.08-1.6-1.41-1.11-1.33-.54-.75-1.11-1.33-.63-1.25-.44-1.39-.5-2.06-.37-1.88-.07-1.66,.09-1.64,.07-1.48,.23-1.45,.41-1.59,.71-1.38,.52-1.24,.87-1.35,2.02-2.33,.98-1,1.17-1.14,2.29-1.96,1.3-.95,1.26-.63,2.97-1.02,1.39-.44,1.42-.6,4.58-.77,1.5-.1,4.78,.09h.99Z"/>
      <path class="cls-1" d="M1457.77,107.81l-.5,.72-1.15,1.41-1.05,.94-.92,1.13-.96,1.29-.92,1.13-2.16,2.19-1.05,.94-1.08,1.1-.92,1.13-1.08,1.1-1.21,.9-1.24,1.06-1.21,.9-2.25,1.84-1.21,.9-1.17,.74-5.32,2.82-1.45,.51-1.61,.48-1.93,.4-2.09,.37-1.54,.16h-1.5s-1.59-.36-1.59-.36l-1.88-.59-1.8-.91-1.33-.8-.94-1.05-.9-1.21-.76-1.84-.72-2-.16-1.54-.05-2.02,.3-2.11,.36-1.59,.62-2.03,.59-1.88-.41-.43-1.05,.94-2.17,2.19-2.09,1.87-1.21,.9-1.05,.94-1.21,.9-1.05,.94-1.33,.71-1.17,.74-1.33,.7-1.29,.55-1.45,.51-2,.72-2.64,.58-2.73,.22h-2.18s-2.94-.31-2.94-.31l-1.56-.52-1.84-.75-1.8-.91-1.33-.8-1.17-.76-.94-1.05-1.8-2.41-.55-1.29-.51-1.45-.56-1.97-.42-2.6v-2.18s.19-1.63,.19-1.63l.15-2.14,.41-2.58,.46-2.07,.52-1.56,.62-2.03,.75-1.84,.83-1.49,.91-1.8,.94-1.96,.8-1.33,.92-1.13,.8-1.33,5.54-6.79,1.08-1.1,1.05-.94,1.08-1.1,2.09-1.87,1.2-.9,2.61-1.93,.78-.49,1.4-1.02,2.66-1.41,1.76-1.11,2.04-.88,2.62-1.25,1.45-.51,1.29-.55,1.58-.31,2.09-.37,1.97-.56,1.77-.44,2.05-.21,2.02-.05,1.7-.12,4.05,.58,1.47,.16,1.91,.43,3.15,.87,3.59,1.14,3.36,1.42,1.36,.64,1.64,.87,5.73,4.3,.9,1.21,.94,1.05,.9,1.21,.71,1.33-.07,1.82-1.14,2.09-2.18,1.52-2,.72-1.31-.13-1.17-.76-1.06-1.24-1.25-1.12-1.1-1.08-1.01-.73-1.13-.92-1.29-.96-1.2-.6-2.56-1.25-1.49-.84-1.52-.67-3.19-.72-1.15-.09-1.63-.2h-2.18s-4.3,.55-4.3,.55l-1.77,.44-1.81,.6-1.29,.55-1.45,.51-1.29,.55-1.33,.71-1.52,.83-.78,.49-1.4,1.02-1.21,.9-1.05,.93-2.41,1.8-1.05,.94-1.08,1.1-2.77,3.39-1.08,1.1-1.6,2.65-.96,1.29-.92,1.13-1.92,4.08-.83,1.49-1.44,4.19-1,4.46-.2,1.63,.16,1.54,.35,1.42,.51,1.45,.74,1.17,1.29,.96,1.84,.75,2.11,.31,1.54-.16,2.83-.7,2.66-1.41,1.17-.74,1.33-.7,1.21-.9,1.05-.94,1.21-.9,1.05-.94,2.29-2,1.05-.94,3.25-3.29,1.35-1.54,1.58-1.82,.85-.81,2.84-3.71,.96-1.29,.57-1.04,.96-1.29,.76-1.17,.8-1.33,1.03-1.61,1.67-2.97,1.03-1.61,.84-1.48,1.28-1.22,1.77-.44h1.51s1.4,.48,1.4,.48l1.36,.64,2.26,1.85,1.09,1.08,.42,1.1-.16,1.47-.76,1.17-.64,1.36-.8,1.33-1.28,2.72-.8,1.33-.6,1.2-1.6,2.65-.67,1.52-.38,.92-.91,1.8-.64,1.36-1.25,2.56-.91,1.8-.68,1.52-.71,1.68-1.01,2.28-1.08,2.6-.7,2.35-.3,2.11,.51,1.45,1.41,1.15,2.35,.7,2.05-.21,1.61-.47,2.59-1.09,1.36-.86,2.38-1.64,2.41-1.8,2.09-1.87,1.08-1.1,1.24-1.06,.53-.88,3.41-3.25,.92-1.13,1.08-1.1,4.61-5.66,1.61-.47,1.84,.75,.92,1.88-.2,1.63-.96,1.29-1.15,1.41Z"/>
      <path class="cls-1" d="M1528.73,128.88l-1.04,1.22-1,1.07-1.15,1.02-1,1.07-1.2,1.18-1.15,1.02-1.11,.86-5.05,3.27-1.42,.77-1.38,.61-1.33,.46-1.53,.57-1.33,.46-1.59,.21-1.44,.26-1.55,.05h-1.19s-1.5-.12-1.5-.12l-1.97-.24-1.61-.31-1.14-.17-1.57-.46-1.36-.57-1.25-.37-1.08,.19-1.06,.71-1.11,.86-1.42,.77-1.78,.84-1.94,.79-1.69,.52-2,.43-1.84,.48-1.59,.21-2.17-.13-2.64-.27-2.71-.63-2.08-.45-1.57-.46-1.52-.62-1.27-.89-.96-.79-1.22-1.04-1.18-1.2-1.84-2.42-.82-1.26-.77-1.42-1.23-4.45-.05-1.55,.31-4.5,.31-1.61,.84-2.82,.78-1.47,1.45-1.44,2.34-1.01,2.53,.07,1.83,.71,.66,1.22-.21,1.3-.42,1.41-.57,1.36-.26,1.46-.21,3,.26,1.44,.41,1.48,.46,1.33,.61,1.37,.87,1.11,1.07,1,1.11,.84,1.32,.73,1.57,.46,1.3,.21,1.55-.05,1.28-.3,1.53-.57,1.37-.61,1.25-1.33,.46-1.56-.46-1.33-.57-1.53-.26-1.44,.31-1.61,.58-1.36,1.2-1.18,1.22-.66,2.81-.87,.86-.6,.32-1.1,.1-1.5-.05-1.55-.1-1.39-.05-1.55,.06-1.34-.05-1.55-.1-1.39-.05-1.55-.1-1.39-.26-1.44-.1-1.39-.05-1.55-.1-1.39-.05-1.55-.1-1.39-.05-1.55-.1-1.39v-1.7s-.07-2.06-.07-2.06l.09-2.02-.05-1.55,.1-1.5,.21-1.3,.26-1.45-.04-1.03-1.03,.04-2.84,1.54-1.26,.82-2.21,1.73-1.15,1.02-1.11,.86-2.65,2.62-1.45,1.44-1.04,1.22-1.11,.86-1,1.07-.95,.91-1,1.07-1.54,1.76-1.45,1.44-1.04,1.22-2.15,2.09-1,1.07-1.04,1.22-1.45,1.44-1.67,1.04-1.5-.1-1.33-1.25-.41-1.49,.57-1.36,.73-1.32,1.99-2.13,1.2-1.18,.75-.8,1.2-1.18,1.04-1.22,.84-1.11,2.99-3.2,1.15-1.02,1.04-1.22,1.45-1.44,1.6-1.4,1.2-1.18,1.15-1.02,1-1.07,1.2-1.18,.86-.6,1.2-1.18,1.11-.86,5.05-3.27,2.48-1.48,1.26-.82,1.42-.77,1.37-.61,2.97-.82,1.59-.21h1.7s1.5,.1,1.5,.1l1.3,.21,1.36,.57,1.32,.73,1.02,1.15,.61,1.37,.1,1.39-.42,1.41-.73,1.32-1,1.07-1.15,1.02-.68,1.16-.57,1.36-.24,1.97-.09,2.02-.15,1.66,.18,2.27,.04,2.74,.2,2.78,.42,4.89,.21,1.59,.07,2.06,.43,2,.21,1.59,.1,1.39,.05,1.55,.3,4.17,.05,1.55-.29,2.13-.43,2.6-.29,2.13-.31,1.61-1.16,3.91-.21,1.3,.24,.92,1.16,.68,1.41,.42,2.91,.52,3.1-.1,1.39-.1,2.97-.82,1.38-.62,2.79-1.39,2.64-1.43,1.11-.86,4.62-4.08,1-1.07,1.04-1.22,.84-1.11,1.15-1.02,1.69-.52,1.74,1.03,.95,1.98-.46,1.57-.89,1.27-1,1.07Z"/>
      <path class="cls-1" d="M1574.6,141.41l-.61,1.69-1.16,1.32-3.06,2.72-1.11,1.16-1.06,1.01-2.42,1.91-1,.86-1.21,.95-2.06,1.86-1,.85-1.42,1.05-2.62,1.49-1.21,.95-1.15,.8-1.31,.74-3.97,1.87-2.76,.92-2.81,1.07-1.56,.48-2.02,.31-2.12,.11-1.6,.12-1.55-.04-1.34-.13-1.44-.34-4.3-1.54-1.33-.65-1.27-.8-1.62-1.27-1.42-1.38-.95-1.21-1.49-2.61-.38-1.35-.33-1.51-.35-2.9-.02-1.4,.04-1.55,.19-1.49,.13-1.34,.5-1.38,.34-1.44,.5-1.38,.4-1.59,.5-1.38,1.95-3.98,.5-1.38,3.25-6.64,.8-1.27,.65-1.33,1.61-2.54,1.18-1.83,1.12-1.68,.8-1.27,.96-1.22,.8-1.27,.96-1.22,.8-1.27,.97-1.73,1.33-1.78,1.92-2.43,.44-1.23-.19-.93-.96-.69-1.17-.59-1.43-.86-1.32-1.17-.58-1.77,.19-1.49,.4-1.59,.75-1.12,1-.86,1.35-.38,2.05,.56,2.25,.98,2.3,.83,1.7,.09,1-.86,.86-1.43,.75-1.12,.96-1.22,1.06-1.01,1.11-1.16,.9-1.06,1.91-2.44,1.61-2.55,.96-1.22,1.05-1.01,1.91-2.44,.9-1.06,1.11-1.16,.96-1.22,.9-1.06,.96-1.22,1.05-1.01,1.11-1.16,.75-1.12,.96-1.22,1.11-1.16,1.15-.8,1.5-.33,1.49,.19,1.48,.71,1.73,.97,1.83,1.18,1.11,1.26,.84,1.52-.15,1.86-.8,1.27-1.49,1.72-1.69,1.82-1.48,1.72-1.01,1.37-.64,.81-1.01,1.37-3.51,4.46-.9,1.07-.96,1.22-1.33,1.78-1.75,1.97-2.23,2.84-.8,1.27-1.05,1.01-.9,1.06-.38,1.08,.65,1.1,1.58,.91,1.54,.55,2.67,.78,2.21,.62,4.76,1.71,1.94,.87,.75,1.31-.3,1.8-.72,2-.96,1.22-1.15,.8-1.35,.38-1.55-.04-1.49-.19-1.59-.4-4.21-1.33-1.69-.61-1.33-.65-5.69-2.04-1.14,.28-.9,1.06-1.28,1.62-1.5,2.24-1.55,2.39-1.65,2.18-1.55,2.39-1.5,2.24-1.23,1.98-.48,.87-1.23,1.99-1.07,1.52-1.01,1.37-1.61,2.55-.82,1.79-1.02,1.89-1.3,2.66-1.54,4.3-.41,2.11-.35,1.95-.04,1.55,.12,1.6,.38,1.35,1.3,1.68,1.82,1.69,1.58,.91,1.54,.55,1.8,.3,4.35-.52,5.62-2.14,1.46-.69,1.1-.65,2.25-1.45,2.88-1.74,1.15-.8,1.05-1.01,1.21-.95,1.36-.9,1.15-.8,1.21-.95,1.06-1.01,.96-1.22,1.32-1.26,1.21-.95,1.47-1.21,2.29-.57,1.89,1.02,.68,1.98Z"/>
      <path class="cls-1" d="M1644.62,171.15l-.56,1.72-1.11,.94-1.24,1.25-2.5,2.12-1.61,1.27-1.48,.97-1.61,1.27-1.46,1.33-1.18,1.09-2.53,1.76-.92,.49-1.33,1.03-1.26,.88-1.41,.82-1.63,.9-1.84,.99-1.41,.82-1.44,.45-2.78,1.12-1.14,.58-1.5,.6-2.66,.82-1.43,.45-1.65,.54-3.26,.56-1.16,.21-4.2,.69-3.28,.2-1.97,.05-1.43,.45-1.29,.52-2.06,2.32-.88,1.22-3.08,3.48-1.09,1.31-1.03,1.16-.94,1.37-1.37,1.54-1.52,1.48-1.18,1.09-.96,1.01-1.33,1.03-.68,.77-1.33,1.03-2.23,1.89-1.2,.73-2.7,1.33-1.29,.52-1.44,.45-1.58,.39-1.95,.41-2.04,.19-1.67,.17-2.06-.17-2.29-.45-1.93-.47-4.05-1.73-2.21-1.48-1.54-1.37-1.24-1.24-.99-1.84-.95-2.36-.56-2.01-.11-1.82,.32-1.99,.47-1.93,.58-1.35,.73-1.29,.88-1.22,.81-1.07,.88-1.22,.96-1.01,1.18-1.09,1.61-1.27,1.76-1.2,1.56-.75,3.86-1.55,1.52-.24,1.74-.32,5.27-1.12,1.52-.24,1.82-.11,.94-.13,4.67-.13,1.03,.08,2.34-.07,2.12,.02,1.67-.17,1.97-.05,1.86-.62,1.26-.88,1.03-1.16,.81-1.07,.88-1.22,1.03-1.16,.96-1.01,1.03-1.16,1.84-2.23,1.03-1.16,.88-1.22,2.74-3.09,.94-1.37,.88-1.22-.15-.06-1.2,.73-1.35,.67-1.2,.73-1.35,.67-2.4,1.46-1.35,.67-1.56,.75-2.57,1.03-2.01,.56-1.93,.77-1.58,.39-1.37,.3-1.61,.02-1.89,.26-2.19,.13-1.54-.13-2.96-.55-1.87-.62-2.08-.53-1.29-.73-1.52-1-1.22-.88-1.24-1.24-1.33-1.46-.82-1.41-.67-1.35-.24-1.52-.05-1.97,.17-2.06,.49-1.57,.77-1.8,.68-2.02,.64-1.5,.92-1.74,1.13-1.82,.79-1.44,.94-1.37,.75-.92,.94-1.37,.73-1.29,1.03-1.16,.88-1.22,1.03-1.16,3.51-4.89,.96-1.01,2.06-2.32,1.24-1.24,1.03-1.16,.75-.92,2.05-2.32,.96-1.01,1.09-1.31,.73-1.29,.96-1.01,2.05-2.32,.88-1.22,1.03-1.16,2.63-3.67,.96-1.01,1.13-.58,1.61-.02,1.41,.43,1.57,.49,1.35,.58,1.44,.79,1.07,.81,.88,1.26,.15,1.31-.51,1.2-.73,1.29-.88,1.22-1.03,1.16-2.63,3.67-.81,1.07-.88,1.22-1.03,1.16-2.63,3.67-.81,1.07-.88,1.22-1.18,1.09-1.28,1.76-1.22,1.61-1.75,2.45-2.06,2.32-.73,1.29-.88,1.22-.81,1.07-1.03,1.16-.88,1.22-.94,1.37-.53,.84-1.16,1.46-.88,1.22-.94,1.37-.73,1.29-1.22,2.85-.43,1.41,.02,1.61,.52,1.29,1.16,1.03,1.22,.88,1.29,.73,1.48,.28,1.54,.13,1.52-.24,1.44-.45,1.58-.39,1.65-.54,.86-.34,2.01-.56,2.57-1.03,1.35-.67,1.2-.73,1.63-.9,.77-.56,1.48-.97,1.41-.82,1.2-.73,1.33-1.03,1.11-.94,1.03-1.16,1.33-1.03,.92-.49,2.35-2.19,.96-1.01,1.03-1.16,1.73-1.57,1.8-1.72,1.43-1.7,.88-1.22,1.03-1.16,.88-1.22,.96-1.01,1.18-1.09,1.31-1.39,1.22-1.61,1.09-1.31,1.75-2.45,1.16-1.46,1.22-1.61,1.09-1.31,1.11-.94,1.29-.52,1.54,.13,1.42,.43,2.85,1.22,1.37,.94,1.16,1.03,.88,1.26v1.24s-.58,1.35-.58,1.35l-.73,1.29-1.03,1.16-1.93,2.02-1.03,1.16-1.13,1.82-1.22,1.61-1.09,1.31-1.22,1.61-1.31,1.39-1.09,1.31-1.22,1.61-1.43,1.69-1.75,2.45-1.03,1.16-1.22,1.61-1.37,1.54-.88,1.22-1.03,1.16-.88,1.22-1.22,1.61-1.28,1.76-1.03,1.16-.81,1.07-1.03,1.16-1.22,1.61-1.37,1.54-.94,1.37-1.28,1.76-1.07,1.67-1.75,2.44-1.09,1.31-.69,.77-1.09,1.31-.64,1.5,.71,.83,2.21,.23,2.04-.2,1.67-.17,1.37-.3,1.58-.39,1.5-.6,1.01-.28,1.71-.69,1.44-.45,1.29-.52,1.44-.45,1.35-.67,1.2-.73,2.7-1.33,1.29-.52,1.2-.73,1.41-.82,1.26-.88,2.38-1.83,2.53-1.76,3.06-2.6,1.33-1.03,1.26-.88,3.34-2.83,1.74-.32,1.74,.92,.56,2.01Zm-70.18,28.42l1.07-1.67-.56-.77-1.76-.04-1.52,.24-1.58,.39-1.37,.3-3.92,.45-1.44,.45-1.59,.39-3.43,1.38-2.33,1.31-2.25,1.52-1.71,1.93-.92,1.74-.28,1.48,.78,1.93,1.57,1.73,1.95,.83,1.69,.19,3.04-.47,1.56-.75,1.26-.88,1.35-.67,1.26-.88,1.39-1.18,1.18-1.09,.9-.86,1.09-1.31,1.37-1.55,1.56-2,1.63-2.15Z"/>
    </g>
    <g>
      <path class="cls-1" d="M830.55,1936.31l-1.43,.47-1.52,.26-1.37,.33-1.39-.04-1.54-.1-1.48-.25-1.27-.34-1.42-.4-2.93-1.02-2.57-1.05-1.45-.77-1.69-1.04-1.78-1.25-1.11-1.16-1.02-.95-.9-1.25-1.5-2.37-.63-1.49-.39-1.22-.26-1.52-.32-1.37-.11-1.46-.05-1.61,.25-1.48,.19-1.33,.4-1.42,.55-1.36,2.12-3.9,.86-1.24,3.29-2.89,2.5-1.8,1.28-.54,2.86-.95,1.15-.24,1.52-.26,1.73-.35,1.37-.33,1.45-.11,1.61-.05,2.06,.13,2.15,.35,1.55,.1,2.97,.51,1.42,.4,1.21,.49,2.84,.81,2.87,1.17,1.3,.71,1.36,.56,1.75,.89,7.06,4.29,1.3,.71,1.45,.77,1.24,.86,1.36,.56,4.11,1.15,1.48,.25,1.7,.16,1.03,.07,1.82-.14,2.03-.23,2.09-.38,1.79-.5,.85-.36,1.64-.56,1.34-.69,1.58-.41,1.85,.22,1.64,.31,1.21,.49,1.45,.77,1.39,.92,.96,1.1,.78,1.55-.1,1.54-1.25,1.78-1.74,2.11-1.41,1.72-2.35,2.74-1.19,1.63-1.07,1.33-1.26,1.78-1.19,1.63-1.01,1.18-.79,1.09-1.01,1.17-1.25,1.78-2.94,3.74-2.57,3.71-.95,1.02-1.01,1.18-.79,1.08-1.01,1.18-1.41,1.72-1.44,2.23-1.19,1.63-1.07,1.33-1.19,1.63-1.25,1.78-1.01,1.17-.8,1.09-1.07,1.33-1.19,1.63-1.08,2.21,.29,1.88,1.66,1.56,2.08,1.38,3.08,1.96,4.14,2.39,2.93,1.9,2.54,1.56,1.54,.98,1.27,.34,1.28-.54,.88-.87,.73-.93,1.71-2.47,1.07-1.33,1.04-1.69,1.84-2.78,1.19-1.63,.86-1.24,1.01-1.17,.71-1.3,2.57-3.71,1.01-1.18,.8-1.09,1.71-2.47,1.01-1.18,.95-1.03,.86-1.24,.71-1.3,1.01-1.18,.86-1.24,.8-1.09,1.16-1.11,2.02-2.35,.8-1.09,.86-1.24,1.01-1.17,.95-1.02,1.31-1.05,.95-1.02,1.01-1.18,1.07-1.33,.61-.63,1.13-1.48,.95-1.03,1.31-1.05,1.19-.75,2-.59,1.91,.08,1.51,.62,1.24,.86,1.39,.92,1.24,.86,.96,1.1,.69,1.34-.04,1.39-.8,1.09-1.16,1.11-1.5,1.51-3.36,3.92-1.1,.96-1.01,1.17-1.1,.96-1.01,1.18-.8,1.09-1.01,1.17-.86,1.24-2.02,2.35-1.19,1.63-1.34,1.57-1.07,1.33-.95,1.03-2.57,3.71-1.01,1.17-.92,1.39-.52,.85-1.07,1.33-.86,1.24-1.01,1.18-.86,1.24-.79,1.09-.86,1.24-1.01,1.18-.92,1.39-.86,1.24-.73,.94-.92,1.39-1.26,1.78-1.19,1.63-.64,1.15,.21,.79,1.15,.65,2.09,.5,2.66,.38,2.58,.17,3.3,.11,2.12-.02,1.67-.2,1.58-.41,1.88-.29,6.1-1.57,2-.59,1.48,.25,.93,.73,.39,1.21-.19,1.33-.71,1.3-1.43,1.35-1.83,1.02-2.86,.95-1.79,.5-.85,.36-1.73,.35-1.43,.47-1.67,.2-4.37,.33-3.06,.16-1.61,.05-1.39-.04-1.85-.22-.97-.22-1.63-.32-1.55-.1-1.63-.31-1.48-.25-1.27-.34-1.21,.39-.89,.87-1.71,2.47-1.01,1.17-.8,1.09-.86,1.24-1.01,1.18-.79,1.08-1.07,1.33-1.19,1.63-1.04,1.69-1.01,1.18-.86,1.24-1.01,1.17-1.19,1.63-1.4,1.72-1.01,1.18-.95,1.02-1.01,1.18-1.41,1.72-1.95,1.32-2.55,.2-2.75-.6-2.36-1.14-2.02-1.53-1.29-1.59-.17-1.3,.89-1.75,1.34-1.57,1.16-1.11,1.41-1.72,3.02-3.53,1.07-1.33,1.28-1.42,1.04-1.69,1.07-1.33,1.34-1.57,2.2-2.81,.79-1.09,1.01-1.18,1.25-1.78,1.01-2.05-.35-1.73-1.63-1.19-.85-.52-3.68-2.21-5.07-3.13-3.02-2.11-2.08-1.38-.84-.52-1.9-.95-1.63-.31-1.04,.81-1.13,1.48-.52,.84-1.07,1.33-.86,1.24-.95,1.02-1.01,1.17-1.07,1.33-.67,.78-1.07,1.33-1.01,1.17-3.29,2.89-1.16,1.11-1.5,1.5-1.65,1.45-1.25,.9-2.71,1.89-.97,.66-1.19,.75-1.34,.69-1.28,.54-4.28,1.43-1.52,.26-1.37,.32-1.61,.05-2.06-.13-2-.29-1.7-.16-1.48-.25-1.72-.53-2.42-.99-2.81-1.32-1.3-.7-1.21-.49-1.3-.71-1.18-1.01-.93-.73-1.02-.95-1.26-1.22-.9-1.25-.75-1.19-.69-1.34-.32-1.37-.48-1.43-.11-1.46-.26-1.52,.04-1.39,.1-1.54,.25-1.48,1.11-2.72,1.41-2.6,.64-1.15,.86-1.24,1.01-1.18,.8-1.09,1.01-1.17,.95-1.02,1.16-1.11,1.1-.96,1.25-.9,1.4-.84,2.68-1.38,1.19-.75,1.34-.69,1.49-.63,4.68-1.09,.94-.14,1.79-.5,1.46-.11,1.52-.26,1.55,.1,1.46-.11,4.61-.06,1.39,.04,1.55,.1,4.45,.76,4.42,1.27,1.36,.55,2.63,.9,1.27,.34,1.52-.26,.95-1.03,1.19-1.63,1.25-1.78,.86-1.24,1.01-1.18,1.1-.96,.86-1.24,1.01-1.17,1.25-1.78,1.44-2.23,1.41-1.72,1.16-1.11,1.25-1.78,1.19-1.63,1.01-1.18,.86-1.24,1.01-1.18,.79-1.08,1.01-1.18,.8-1.09,1.01-1.18,1.25-1.78,1.19-1.63,1.71-2.48,1.8-2.26,1.01-1.18,.79-1.09,.67-.78-.24-.28-.94,.15-1.46,.11-1.37,.33-1.46,.11-1.52,.26-1.55-.1-1.48-.25-1.94-.44-2.03-.65-2.78-.96-1.51-.61-1.9-.95-5.35-2.88-1.75-.89-1.09-.8-8.01-3.27-1.42-.4-4.42-.39-1.55-.1-1.37,.33-1.3,.17-1.37,.32-1.64,.57-1.49,.63-1.1,.96-1.16,1.11-.8,1.08-.86,1.24-.62,1.51-.19,1.33,.05,1.61,.32,1.37,.63,1.49,.75,1.19,.9,1.25,1.17,1.01,1.24,.86,1.3,.71,1.57,.47,1.48,.25,1.39,.04,1.61-.05,1.46-.11,1.52-.26,1.46-.11,1.36,.55,1.11,1.16,.56,1.64,.2,1.67-.71,1.3-1.1,.96-1.34,.69-1.37,.32Zm-25.25,55.45l1.55,.1,2.91-.22,1.49-.63,2.61-1.23,1.19-.75,1.34-.69,2.2-1.92,1.25-.9,1.1-.96,1.01-1.17,.95-1.02,1.1-.96,1.01-1.18,.95-1.02,1.86-2.41,.95-1.02,1.01-1.18,1.71-2.47,.83-1.6-.48-1.43-1.6-.83-2.97-.5-1.42-.4-1.33-.19-1.55-.1-1.39-.04-1.54-.1-2.91,.22-1.37,.32-1.58,.41-1.43,.47-1.37,.33-2.86,.95-1.19,.75-1.34,.69-1.31,1.05-1.25,.9-.82,.72-1.31,1.05-1.34,1.57-1.59,2.17-.99,2.42-.59,2.75,.41,2.46,1.41,2.16,1.96,1.68,1.99,1.16,1.57,.47,1.18,.13Z"/>
      <path class="cls-1" d="M939.51,2011.72l-.52,1.72-.9,1.26-2.01,2.12-2.12,1.92-1.21,1.17-1,1.06-1.36,1.12-.75,.79-1.21,1.17-1.16,1.01-1.11,.86-1.32,.96-1.11,.86-2.32,2.02-3.81,2.43-2.49,1.46-1.42,.76-1.27,.81-1.38,.6-4.24,1.61-1.33,.45-1.6,.2-1.55,.04-1.34-.07-3-.23-2.66-.81-1.67-.68-1.11-.85-1.26-.9-1.01-1.16-.81-1.27-.45-1.33-.4-1.49-.2-1.6,.07-1.34,.11-1.5,.27-1.45,.43-1.41,1.17-2.72,.74-1.31,.9-1.27,1.48-2.62,.85-1.11,.74-1.31,.9-1.26,.85-1.11,2.69-3.79,.54-1.2,.74-1.31,.9-1.26,.74-1.31,.69-1.16,1.79-2.53,1.04-1.73,1.09-1.89,1.79-2.53,.74-1.31,.64-1,.74-1.31,1.1-1.37,.85-1.11,2.22-3.93,.9-1.26,1.04-1.73,1.24-1.84,.9-1.26,1-1.06,1.17-.5,1.6-.2,1.3,.22,1.51,.63,2.72,1.17,2.21,1.7,.45,1.33-.43,1.41-.74,1.31-1.04,1.73-1.09,1.89-1.79,2.53-.69,1.15-.74,1.31-.94,1.42-1.04,1.73-2.99,4.21-.74,1.31-1.24,1.84-2.09,2.95-.74,1.31-.69,1.15-.74,1.31-1.9,2.32-.74,1.31-2.28,3.57-1.79,2.53-.74,1.31-1.09,1.89-1.23,2.36-1.12,2.56-.4,2.44,.73,2.1,1.58,.99,1.45,.27,1.6-.2,1.33-.45,1.53-.56,6.72-3.59,1.27-.81,1.11-.86,1.32-.96,2.32-2.03,1.27-.81,.91-.75,1.16-1.01,1.36-1.12,1.05-1.21,2.06-2.28,3.01-3.18,1.16-1.01,1.64-.35,1.94,.93,.78,1.94Zm-10.57-55.59l1.16-1.01,1.58-.71,1.49-.4h1.71s1.5,.12,1.5,.12l1.56,.47,1.31,.74,1.01,1.16,.81,1.27,.76,1.43,.4,1.49,.04,1.55-.27,1.46-.47,1.56-.9,1.26-1.16,1.01-1.32,.96-1.38,.6-1.53,.56-1.6,.2-1.66-.16-1.36-.58-1.47-.79-2.02-2.32-.6-1.38-.4-1.49,.11-1.5,.27-1.45,.58-1.36,.79-1.47,1.05-1.22Z"/>
      <path class="cls-1" d="M925.55,2093.97l-1.64-.89-.88-.54-1.28-.97-1.12-.94-.89-1.21-.73-1.18-.5-1.46-.7-2.01-.22-1.9,.02-1.51,.18-1.47,.53-1.55,.65-2.03,.93-1.79,.81-1.32,1.21-1.56,1.37-1.52,1.09-1.08,1.41-1.01,1.22-.89,2.2-1.49,4.01-2.07,1.3-.53,4.02-1.4,1.58-.3,1.97-.54,2.09-.34,1.78-.42,.87-.13,1.97-.54,1.94-.38,1.78-.42,1.62-.46,1.38-.18,1.26-.37,1.18-.73,.78-1.16,1.59-2.48,2.21-3.67,.66-1.36,.81-1.32,.62-1.2,.66-1.35,.81-1.32,.62-1.2,.81-1.32,1.55-2.32,.81-1.32-.32-.07-.93,1.12-2.19,2.17-1.06,.92-1.22,.89-1.06,.92-1.41,1.01-.82,.65-1.41,1.01-1.22,.89-2.55,1.58-1.34,.69-1.46,.49-2.84,.67-1.46,.5-1.42,.34-1.35,.02-1.5-.02-2.93-.36-3.02-.71-1.87-.61-1.83-.77-1.44-1.01-1.52-1.37-1.33-1.49-.85-1.38-.69-1.34-.49-1.46-.5-2.13-.22-1.9,.02-1.5,.18-1.47,.06-1.66,.13-1.98,.33-2.1,.37-1.59,.99-2.79,.81-1.99,1.08-2.43,1.12-1.91,.81-1.32,.62-1.2,.81-1.32,.78-1.16,.97-1.28,1.05-1.6,1.95-2.56,1.17-1.4,1.13-1.24,1.06-.92,2.74-2.37,1.52-1.48,1.22-.89,2.11-1.85,2.43-1.77,1.34-.69,1.5-.65,2.48-1.26,5.24-2.29,3.94-1.08,1.74-.26,1.94-.38,3.6-.32,1.66,.06,.99,.07,1.7-.1,1.51,.02,2.93,.36,1.59,.37,4.09,1.13,1.43,.34,1.39,.5,1.23,.46,1.36,.66,1.44,1.01,1.32,.81,1.04,.58,1.12,.93,1.16,.78,1.28,.97,1.49,1.52,1.24,1.13,1.21,1.29,1.05,1.25,.69,1.34,.1,1.7-.89,1.63-1.25,1.05-1.18,.73-1.3,.53-1.42,.34-1.39-.5-1.24-1.13-1.89-1.96-2.17-2.19-1.12-.94-1.32-.81-1.35-.66-1.32-.81-2.71-1.31-4.45-1.05-1.47-.18-1.66-.06-1.86,.06-1.9,.22-1.86,.06-2.13,.5-2.52,.75-2.05,.86-1.3,.53-1.34,.69-1.22,.89-1.61,1.13-1.65,1.29-1.41,1.01-1.49,1.33-2.54,2.25-1.72,1.61-1.37,1.52-1.95,2.56-.78,1.16-.97,1.28-1.63,2.63-.66,1.36-.81,1.32-.69,1.51-.66,1.35-.5,1.39-.53,1.55-.5,1.39-.37,1.59-.18,1.47,.14,1.54,.1,1.7,.09,1.03,.42,1.78,.73,1.18,1.12,.94,1.35,.66,1.43,.34,1.35-.02,1.51,.02,1.42-.34,3.9-1.59,1.34-.69,1.18-.73,1.22-.89,1.18-.73,1.22-.89,1.06-.92,2.19-2.17,1.49-1.33,1.65-1.29,1.09-1.08,1.06-.92,.81-1.32,1.87-2.24,2.03-2.21,.93-1.12,.97-1.28,6.51-10.54,.65-1.35,1.01-1.44,1.57-.97,1.78-.42,1.59,.37,1.99,.81,1.76,1.09,1.28,.97,.77,1.69,.06,1.86-.5,1.39-.66,1.35-1.63,2.63-.62,1.2-.81,1.32-.66,1.35-1.63,2.63-.62,1.2-.46,1.23-.81,1.32-1.97,4.06-1.63,2.63-.65,1.36-.69,1.51-.54,.88-.69,1.51-.66,1.35-.81,1.32-1.12,1.91-.93,1.8-.81,1.32-.65,1.35-2.44,3.95-.57,1.71,.09,1.03,1.35-.02,2.64-.55,1.42-.34,1.46-.49,1.3-.53,1.5-.65,1.14-.57,1.37-.85,1.14-.57,1.34-.69,1.57-.97,1.34-.69,1.22-.89,1.06-.92,1.09-1.08,1.22-.89,1.29-1.2,1.84-1.41,1.41-1.01,2.19-2.17,1.06-.93,1.09-1.08,.94-1.12,.81-1.32,2.81-3.36,.97-1.28,.94-1.12,1.22-.89,1.14-.57,1.43,.34,1.21,1.29,.37,1.26-.34,1.43-.97,1.28-1.24,1.72-1.21,1.56-1.09,1.08-.94,1.12-1.13,1.24-1.21,1.56-1.37,1.52-1.33,1.37-1.49,1.33-1.33,1.36-1.25,1.05-1.06,.92-1.29,1.2-.66,.68-2.9,2.33-1.8,1.25-2.36,1.46-1.53,.81-2.48,1.26-1.22,.89-1.34,.69-1.18,.73-1.46,.49-1.3,.53-1.42,.33-1.3,.53-1.46,.49-2.84,.67-2.72,.87-1.42,.34-1.46,.5-1.13,1.24-1.24,1.72-.66,1.36-.78,1.16-.65,1.35-.85,1.47-.5,.72-.85,1.48-.81,1.32-1.12,1.92-1.36,2.2-1.67,2.12-1.28,1.88-.81,1.32-.78,1.16-.97,1.28-1.29,1.21-1.52,1.48-1.25,1.05-1.06,.93-1.18,.73-1.14,.57-1.18,.73-1.65,.62-1.46,.49-1.93,.38-2.73,.19-2.14-.17-1.47-.18-1.43-.34-1.55-.53-3.66-1.54Zm4.5-13.36l-.29,1.94,.34,1.42,1.36,1.33,1.64,.89,1.63,.22,1.38-.18,1.46-.49,1.89-.9,1.57-.97,1.25-1.05,1.06-.92,1.13-1.24,2.41-3.12,.85-1.48,3.8-6.15,.81-1.99-.8-.86-1.58,.3-1.62,.46-4.38,1.48-1.3,.53-1.53,.81-1.34,.69-3.53,2.18-1.22,.89-1.25,1.05-1.06,.92-.94,1.12-.97,1.28-.77,1.83Z"/>
      <path class="cls-1" d="M1057.67,2021.12l.21-1.45,.07-1.64-.11-1.5-.27-1.52-.65-1.25-.99-1.13-1.41-.53-1.48-.05-1.5,.11-1.52,.28-1.57,.6-1.04,.35-3.19,1.52-1.27,.81-1.09,.67-1.46,.94-.92,.69-1.64,1.08-.76,.71-1.46,.95-1.34,1.29-.76,.71-1.34,1.29-.97,1.01-1.18,1.31-.62,.9-1.18,1.31-.97,1.02-.86,1.36-.67,1.22-.74,1.71-.44,.76-1.43,3.09-.76,1.87-.79,2.03-.53,1.41-.58,1.73-.3,.95-.76,1.87-.44,.76-.72,1.54-.53,1.41-.58,1.73-.46,.92-1.25,4.11-.58,1.73-1.06,2.82-.81,1.04-1.25,.64-2.19,.34-2.49,.14-2.15,.02-1.57-.56-1.82-1.09-1.25-1.66,.16-2.29,1.74-5.19,.39-1.59,.72-1.55,.44-.76,.9-2.84,.76-1.87,.46-.92,.76-1.87,.3-.95,1.43-3.09,.46-.92,.72-1.55,.53-1.41,.37-1.43,.72-1.55,.46-.92,.76-1.87,.3-.95,.72-1.55,1.6-4.22,.76-1.87,.79-2.03,.72-1.55,1.32-2.29,.74-1.71,.53-1.41,.67-1.22,1.62-3.23,.79-2.03,1.11-3.14,.44-.76,.74-1.71,.69-1.38,.72-1.55,.28-.78,.88-1.52,.69-1.38,.72-1.55,.46-.92,.72-1.54,.69-1.39,1.32-2.28,.93-1.85,.28-.78,.92-1.85,.6-.74,.93-1.85,.28-.79,.92-1.84,.3-.95,.92-1.85,.6-.74,.88-1.52,.69-1.38,.67-1.22,.83-1.2,1.39-2.77,.67-1.22,.86-1.36,1.09-1.82,1.36-1.45,1.41-.62,1.48,.05,1.59,.39,2.86,.74,1.57,.56,1.22,.67,.99,1.13,.3,1.36-.53,1.41-.67,1.22-.83,1.2-.69,1.38-.88,1.52-.28,.79-1.11,1.98-1.76,3.05-.9,1.68-.72,1.55-.76,1.87-1.62,3.23-.9,1.68-.44,.76-.93,1.84-.28,.79-.93,1.85-.6,.74-.72,1.55-.69,1.38-.72,1.55-.3,.95-.72,1.54-.69,1.39-.9,1.68-1.43,3.09-.74,1.71-.72,1.55-.76,1.87-.92,1.84-.88,1.52-.67,1.22-.69,1.38-.37,1.43,.28,.37,1.13-.99,1.32-1.13,1.52-1.43,1.69-1.41,.9-.53,1.32-1.13,1.15-1.15,1.66-1.25,2.33-1.31,1.8-1.06,2.82-1.24,1.25-.65,1.92-.71,2.06-.53,1.69-.25,1.96,.12,3.72,.53,1.43,.37,1.55,.72,3.3,2.29,1.02,.97,.99,1.13,.65,1.25,.44,1.55,.3,1.36,.28,1.52,.11,1.5-.19,1.29-.37,1.43-.42,2.91-.62,2.05-.6,1.89-.56,1.57-.51,1.25-.37,1.43-1.06,2.81-2.31,4.62-.79,2.03-.69,1.38-1.06,2.82-.72,1.55-.3,.95-.81,2.19-.99,2.33-.46,.92-.76,1.87-.95,2.01-.74,1.71-.35,1.27-.42,1.75-.3,.95-.07,1.64,.46,1.39,1.22,.67,1.43,.37,1.34-.14,1.55-.44,1.43-.78,1.62-.92,1.85-1.38,1.64-1.08,2.26-1.98,1.15-1.15,1.96-2.19,1.13-.99,1.02-1.34,.79-.88,1.23-1.64,3.24-4.15,1.2-1.48,1.04-1.5,.46-.92,1.04-1.5,.99-1.18,1.41-.62,1.89,.6,1.22,1.82-.09,1.8-.83,1.2-.86,1.36-1.2,1.48-6.89,8.91-1.87,2.7-1.18,1.31-.76,.71-2.15,2.33-1.13,.99-2.45,2.12-.76,.71-1.32,1.13-2.54,1.61-1.13,.99-1.43,.78-1.25,.65-2.77,.92-3.05,.55-1.5,.12-1.64-.07-2.12-.14-2.54-.7-2.05-.62-1.36-.86-1.41-1.69-1.18-2.15-.53-2.05-.44-1.55,.12-1.96,.44-3.07,.67-2.38,.63-2.05,.56-1.57,.51-1.25,.69-1.39,.76-1.87,.79-2.03,.69-1.39,1.06-2.82,.79-2.03,.6-1.89,.72-1.55,1.53-3.74,.53-1.41,.72-1.55,.46-.92,.72-1.55,1.2-2.63,1.06-2.82Z"/>
      <path class="cls-1" d="M1150.69,2080.51l-2.12-.33-2.61-.82-2.61-.98-2.45-1.31-2.12-1.63-1.47-1.47-.98-1.47-.81-1.96-.65-2.45-.32-2.12v-1.47s.17-1.47,.17-1.47l.49-1.47,.33-1.31,.49-1.47,.82-1.31,.82-1.14,1.96-2.28,1.14-.98,3.43-2.44,1.31-.65,1.47-.49,1.14-.33,1.47-.32,1.63-.49,1.63-.16h5.06s2.61,.33,2.61,.33l2.61,.66,2.12,.65,1.47,.49,1.3,.49,1.79,.98,.98,.82,3.26,1.96,1.79,1.15,2.12,1.31h1.96s1.47-.98,1.47-.98l1.14-1.14,.98-1.14,1.14-.98,.98-1.14,.82-.98,1.96-2.28,.98-.98,.98-1.14,2.45-3.43,.98-1.14,.82-1.31,.82-1.14,1.63-2.77,.65-.98,.65-1.3,1.64-2.61,.98-1.63,.98-1.8,.65-1.47,.82-1.31,.66-1.47,.65-1.96,.82-1.96,.49-1.47,.33-1.47,.33-1.31,.33-1.47,.49-1.3,.33-1.47,.16-1.31,.16-1.47,.66-2.94,.66-5.88v-1.47s-.16-1.47-.16-1.47l-.16-1.63-.32-1.47-.16-1.47-.33-1.47-.32-1.63-.49-1.31-.65-1.47-1.63-2.61-1.96-2.29-1.14-1.15-1.14-.98-1.31-.82-1.79-.82-2.12-.82-1.96-.49-1.63-.16-1.14-.33-1.47-.16h-1.47s-1.63-.17-1.63-.17h-1.47s-1.47,.16-1.47,.16l-2.94,.65-1.31,.33-1.47,.49-1.14,.33-1.31,.49-1.63,.82-1.31,.81-1.63,1.3-1.63,1.14-1.31,.98-.98,.98-1.14,.98-2.12,2.12-1.15,1.8-1.14,1.63-.82,1.47-.49,1.3-.65,1.47-.98,2.77-.49,1.47-.16,1.47-.49,1.96-.33,2.12-.16,1.63-.16,1.47v1.47s.32,2.94,.32,2.94l.32,2.12,.16,1.96,.32,1.47,.49,1.47,.81,1.47,.49,.98,.81,1.47,.82,1.14,1.96,2.29,1.14,.98,1.14,.82,1.47,.82,.82,.33,1.63,.82,1.47,.33,1.31,.49,1.47,.65,.65,1.14-.16,1.63-.66,1.31-1.14,1.3-1.31,.65-1.47,.16h-1.63s-2.12-.33-2.12-.33l-2.61-.66-2.61-.98-1.96-.82-1.47-.82-2.28-1.63-1.3-.82-1.14-1.15-2.61-2.94-.98-1.31-1.96-3.59-.65-1.63-.65-1.96-.49-1.96-.98-4.41-.16-1.96-.16-2.12v-1.63s.17-2.12,.17-2.12l.17-1.96,.33-2.94,.49-1.47,.49-2.12,.49-1.96,.65-1.47,.82-1.96,.82-1.79,.65-1.47,.82-1.14,.82-1.3,1.31-1.63,1.14-1.79,.98-1.31,2.61-2.93,1.14-1.14,1.14-.98,2.29-1.79,1.14-.82,1.8-1.14,1.63-.98,1.47-.65,1.31-.65,1.63-.65,3.76-1.3,1.47-.49,1.47-.32,3.59-.49,2.61-.32,3.75-.32,1.47-.16h4.41s1.47,.17,1.47,.17l2.94,.49,2.94,.66,1.47,.49,1.3,.49,2.77,1.15,1.47,.49,1.31,.82,1.3,.65,1.14,.98,2.45,1.96,1.14,.98,.98,.98,.98,1.14,1.79,2.45,1.63,2.61,.65,1.31,.65,1.47,.49,1.47,.49,1.31,.33,1.47,.32,2.94,.16,1.63,.49,4.41v1.63s-.16,1.47-.16,1.47l-.17,1.31-.16,1.47-.33,1.63-.33,2.12-.49,1.96-.33,1.63-.33,1.96-.66,2.12-.33,1.47-.49,1.47-.33,1.3-.98,2.94-.65,1.31-1.15,2.45-.49,1.31-.98,1.8-1.63,2.94-.82,1.79-1.63,2.61-.65,1.31-.82,1.14-.98,1.31-1.63,2.28-1.64,2.61-.82,1.14-2.94,3.43-.98,.98-.98,1.3-1.14,1.3-1.47,1.63-.82,.98-2.45,2.45-2.12,1.96-1.14,.98-2.94,2.93v.98s.98,1.14,.98,1.14l1.96,1.8,2.12,2.12,.98,1.14,2.12,2.12,2.28,1.96,1.14,1.14,1.96,2.12,1.31,1.14,1.14,.98,.98,.82,1.14,.82,1.31,.98,1.3,.82,1.8,1.15,1.79,.98,1.63,.82,.98,.33,1.79,.49,1.47,.49,1.31,.16,1.47,.17h3.26s2.78-.32,2.78-.32l1.47-.32,1.31-.33,1.47-.49,1.31-.49,1.47-.49,1.31-.16,1.3,.33,1.14,.82,.98,1.14,.65,1.31,.32,1.31,.16,1.47-.33,1.47-.65,1.31-.98,.81-1.31,.65-1.31,.49-1.63,.65-3.92,1.3-1.47,.33-4.41,.49h-1.47s-1.47-.17-1.47-.17l-2.77-.49-2.12-.33-1.96-.33-1.79-.49-1.96-.65-1.79-.65-1.47-.82-1.3-.66-1.31-.82-1.79-1.15-1.63-1.31-2.45-1.63-1.31-.82-2.28-1.96-1.79-1.8-1.47-1.31-.65-.82-1.14-1.14-1.14-.98-1.96-2.29-1.47-1.47-1.47-1.63-.82-.82-1.14-1.31-1.96-2.12-.98-.82-1.14-.16-1.31,.65-2.45,1.63-1.31,.98-1.31,.82-1.31,.65-3.92,1.79-1.63,.82-2.94,.98-1.47,.32-1.47,.49-1.63,.16h-1.96s-2.12-.17-2.12-.17l-1.63-.33Zm1.33-23.01l-1.31,.65-1.14,.98-.98,.98-.65,1.31-.49,1.47-.33,1.47v1.47s.32,1.31,.32,1.31l.65,1.31,.98,1.14,1.14,.82,1.47,.49,1.31,.49,1.47,.17,1.63,.16,1.47-.16,1.63-.49,1.31-.49,1.14-.49,1.47-.65,2.61-1.63,1.63-1.14,1.8-.98,.82-.98-.33-1.47-1.47-1.63-2.12-1.63-2.45-1.31-2.45-.82-2.45-.49-3.43-.33-1.8,.16-1.47,.32Z"/>
      <path class="cls-1" d="M1280.14,2005.81l1.61-.33h1.64s1.48,.01,1.48,.01l1.66,.16,1.35,.36,1.38,.68,.78,1.23-.29,2-.79,3.52-1.04,2.73-.34,1.51-.19,1.33-.34,1.51-.52,1.36-.36,2.99-.34,1.51-.36,1.35-.32,1.67-.34,1.51-.21,1.17-.34,1.51-.19,1.33-.18,1.49-.34,1.51-.53,4.48-.29,2-.27,2.16-.32,1.67-.13,1.98-.11,2.14v1.64s.15,1.46,.15,1.46v1.48s.13,1.46,.13,1.46l.62,2.89,.63,1.41,.93,1.05,1.2,.54h1.48s1.28-.28,1.28-.28l1.4-.79,2.11-1.85,1.02-1.25,1.04-1.09,1.05-.93,1.72-2.47,1.4-2.44,.84-1.4,.86-1.24,.54-1.2,.5-1.53,.68-1.38,.67-1.54,.57-.88,.81-1.72,.65-1.71,.63-1.87,1.17-3.07,.84-1.4,1.22-.94,2,.29,1.46,1.49,.33,1.61-.34,1.51-.52,1.37-.7,1.22-.68,1.38-1.04,2.73-.34,1.51-.52,1.37-1.36,2.76-.7,1.22-1.36,2.76-.7,1.22-1.72,2.47-.7,1.22-.84,1.4-1.72,2.47-1.91,2.16-.88,1.07-2.08,2.18-2.43,1.89-3.7,2.34-2.86,.95-1.45,.31-1.96,.03-2-.29-1.69-.49-1.59-1.15-1.45-1.33-1.12-1.36-1.01-1.87-.91-2.53-.59-2.57-.38-2.09v-1.64s.16-1.66,.16-1.66l-.23-.63-.41,.86-.68,1.38-1.4,2.44-.84,1.4-2.58,3.71-2.77,3.4-.86,1.24-1.05,.93-1.22,.94-2.45,1.72-2.47,1.56-1.41,.63-5.72,1.89-1.45,.31h-1.48s-1.64-.01-1.64-.01l-1.48-.02-1.17-.21-1.51-.34-1.37-.52-2.44-1.4-1.25-1.02-1.85-2.11-.8-1.4-.62-1.25-.31-1.45-.33-1.61-.44-4.39,.02-1.48,.18-1.49,.02-1.48,.18-1.49,.02-1.48,.13-1.98,.28-2.16,.35-2.99,.34-1.51,.29-2,.79-3.53,.36-1.35,.18-1.49,.34-1.51,.03-1.32,1.59-7.05,.32-1.67,1.25-5.54,.36-1.35,.34-1.51,.62-2.03,.29-2,.34-1.51,.52-1.37,1.05-.93,1.4-.8,1.43-.47,1.59-.49h1.48s1.5,.19,1.5,.19l1.51,.34,1.36,.52,.75,.91,.13,1.3-.18,1.5-.34,1.51-.19,1.33-.68,3.02-.49,1.69-.06,.99-.45,2.01-.41,.86-.31,1.83-.34,1.51-.27,2.16-.44,2.18-.23,1.01-.47,1.85-.34,1.51-.18,1.5-.36,1.35-.36,2.99-.02,1.48-.18,1.49-.34,1.51-.36,2.99-.19,1.33-.34,1.51-.18,1.49-.27,2.16-.06,2.63,.3,2.92,.59,2.57,1.53,2.14,2.24,1.08,1.98,.13,2.86-.94,1.23-.78,1.09-.6,1.23-.78,1.38-.96,1.22-.94,2.08-2.18,.88-1.07,2.58-3.7,.7-1.22,.83-1.56,.81-1.72,.96-1.9,1.04-2.73,.66-1.54,.52-1.37,.5-1.53,.36-1.35,.34-1.51,.36-1.35,.34-1.51,.36-1.35,.5-1.53,.36-1.35,.35-2.99,.34-1.51,.36-1.35,.34-1.51,.36-1.35,.5-1.53,.18-1.49,.19-1.33,.68-3.02,.36-1.35,.68-3.02,.19-1.33,.34-1.51,.52-1.36,.68-1.38,1.05-.93,1.41-.63Z"/>
      <path class="cls-1" d="M1389.09,2024.67l-.17,.86-.5,1.76-.59,1.28-.4,1.41-.37,1.56-.4,1.4-1.11,2.87-.59,1.28-.56,1.44-.4,1.4-.56,1.44-.75,1.3-.72,1.47-.75,1.31-1.34,2.58-.75,1.31-.78,1.15-3.76,4.71-1.13,1.05-1.29,1.08-1.61,1.14-1.77,1.17-1.35,.76-1.38,.6-1.6,.3-1.95,.21-2.02-.11-1.54-.21-1.28-.59-1.31-.75-1.43-1.39-1.46-1.55-.76-1.35-.85-1.83-.56-2.05-.3-1.6-.24-2.12-.21-1.95-.54-.23-.59,1.28-1.12,2.87-1.18,2.55-.75,1.31-.59,1.28-.75,1.3-.59,1.28-.94,1.18-.78,1.15-.94,1.17-.97,1.02-1.13,1.05-1.55,1.46-2.19,1.58-2.41,1.29-1.99,.88-2.82,.87-1.63,.15-1.99,.05-2.02-.11-1.54-.21-1.37-.24-1.27-.59-2.61-1.5-1.02-.97-1.05-1.13-1.3-1.58-1.42-2.22-.88-1.99-.46-1.57-.72-2.02-.65-2.53-.4-2.09-.15-1.63-.24-2.12-.05-1.99,.17-1.7,.11-2.02,.08-2.18,.21-1.54,.4-1.41,.21-1.53,2.38-8.43,.56-1.44,.59-1.28,.56-1.43,1.17-2.55,.75-1.3,1.63-2.8,.52-.76,.88-1.5,1.88-2.35,1.17-1.72,1.52-1.62,1.91-2.19,1.13-1.05,.97-1.02,1.32-.91,1.77-1.17,1.58-1.3,1.45-1.11,1.8-1.01,1.83-.85,1.51-.79,3.95-1.09,1.41-.44,1.92-.37,3.24-.45,3.75-.38,3.65-.03,1.5,.05,1.86,.14,6.96,1.66,1.31,.75,1.27,.59,1.31,.75,1.18,.94,.66,1.7-.21,2.37-1.4,2.26-1.55,1.46-1.25,.4-1.38-.24-1.47-.72-1.59-.53-1.44-.56-1.21-.27-1.41-.4-1.57-.37-1.34-.08-2.85-.12-1.7-.18h-1.66s-3.21,.6-3.21,.6l-1.09,.37-1.57,.47-1.99,.88-3.73,2.21-1.45,1.11-1.42,1.27-.97,1.02-1.13,1.05-.97,1.02-.94,1.18-1.07,1.37-.52,.76-.88,1.5-.75,1.31-.59,1.28-1.5,2.61-.59,1.27-.56,1.44-1.19,4.21-.56,1.44-.41,3.07-.37,1.56-.4,1.4-.14,4.51-.18,1.7,.35,4.42,.86,4.49,.47,1.57,.76,1.35,.89,1.16,1.05,1.13,1.14,.78,1.57,.37,1.99-.05,2.05-.56,1.35-.76,2.32-1.77,1.88-2.35,.78-1.15,.94-1.18,.75-1.3,.59-1.28,.75-1.31,.59-1.27,1.31-2.74,.59-1.28,1.67-4.31,.62-1.95,.73-2.3,.46-1.08,1.13-4.54,.37-1.56,.11-1.18,.37-1.56,.24-1.38,.21-1.54,.3-1.88,.35-3.39,.3-1.88,.18-1.7,.69-1.63,1.45-1.11,1.38-.6,1.47-.12,1.5,.05,2.81,.79,1.43,.56,.82,.84,.44,1.41-.24,1.38-.04,1.5-.21,1.54-.09,3.01-.21,1.54-.08,1.34-.41,3.07v1.66s0,.99,0,.99l-.11,2.02-.05,1.5-.12,2.85-.11,2.02v1.67s0,1.83,0,1.83l-.02,2.5,.04,2.82,.3,2.44,.56,2.05,1.05,1.13,1.76,.5,2.44-.3,1.8-1.01,1.29-1.08,1.94-2.03,.91-1.34,1.53-2.45,1.5-2.61,1.17-2.55,.56-1.44,.72-1.47,.14-1.02,1.83-4.34,.4-1.4,.56-1.44,1.98-7.02,1.29-1.08,1.99-.05,1.59,1.36,.47,1.57-.37,1.57-.5,1.76Z"/>
      <path class="cls-1" d="M1424.48,1965.09l-.41,1.63-.58,2.86-.32,1.95-.64,2.03-.49,1.32-.45,1.47-.49,1.32-.41,1.63-.38,1.12-.45,1.47-.72,1.72-.99,1.96-1.04,1.8-.42,.96-.76,1.56-1.5,2.6-.65,1.36-1.23,2.36-.85,1.24-.92,1.6-1.39,1.73-1.81,2.69-1.05,1.13-2.87,3.14-.98,.77-1.05,1.13-1.35,1.89-.72,1.72-.29,1.43,.15,1.82,.29,2.96,.25,.95,.11,1.66,.07,1.5,.27,1.62,.89,3.31,.39,2.09,.85,3.15,.78,1.65,.41,.9,.74,1.49,1.01,1.25,.97,1.09,1.24,.85,1.47,.45,1.39,.13,1.66-.11,2.68-.72,1.22-.5,1.29-.86,1.68-1.3,1.48-1.41,1.01-1.28,1.24-1.68,1.04-1.8,1.42-2.24,.96-1.44,.61-1.52,.42-.96,.61-1.52,.33-1.27,.56-1.67,.42-.96,.56-1.67,.62-2.7,.45-1.47,.56-1.67,.41-1.63,.36-1.79,.87-2.43,1.24-1.69,2.13-.23,1.69,1.24,.42,1.58-.09,1.55-.29,1.43-.45,1.47-.25,1.59-.29,1.43-.13,1.39-.45,1.47-.33,1.27-.45,1.47-.56,1.67-.1,.87-.41,1.63-.61,1.52-.98,2.63-.72,1.72-.46,.8-.72,1.72-.65,1.36-.84,1.91-1.08,1.64-.81,1.4-.73,1.04-.85,1.24-1.21,1.17-1.09,.97-1.25,1.01-1.09,.97-1.13,.81-1.25,1.01-1.72,1.14-2.98,1.48-1.85,.67-1.78,.31-.95,.26-1.62,.27-1.5,.07-1.39-.13-1.55-.09-1.43-.29-1.47-.45-1.36-.65-1.2-.69-1.24-.85-.97-1.09-1.01-1.25-.81-1.13-.7-1.33-.86-1.29-.54-1.38-.74-1.49-.25-.95-.78-1.65-.54-1.38-.38-1.42-.22-1.46-.27-1.62-.26-.95-.39-2.09-.46-3.59-.35-1.93-.38-1.42-.07-1.5-.11-1.66-.3-5.5-.04-2.02-.29-2.96,.1-.87-.04-2.02,.06-1.03v-2.53s-.08-2.18-.08-2.18l-.07-1.5-.04-2.02,.04-2.38-.14-1.15,.04-2.38,.08-2.22,.18-1.23,.08-2.22,.12-2.06,.25-1.59,.47-4.52,.06-1.03,.35-2.46,.42-2.82,.28-2.1,.25-1.59,.22-1.07,.41-1.63,.38-2.98,.36-1.79,.41-1.63,.56-1.67,.71-2.39,1.29-3.39,.61-1.52,1.5-2.6,.42-.96,.81-1.4,.89-1.08,2.06-2.41,1.44-1.57,1.52-1.25,1.29-.86,1.33-.7,2.84-.76,1.66-.11,.99-.1,1.7,.05,1.43,.29,2.72,1.3,1.13,1.05,1.53,1.28,1.3,1.68,1.01,1.25,1.14,1.72,.87,1.96,.76,2.84,.83,4.34,.13,3.01-.13,1.39,.11,1.66-.24,4.12-.29,1.43-.09,1.54Zm-24.98,11.46l-.42,7.21,.07,1.5-.09,1.55-.08,2.22-.21,3.61-.05,1.7,.1,.99-.05,1.71-.09,1.54,.11,1.66,.57,.86,.78-.88,1.24-1.69,4.72-8.2,.49-1.32,.45-1.47,.56-1.67,.46-.8,.56-1.67,.72-1.72,.68-1.87,.64-2.03,.45-1.47,.33-1.27,.49-1.32,.58-2.86,.21-1.75,.22-1.07,.21-1.75,.25-1.59-.07-1.5,.09-1.54v-1.86s.17-1.9,.17-1.9v-1.86s.17-1.9,.17-1.9l-.27-1.62-.23-1.46-.81-3-.66-1.18-.81-1.13-1.32-.49-1.35,.02-1.33,.7-1.12,1.49-.85,1.24-.53,1.16-.49,1.32-.45,1.47-.94,2.79-.41,1.63-.25,1.59-.29,1.43-.25,1.59-.29,1.43-.25,1.59-.13,1.39-.16,1.9-.31,2.62-.25,1.59-.52,4.36Z"/>
      <path class="cls-1" d="M1431.09,1955.5l.38-1.49,.89-1.49,.99-1.18,1.4-.97,1.3-.76,1.55-.5,1.5-.14,1.49,.38,1.39,.58,1.44,.74,1.18,.99,.92,1.25,.61,1.35,.5,1.55-.02,1.55-.38,1.49-.53,1.54-.79,1.28-.94,1.33-1.2,1.07-1.45,.81-1.45,.29-1.65,.19-2.99-.75-1.28-.79-1.18-.99-.76-1.3-.61-1.35-.3-1.45-.19-1.65,.17-1.6Zm40.39,39.63l.55,1.71-.02,1.55-.44,2.88-.65,2.78-.33,1.65-.22,1.44-.48,1.7-.17,1.08-.33,1.65-.38,1.49-.43,1.34-.53,1.54-.43,1.34-.75,2.99-1.74,4.16-1.21,2.62-.74,1.44-.58,1.39-.79,1.28-2.57,3.74-.84,1.13-1.2,1.07-1.25,.92-1.14,.71-2.6,1.52-2.64,.85-1.76,.39-1.39-.06h-1.55s-1.49-.39-1.49-.39l-1.39-.58-1.13-.84-1.18-.99-1.07-1.2-.71-1.14-.76-1.3-.61-1.35-.45-1.4-.59-2.9-.14-1.5,.02-1.55-.28-3,.07-1.39-.14-1.5,.02-1.55,.07-1.39,.05-4.64-.25-1.29-.14-1.5,.02-1.55-.14-1.5-.09-1.34,.03-3.1-.13-2.02-.19-2.17,.03-3.1-.14-1.5-.04-1.19-.14-1.5,.12-1.75,.07-1.39-.42-4.5,.02-1.55-.14-2.01-.03-2.22,.02-1.55,.22-1.44,.68-1.08,1.2-1.07,1.19-.56,1.6-.34,2.9-.59,2.79,.13,1.13,.84,.45,1.4,.14,1.5,.13,2.02,.18,2.17-.03,3.1,.09,1.34,.14,1.5,.03,1.71,.14,2.01-.05,5.16,.14,1.5,.03,2.22-.04,3.61,.14,1.5,.09,1.34,.14,1.5-.24,2.99,.14,1.5,.16,4.23-.03,3.1,.14,1.5,.18,2.17,.34,2.64,.54,2.74,1.06,2.23,1.79,1.31,1.86-.08,1.35-.61,1.2-1.07,.84-1.13,.94-1.33,3.47-6.78,.58-1.39,.43-1.34,.53-1.54,.75-2.99,.58-1.39,.32-1.13,.38-1.49,.48-1.7,.17-1.6,.39-3.04,.66-4.33,.38-1.49,1.15-1.23,2.12-.34,1.74,1.15Z"/>
      <path class="cls-1" d="M1515.45,1978.48l.62,1.69-.05,1.76-.59,4.05-.1,1.6-.16,1.45-.63,3.01-.22,1.3-.31,1.51-.38,2.75-.22,1.3-.41,1.72-1.05,2.82-.31,1.51-.37,1.35-.52,1.41-1.83,3.98-1.52,2.48-1.46,2.63-.89,1.37-1.34,1.54-1.55,1.44-1.15,1.12-1.21,.97-1.11,.76-1.32,.66-4.29,1.58-1.44,.36-1.49,.2-2.06,.07-1.97-.14-1.51-.31-2.82-1.04-1.16-.79-1.22-.94-2.13-2-.91-1.05-.97-1.21-.82-1.27-.76-1.11-.51-1.38-.66-1.32-.51-1.38-.72-1.47-.51-1.38-1.07-4.3-.51-1.38-1.78-7.17-.2-1.49-.36-1.43-.41-2.98-.28-2.16-.22-2.01-.2-1.49-.05-1.55-.2-1.49-.05-1.55-.2-1.49-.37-1.95-.12-2.22-.1-3.1-.45-1.22-.74-.6-1.18,.09-1.28,.3-1.64,.26-1.76-.05-1.58-.98-.81-1.26-.72-1.47-.15-1.34,.22-1.3,.79-1.16,1.93-.89,2.35-.7,2.3-.85,1.36-1.03,.22-1.3-.26-1.64-.15-1.34-.05-1.55,.16-1.45,.1-1.6v-1.4s-.09-3.09-.09-3.09l-.41-2.98-.05-1.55,.16-1.45-.1-3.1v-1.4s.11-1.6,.11-1.6l-.05-1.55v-1.4s-.04-1.55-.04-1.55l.16-1.45,.1-1.6-.15-1.34-.05-1.55,.1-1.6,.37-1.36,.94-1.22,1.26-.82,1.59-.41,1.95-.37,2.16-.28,1.66,.26,1.62,.62,1.08,1.51,.2,1.49-.03,2.27-.13,2.48-.03,2.27,.11,1.7,.03,1.03,.11,1.7,.18,5.67v1.39s.04,1.55,.04,1.55l.12,2.22-.07,2.64,.12,3.61,.2,1.49-.16,1.45v1.4s.39,1.07,.39,1.07l1.2,.43,1.8-.32,1.53-.57,2.55-1.12,2.09-.95,4.75-1.75,2.05-.58,1.41,.52,.93,1.57,.74,1.99,.05,1.55-.37,1.35-.79,1.16-1.21,.97-1.26,.82-1.47,.72-4.08,1.68-1.68,.62-1.43,.36-5.67,2.1-.69,.95v1.39s.06,2.06,.06,2.06l.29,2.68,.35,2.83,.14,2.73,.35,2.83,.29,2.68,.33,2.31,.19,.97,.33,2.31,.16,1.85,.11,1.7,.41,2.98,.53,1.89,.43,2.1,.71,2.87,1.58,4.29,1.04,1.88,.99,1.72,.97,1.21,1.12,1.15,1.16,.79,2.08,.45,2.48,.13,1.8-.32,1.53-.57,1.57-.93,3-3.2,2.93-5.26,.67-1.47,.43-1.2,.79-2.56,1.08-3.19,.37-1.35,.16-1.45,.31-1.51,.47-1.56,.37-1.35,.31-1.51,.16-1.45-.05-1.55,.2-1.81,.31-1.51,.35-1.87,1.38-1.9,2.1-.43,1.79,1.08Z"/>
      <path class="cls-1" d="M1586.65,1946.17l.9,1.56-.05,1.46,.09,1.76-.11,3.28-.14,2.04-.28,1.74-.14,2.04v1.97s.02,1.61,.02,1.61l-.4,3.06-.25,1.01-.13,1.67-.2,1.53-.35,1.6-.43,1.81-.51,2.03-.35,1.59-.63,1.37-1.05,2.81-.33,1.23-.56,1.51-1.18,2.52-.63,1.37-.71,1.58-1.77,2.79-.62,1-2.31,3.57-2.06,2.56-1.29,1.49-.63,1.37-.48,1.3,.33,3.08,.31,1.47,.5,4.62,.23,1.69,.17,1.54,.38,1.62,.22,2.05,.07,2.12,.02,1.61,.1,1.39-.13,1.68,.11,1.03-.13,1.68-.1,2.92-.27,1.38-.83,2.89-.48,1.3-.63,1.37-.78,1.43-1.01,1.72-1.23,1.64-1,1.35-1.51,1.41-1.87,1.4-1.64,1.11-4.01,1.83-2.58,.64-2.05,.22-1.76,.09-2.03-.51-2.38-.88-1.87-.94-1.42-1.14-1.26-1.58-1.11-1.64-.61-1.34-.46-1.4-.31-1.47-.25-1.32-.31-1.47-.1-1.39-.02-1.61,.14-2.04,.29-2.11,.5-1.66,1.45-3.89,.85-1.29,.93-1.5,2.72-4.65,.85-1.29,1.15-1.42,.54-.79,3.04-3.55,.75-.71,1.52-1.77,1.44-1.56,1-1.35,1.29-1.49,.79-1.8,.2-1.53-.17-1.54-.25-1.32-.32-1.47-.17-1.54-.1-1.39-.17-1.54-.41-2.86-.17-1.54-.31-1.47-.44-4.11-.38-1.62-.31-1.47-.15,.07-.27,1.38-.41,1.45-.27,1.38-.42,1.45-.53,2.76-.41,1.45-.5,1.66-.96,2.6-.94,1.87-.72,1.95-.78,1.43-.7,1.22-1.06,1.21-1.08,1.57-1.37,1.71-1.13,1.06-2.4,1.82-1.71,.96-1.79,1.18-1.4,.46-1.77,.45-1.47,.31-1.75,.09h-1.97s-1.59-.34-1.59-.34l-1.45-.42-1.29-.85-1.49-1.29-1.41-1.51-.83-1.42-.82-1.78-1.03-1.86-.68-1.48-.67-1.85-.59-2.07-.53-1.55-.38-1.62-.18-1.17-.38-1.62-.46-1.4-.17-1.54-.32-1.47-.17-1.54-1.26-5.89-.1-1.39-.33-3.08-.09-1.75-.17-1.54-.18-1.18-.33-3.08-.1-1.39-.24-1.69-.46-1.4-.1-1.39-.33-3.08-.31-1.47-.17-1.54-.95-4.41-.1-1.39,.34-1.23,1.06-1.2,1.27-.76,1.42-.83,1.34-.61,1.55-.53,1.32-.25,1.53,.2,1.07,.77,.54,1.19,.46,1.4,.31,1.47,.17,1.54,.94,4.41,.25,1.32,.31,1.47,.17,1.54,.95,4.41,.25,1.32,.32,1.47,.02,1.61,.44,2.13,.37,1.99,.63,2.94,.33,3.08,.46,1.4,.32,1.47,.25,1.32,.17,1.54,.31,1.47,.38,1.62,.26,.96,.3,1.83,.32,1.47,.38,1.62,.46,1.4,1.29,2.82,.76,1.27,1.21,1.06,1.3,.48,1.54-.17,1.47-.32,1.4-.46,1.2-.91,1.13-1.06,.85-1.29,.63-1.37,.78-1.43,.71-1.58,.32-.87,.94-1.87,.96-2.6,.42-1.45,.27-1.38,.43-1.81,.1-.95,.28-1.74,.35-1.6,.27-1.38,.13-1.67,.05-1.46-.17-1.54,.13-1.67,.25-1.01-.04-3.21-.1-1.39-.17-1.54v-2.34s-.05-2.49-.05-2.49l-.29-2.2-.31-1.47-.17-1.54-.32-1.47-.1-1.39-.02-1.61-.15-1.9-.37-1.98-.23-1.69-.63-2.94-.3-1.84-.37-1.99-.23-1.69,.05-1.46,.48-1.3,1.13-1.06,1.27-.76,2.82-1.29,1.62-.38,1.54-.17,1.53,.2,.92,.83,.61,1.34,.46,1.4,.17,1.54,.2,2.78,.17,1.54,.58,2.07,.37,1.99,.24,1.69,.37,1.99,.15,1.9,.23,1.69,.37,1.98,.29,2.2,.63,2.94,.17,1.54,.37,1.99,.22,2.05,.31,1.47,.17,1.54,.32,1.47,.37,1.99,.44,2.13,.17,1.54,.25,1.32,.17,1.54,.37,1.98,.22,2.05,.38,1.62,.44,2.13,.52,1.92,.63,2.94,.23,1.69,.11,1.03,.23,1.69,.68,1.48,1.09,.04,1.66-1.48,1.23-1.64,1-1.35,.7-1.22,.78-1.43,.56-1.52,.47-.93,.64-1.73,.63-1.37,.48-1.3,.63-1.37,.41-1.45,.27-1.38,.83-2.89,.48-1.3,.27-1.38,.35-1.59,.2-1.53,.25-2.99,.4-3.05,.14-4.01,.13-1.68,.2-1.53,.15-4.38,.93-1.5,1.85-.67,1.87,.94Zm-26.17,71.05l-.52-1.92-.95-.1-1.21,1.27-.85,1.29-.78,1.44-.7,1.22-2.3,3.21-.63,1.37-.78,1.43-1.29,3.46-.6,2.61-.38,2.69,.28,2.57,.67,1.85,.91,1.2,1.95,.73h2.34s1.93-.88,1.93-.88l1.28-1.12,1.69-2.57,.5-1.66,.2-1.53,.42-1.45,.2-1.53,.06-1.82-.02-1.61-.03-1.24-.23-1.69-.22-2.05-.43-2.5-.49-2.65Z"/>
    </g>
  </g>
  <g>
    <path class="cls-1" d="M2340.43,1453.02h-715.14c-3.03,0-5.42-2.44-5.42-5.44s2.39-5.44,5.42-5.44h715.14c3.03,0,5.42,2.44,5.42,5.44s-2.39,5.44-5.42,5.44Z"/>
    <path class="cls-1" d="M732.3,1453.02H17.21c-3,0-5.45-2.44-5.45-5.44s2.45-5.44,5.45-5.44H732.3c3,0,5.44,2.44,5.44,5.44s-2.44,5.44-5.44,5.44Z"/>
  </g>
  <g>
    <path class="cls-1" d="M2340.43,863.51h-443.09c-3.03,0-5.42-2.44-5.42-5.44s2.39-5.44,5.42-5.44h443.09c3.03,0,5.42,2.44,5.42,5.44s-2.39,5.44-5.42,5.44Z"/>
    <path class="cls-1" d="M460.25,863.51H17.21c-3,0-5.45-2.44-5.45-5.44s2.45-5.44,5.45-5.44H460.25c3,0,5.44,2.44,5.44,5.44s-2.44,5.44-5.44,5.44Z"/>
  </g>
</svg>