<?xml version="1.0" encoding="utf-8"?>
<!-- Generator: Adobe Illustrator 27.0.0, SVG Export Plug-In . SVG Version: 6.00 Build 0)  -->
<svg version="1.1" id="Layer_1" xmlns="http://www.w3.org/2000/svg" xmlns:xlink="http://www.w3.org/1999/xlink" x="0px" y="0px"
	 viewBox="0 0 500 350" style="enable-background:new 0 0 500 350;" xml:space="preserve">
<style type="text/css">
	.st0{fill:#2B2E33;stroke:#000000;stroke-miterlimit:10;}
	.st1{fill:#EE2D7B;}
	.st2{fill:#673090;}
	.st3{fill:url(#SVGID_1_);}
	.st4{fill:#FFFFFF;}
	.st5{font-family:'IBMPlexMono-SemiBold';}
	.st6{font-size:29.48px;}
	.st7{fill:#FAFAFD;}
	.st8{font-size:13.266px;}
</style>
<rect class="st0" width="500" height="350"/>
<path class="st1" d="M422.9,90.9c-3,0-6.1,1.6-7.8,4.7l-43.7,79c-1.6,2.9-4.5,4.6-7.7,4.6h-40.9c-3,0-4.9-3.4-3.4-6.2l42.9-77.5
	c1.7-3.1,4.8-4.7,7.8-4.7H422.9"/>
<path class="st2" d="M473.6,173l-42.9-77.5c-1.7-3.1-4.8-4.7-7.8-4.7s-6.1,1.6-7.8,4.7l-18.6,33.7l25.1,45.3
	c1.6,2.9,4.5,4.6,7.7,4.6h40.9C473.2,179.2,475.1,175.8,473.6,173z"/>
<linearGradient id="SVGID_1_" gradientUnits="userSpaceOnUse" x1="376.4433" y1="178.5701" x2="416.4696" y2="178.5701">
	<stop  offset="0" style="stop-color:#EE2D7B"/>
	<stop  offset="1" style="stop-color:#673090"/>
</linearGradient>
<path class="st3" d="M416.5,177.8h-11.2c-4.5,0-8.1-3.8-8.1-8.5v-20.8h-1.5v20.8c0,4.7-3.6,8.5-8.1,8.5h-11.2v1.5h11.2
	c4.5,0,8.1,3.8,8.1,8.5v20.8h1.5v-20.8c0-4.7,3.6-8.5,8.1-8.5h11.2V177.8z"/>
<g>
	<text transform="matrix(0.9581 0 0 1 317.5084 209.8383)" class="st4 st5 st6">Alex</text>
</g>
<g>
	<text transform="matrix(0.9581 0 0 1 409.0836 209.8383)" class="st4 st5 st6">Adam</text>
</g>
<g>
	<text transform="matrix(0.9581 0 0 1 362.1388 229.891)" class="st7 st5 st8">est. 2002</text>
</g>
</svg>