<svg width="22" height="22" viewBox="0 0 22 22" fill="none" xmlns="http://www.w3.org/2000/svg">
<path d="M20.7134 18.4201C19.5397 19.6625 18.1451 20.571 16.5295 21.1406C14.9138 21.7152 13.2098 22 11.4174 22C9.70357 22 8.14196 21.7299 6.7375 21.1848C5.33304 20.6446 4.12991 19.8884 3.13795 18.921C2.14107 17.9536 1.37009 16.7946 0.820089 15.4442C0.270089 14.0937 0 12.6205 0 11.0246C0 9.44821 0.299554 7.98973 0.898661 6.64911C1.49777 5.30848 2.31295 4.14464 3.34911 3.15759C4.38527 2.17054 5.5933 1.39955 6.98304 0.834821C8.36295 0.279911 9.84598 0 11.4174 0C12.7728 0 14.0888 0.196429 15.3607 0.589286C16.6375 0.982143 17.767 1.57634 18.754 2.36205C19.7411 3.15268 20.5268 4.13482 21.1161 5.3183C21.7054 6.50179 22 7.89152 22 9.4875C22 10.671 21.8379 11.717 21.5089 12.6205C21.1799 13.529 20.7429 14.2853 20.1929 14.8991C19.6429 15.5129 19.0192 15.9696 18.3121 16.2741C17.6049 16.5786 16.8634 16.7308 16.0875 16.7308C15.292 16.7308 14.6536 16.5442 14.1723 16.171C13.696 15.7978 13.4554 15.3214 13.4554 14.7518H13.308C13.0085 15.2232 12.5518 15.675 11.933 16.0973C11.3143 16.5196 10.558 16.7357 9.65937 16.7357C8.30402 16.7357 7.25804 16.2938 6.52143 15.4049C5.78482 14.5161 5.41652 13.367 5.41652 11.9429C5.41652 11.1129 5.55402 10.2978 5.83393 9.4875C6.11384 8.67723 6.51161 7.96027 7.02723 7.32679C7.54286 6.69821 8.16161 6.1875 8.87857 5.80446C9.59554 5.42143 10.3911 5.22991 11.2701 5.22991C12.0263 5.22991 12.6647 5.38705 13.1853 5.70134C13.7009 6.01562 14.0397 6.40357 14.2018 6.85536H14.2312L14.4719 5.67188H17.1335L15.9598 11.2652C15.9205 11.5402 15.8665 11.8446 15.7978 12.1835C15.729 12.5174 15.6946 12.8317 15.6946 13.1312C15.6946 13.4652 15.7585 13.7451 15.8911 13.9759C16.0187 14.2018 16.2741 14.3147 16.6522 14.3147C17.4281 14.3147 18.0714 13.9022 18.5821 13.0723C19.0879 12.2424 19.3433 11.1326 19.3433 9.73304C19.3433 8.54955 19.142 7.49866 18.7442 6.58527C18.3464 5.66696 17.7915 4.90089 17.0844 4.27723C16.3772 3.65848 15.5326 3.18705 14.5603 2.87277C13.583 2.55848 12.5174 2.40134 11.3634 2.40134C10.1062 2.40134 8.95714 2.62232 7.91116 3.06429C6.86518 3.50625 5.97143 4.12009 5.23482 4.89598C4.49821 5.67679 3.92366 6.59018 3.51607 7.64598C3.10357 8.69687 2.89732 9.83616 2.89732 11.0589C2.89732 12.3603 3.11339 13.5339 3.54062 14.5799C3.96786 15.6259 4.57187 16.5147 5.34777 17.2562C6.12366 17.9978 7.05179 18.5625 8.12723 18.9554C9.20268 19.3482 10.3911 19.5446 11.6826 19.5446C13.2982 19.5446 14.6879 19.2893 15.8518 18.7737C17.0156 18.2629 18.0862 17.5509 19.0634 16.6424L20.7134 18.4201ZM11.3585 7.66071C10.8821 7.66071 10.4598 7.79821 10.1013 8.07321C9.74286 8.34821 9.43839 8.69688 9.18795 9.12411C8.9375 9.54643 8.75089 10.0179 8.6183 10.5286C8.49062 11.0393 8.42188 11.5353 8.42188 12.0067C8.42188 12.2424 8.44643 12.4929 8.49554 12.7629C8.54464 13.0281 8.64286 13.2737 8.79509 13.5045C8.94241 13.7304 9.13884 13.917 9.37946 14.0643C9.62009 14.2116 9.93929 14.2853 10.3371 14.2853C10.8772 14.2853 11.3339 14.1527 11.7121 13.8875C12.0902 13.6223 12.3996 13.2884 12.6402 12.8808C12.8808 12.4781 13.0527 12.0362 13.1656 11.5647C13.2737 11.0933 13.3277 10.6562 13.3277 10.2634C13.3277 9.94911 13.2982 9.63973 13.2393 9.33036C13.1804 9.02589 13.0772 8.75089 12.925 8.50045C12.7777 8.25491 12.5714 8.05357 12.3112 7.89643C12.0558 7.73929 11.7366 7.66071 11.3585 7.66071Z" fill="#03C4E3"/>
</svg>
