<svg width="18" height="18" viewBox="0 0 18 18" fill="none" xmlns="http://www.w3.org/2000/svg">
<path d="M17.5747 4.4801C17.4818 4.23989 17.2928 3.98409 17.1531 3.76008C15.4812 0.992022 11.828 0 8.87835 0C4.92968 0 0.580645 1.82404 0 5.58392V6.35214C0 6.38414 0.015968 6.67215 0.0389035 6.81615C0.364355 8.60799 2.41665 10.5122 3.94955 12.3041C5.59858 14.2239 7.30974 16.1124 9.00552 18C10.0507 16.7682 11.0924 15.5201 12.114 14.3201C12.3924 13.9679 12.7153 13.6159 12.994 13.2799C13.1798 13.0561 13.5345 12.8323 13.6968 12.6241C15.3456 10.5446 18 8.44819 18 6.38414V5.53612C18 5.31232 17.5973 4.5283 17.5747 4.4801ZM8.95065 8.33619C7.78994 8.33619 6.51948 7.93638 5.89239 6.83215C5.7989 6.65635 5.80645 6.30414 5.80645 6.27194V5.77593C5.80645 4.3683 7.54142 3.72808 9.05081 3.72808C10.9089 3.72808 12.3463 4.75231 12.3463 6.03233C12.3463 7.31236 10.8087 8.33619 8.95065 8.33619Z" fill="black"/>
</svg>
