<svg width="18" height="18" viewBox="0 0 18 18" fill="none" xmlns="http://www.w3.org/2000/svg">
<path d="M9 0C4.02938 0 0 4.02938 0 9C0 13.9706 4.02938 18 9 18C13.9706 18 18 13.9706 18 9C18 4.02938 13.9706 0 9 0ZM5.46656 6.1875H12.5166C12.8906 6.1875 12.6975 6.6675 12.4941 6.79031C12.2906 6.91219 9.47531 8.61562 9.36937 8.67844C9.26344 8.74125 9.12844 8.77219 8.99156 8.77219C8.85985 8.77488 8.72979 8.74253 8.61469 8.67844L5.48906 6.79031C5.28562 6.6675 5.09344 6.1875 5.46656 6.1875ZM12.75 11.3437C12.75 11.5406 12.5137 11.8125 12.3337 11.8125H5.66625C5.48625 11.8125 5.25 11.5406 5.25 11.3437V7.92469C5.25 7.83844 5.24812 7.72687 5.41125 7.82156L8.61469 9.71063C8.72774 9.77974 8.8593 9.81246 8.99156 9.80437C9.12844 9.80437 9.22781 9.79406 9.36937 9.71063L12.5887 7.8225C12.7519 7.72688 12.75 7.83937 12.75 7.92562V11.3437Z" fill="black"/>
</svg>
