<svg width="18" height="18" viewBox="0 0 18 18" fill="none" xmlns="http://www.w3.org/2000/svg">
<path d="M13.6178 11.3289L12.1123 12.1751C11.9316 12.2765 11.7226 12.3162 11.5172 12.2881C11.3118 12.2599 11.1213 12.1655 10.9748 12.0192L5.95008 7.00644C5.80354 6.86016 5.70896 6.67009 5.68075 6.46521C5.65254 6.26032 5.69226 6.05186 5.79385 5.87158L6.64198 4.36969C6.79464 4.09938 6.85441 3.78665 6.81216 3.47926C6.76991 3.17187 6.62795 2.88674 6.40799 2.66741L4.1516 0.416367C4.01935 0.284367 3.86233 0.179655 3.6895 0.108213C3.51668 0.0367712 3.33144 0 3.14436 0C2.95729 0 2.77205 0.0367712 2.59922 0.108213C2.42639 0.179655 2.26937 0.284367 2.13712 0.416367L1.11261 1.43774C0.513498 2.03541 0.131879 2.81575 0.028428 3.65468C-0.0750234 4.4936 0.105632 5.34295 0.541669 6.06767L1.05573 6.9224C3.68091 11.2872 7.38628 14.9059 11.8164 17.4313L11.9179 17.4895C13.4313 18.3521 15.3011 18.1007 16.5128 16.8926L17.5826 15.8253C17.715 15.6933 17.8199 15.5367 17.8915 15.3643C17.9631 15.1919 18 15.0071 18 14.8204C18 14.6338 17.9631 14.449 17.8915 14.2766C17.8199 14.1042 17.715 13.9475 17.5826 13.8156L15.3248 11.5631C15.105 11.3434 14.8191 11.2015 14.5108 11.1592C14.2025 11.1169 13.8889 11.1766 13.6178 11.3289Z" fill="black"/>
</svg>
