<svg width="24" height="20" viewBox="0 0 24 20" fill="none" xmlns="http://www.w3.org/2000/svg">
<path d="M16.5 0C14.97 0 13.65 0.873908 12.84 2.19725C14.19 3.54557 15 5.39326 15 7.51561C15 8.2397 14.91 8.88889 14.73 9.53808C15.3 9.81273 15.87 10.0125 16.5 10.0125C18.99 10.0125 21 7.76529 21 5.01873C21 2.27216 18.99 0.0249688 16.5 0.0249688V0ZM7.5 2.49688C5.01 2.49688 3 4.74407 3 7.49064C3 10.2372 5.01 12.4844 7.5 12.4844C9.99 12.4844 12 10.2372 12 7.49064C12 4.74407 9.99 2.49688 7.5 2.49688ZM21.75 10.387C20.46 11.6604 18.69 12.4345 16.68 12.4844C17.49 13.4332 18 14.5818 18 15.8302V17.4782H24V13.3333C24 12.035 23.07 10.9114 21.75 10.362V10.387ZM2.25 12.8839C0.93 13.4332 0 14.5568 0 15.8552V20H15V15.8552C15 14.5568 14.07 13.4332 12.75 12.8839C11.4 14.2072 9.57 14.9813 7.5 14.9813C5.43 14.9813 3.6 14.1823 2.25 12.8839Z" fill="white"/>
</svg>
