<svg width="47" height="41" viewBox="0 0 47 41" fill="none" xmlns="http://www.w3.org/2000/svg">
<path d="M2 34.305V14.1144C2 11.8842 3.92517 10.0762 6.3 10.0762H7.375C8.72845 10.0762 10.0029 9.47781 10.815 8.46099L15.588 2.48457C15.8316 2.17953 16.214 2 16.62 2H30.38C30.7861 2 31.1684 2.17953 31.412 2.48457L36.185 8.46099C36.9971 9.47781 38.2716 10.0762 39.625 10.0762H40.7C43.0749 10.0762 45 11.8842 45 14.1144V34.305C45 36.5352 43.0749 38.3431 40.7 38.3431H6.3C3.92517 38.3431 2 36.5352 2 34.305Z" stroke="white" stroke-width="4" stroke-linecap="round" stroke-linejoin="round"/>
<path d="M23.4999 30.2667C28.2495 30.2667 32.0999 26.6508 32.0999 22.1905C32.0999 17.7302 28.2495 14.1143 23.4999 14.1143C18.7503 14.1143 14.8999 17.7302 14.8999 22.1905C14.8999 26.6508 18.7503 30.2667 23.4999 30.2667Z" stroke="white" stroke-width="4" stroke-linecap="round" stroke-linejoin="round"/>
</svg>
