<svg width="18" height="18" viewBox="0 0 18 18" fill="none" xmlns="http://www.w3.org/2000/svg">
<path d="M9 0C4.03043 0 0 4.03043 0 9C0 13.9696 4.03043 18 9 18C13.9696 18 18 13.9696 18 9C18 4.03043 13.9696 0 9 0ZM9.72391 16.3957C9.68478 16.3957 9.64565 16.3957 9.58696 16.4152V12.1696C10.6043 12.15 11.5239 12.1304 12.3652 12.0717C11.6217 14.3609 10.2326 15.887 9.72391 16.3957ZM8.27609 16.3957C7.74783 15.8674 6.37826 14.3413 5.63478 12.0717C6.45652 12.1304 7.39565 12.1696 8.41304 12.1696V16.4152C8.37391 16.4152 8.33478 16.3957 8.27609 16.3957ZM1.56522 9C1.56522 8.51087 1.62391 8.02174 1.70217 7.55217C2.13261 7.47391 2.95435 7.35652 4.1087 7.23913C4.01087 7.80652 3.95217 8.39348 3.95217 9.01956C3.95217 9.64565 4.01087 10.2326 4.08913 10.7804C2.95435 10.663 2.11304 10.5457 1.68261 10.4674C1.62391 9.97826 1.56522 9.48913 1.56522 9ZM5.14565 9C5.14565 8.33478 5.22391 7.7087 5.3413 7.12174C6.2413 7.06304 7.2587 7.00435 8.41304 7.00435V10.9957C7.27826 10.9761 6.2413 10.937 5.32174 10.8587C5.22391 10.2913 5.14565 9.66522 5.14565 9ZM9.70435 1.60435C10.2326 2.13261 11.5826 3.69783 12.3457 5.92826C11.5239 5.86957 10.6043 5.83043 9.58696 5.83043V1.58478C9.62609 1.58478 9.66522 1.60435 9.70435 1.60435ZM8.41304 1.58478V5.83043C7.39565 5.85 6.47609 5.86957 5.65435 5.92826C6.39783 3.69783 7.76739 2.13261 8.27609 1.60435C8.33478 1.60435 8.37391 1.58478 8.41304 1.58478ZM9.58696 10.9957V7.00435C10.7217 7.02391 11.7587 7.06304 12.6587 7.12174C12.7761 7.7087 12.8543 8.33478 12.8543 9C12.8543 9.66522 12.7957 10.2913 12.6783 10.8783C11.7783 10.937 10.7413 10.9761 9.58696 10.9957ZM13.8717 7.23913C15.0261 7.35652 15.8478 7.47391 16.2783 7.55217C16.3761 8.02174 16.4348 8.51087 16.4348 9C16.4348 9.48913 16.3761 9.97826 16.2978 10.4478C15.8674 10.5261 15.0457 10.6435 13.8913 10.7609C13.9891 10.1935 14.0283 9.60652 14.0283 8.98043C14.0283 8.39348 13.9696 7.78696 13.8717 7.23913ZM15.9261 6.3C15.3783 6.22174 14.5957 6.12391 13.5978 6.02609C13.1283 4.34348 12.3065 2.99348 11.6217 2.03478C13.5978 2.77826 15.163 4.34348 15.9261 6.3ZM6.37826 2.03478C5.67391 2.97391 4.87174 4.32391 4.40217 6.00652C3.42391 6.08478 2.6413 6.20217 2.07391 6.28043C2.83696 4.34348 4.42174 2.77826 6.37826 2.03478ZM2.07391 11.7C2.62174 11.7783 3.40435 11.8761 4.38261 11.9739C4.85217 13.6565 5.63478 15.0065 6.33913 15.9457C4.38261 15.1826 2.83696 13.637 2.07391 11.7ZM11.6609 15.9457C12.3652 15.0065 13.1478 13.6761 13.6174 11.9935C14.5957 11.9152 15.3783 11.7978 15.9261 11.7196C15.163 13.637 13.6174 15.1826 11.6609 15.9457Z" fill="black"/>
</svg>
