<?xml version="1.0" encoding="UTF-8" standalone="no"?>
<svg xmlns:rdf="http://www.w3.org/1999/02/22-rdf-syntax-ns#" xmlns="http://www.w3.org/2000/svg" height="488.88pt" width="912.51pt" version="1.1" xmlns:cc="http://creativecommons.org/ns#" xmlns:dc="http://purl.org/dc/elements/1.1/" viewBox="0 0 912.50702 488.88446">
<g transform="translate(90.521 -47.797)">
<path d="m528.73 187.5c-92.117 0.15194-181.41 34.818-257.56 85.027-40.996 26.438-75.669 60.929-110.46 94.761-28.52 26.664-63.649 44.65-99.909 58.269-8.0056 2.6896-0.21467 10.011 3.0902 13.345 24.65 26.231 51.988 50.115 83.407 67.935 95.979 57.704 205.08 96.428 317.44 102.26 59.486 2.14 119.82-2.2103 176.65-20.989 76.823-24.659 147.34-68.096 205.71-123.6 5.7722-6.3544 15.154 1.7864 22.616 2.4365 4.9263 0.30985 13.2 6.492 16.671 1.1278-6.3809-36.047-20.736-70.485-37.333-103-31.327-59.26-78.451-113.58-141.92-138.95-46.964-19.924-96.765-35.767-148.03-38.231-10.123-0.38111-20.257-0.46043-30.386-0.3858zm11.59 27.426c67.683-0.79999 133.61 21.519 191.92 55.046 4.6433 6.1151 3.916 16.347 5.7162 24.32 8.9166 71.747-17.853 146.14-69.929 196.44-41.919 41.41-98.438 70.067-157.88 70.375-38.784 2.8892-77.59-4.3354-113.15-20.228-64.38-27.999-115.24-85.379-133.94-153.32-5.654-21.965-11.429-44.71-9.2861-67.508 8.757-13.402 24.385-20.565 36.823-30.114 31.781-19.563 65.367-36.294 99.505-51.328 48.774-13.353 99.366-23.653 150.21-23.688z" transform="scale(.8)" fill="#fff"/>
<path d="m643.29 104.04 13.389 8.923c39.535 28.763 75.388 63.413 100.47 105.7 29.531 48.679 50.843 102.33 64.844 157.4l-0.9705 1.4562c-19.501-2.6374-39.214 2.6354-57.127 9.9851-67.398 25.649-123.85 71.944-187.36 105.06-39.86 23.584-85.618 34.452-130.97 41.171-63.51 5.5874-128.22 3.8861-190.42-11.073-62.69-15.04-123.24-38.81-180.28-68.84-22.558-14.05-44.889-28.56-67.812-41.95l-5.4835-3.66c-32.421-27.231-63.844-56.031-92.085-87.459l0.49357-0.74061c14.073-0.59571 27.715-6.8742 39.115-14.947 58.032-41.168 101.53-98.725 157.6-142.25 27.232-22.686 58.64-39.465 88.582-58.121 80.57-37.516 169.67-64.083 259.39-55.186 65.952 3.7312 131.44 20.853 188.63 54.52m-55.556 88.664c-46.166-22.944-96.122-40.218-148.09-41.663-110.26-3.7327-215.7 49.197-292.06 126.16-26.882 30.346-63.976 54.271-101.97 65.013 35.877 46.947 90.206 73.42 142.02 98.939 68.346 28.52 142.04 47.987 216.66 44.842 103.42 1.2653 202.08-47.364 275.55-117.99 9.3911 0.01 19.602 8.0041 28.735 6.7601-16.78-71.66-55.97-143.1-120.84-182.04z" fill="#949494"/>
<path d="m461.98 171.83c-1.5541 1.9692 1.3971 3.1996 2.9375 3.4277 8.5057 5.9638 15.474 14.05 21.383 22.535 12.803 18.714 18.988 41.729 17.162 64.285-1.1505 44.874-34.798 86.258-78.002 97.52-36.289 11.277-78.292 0.99325-105.28-25.879-36.591-34.398-42.349-96.001-13.394-136.91 2.0528-3.025 4.4876-5.7258 6.7012-8.6344-33.613 15.053-67.775 30.127-97.106 52.792-6.2858 4.5778-14.598 8.9511-16.182 17.311-0.36842 4.235 0.86645 8.4061 0.84439 12.662 4.3871 52.066 29.126 103.14 70.473 135.75 22.512 18.641 49.252 32.038 77.635 38.982 50.258 12.523 106.08 5.8488 149.99-22.412 15.173-10.149 30.048-21.014 42.397-34.571 39.074-41.898 59.434-101.85 49.988-158.78-0.9079-4.8791-1.7076-9.9788-3.2797-14.596-38.82-22.082-81.284-39.563-126.1-43.732l-0.16601 0.25195z" fill="#62718e"/>
<path d="m429.1 169.91c-39.814 0.551-79.054 9.1198-117.4 18.996-32.076 36.964-31.994 96.28-2.1816 134.54 14.979 19.019 36.298 33.073 59.941 38.577 20.221 4.9802 41.801 3.8344 61.443-3.0484 42.26-13.362 73.849-55.501 73.661-100 1.9406-32.126-13.132-64.604-38.481-84.309-1.0404-0.75453-4.7738-0.7659-2.9835-2.711-1.1985-0.77285-4.399-0.61749-6.4047-0.96218-9.1675-0.86422-18.381-1.1946-27.588-1.0846z" fill="#1a1812"/>
</g>
</svg>
