<svg fill="#000000" version="1.1" id="Capa_1" xmlns="http://www.w3.org/2000/svg" xmlns:xlink="http://www.w3.org/1999/xlink" viewBox="0 0 46.419 46.419" xml:space="preserve"><g id="SVGRepo_bgCarrier" stroke-width="0"></g><g id="SVGRepo_tracerCarrier" stroke-linecap="round" stroke-linejoin="round"></g><g id="SVGRepo_iconCarrier"> <g> <g> <path d="M12.317,27.654c1.828,0,3.31-1.482,3.31-3.311c0-0.504-0.114-0.982-0.316-1.411l3.821-4.305 c0.353,0.128,0.732,0.198,1.129,0.198c0.715,0,1.376-0.228,1.917-0.612l4.51,3.073c-0.017,0.134-0.027,0.27-0.027,0.409 c0,1.828,1.482,3.31,3.311,3.31c1.829,0,3.311-1.481,3.311-3.31c0-0.378-0.064-0.741-0.182-1.079l4.237-5.335 c0.521-0.655,0.411-1.608-0.245-2.128c-0.654-0.519-1.607-0.411-2.128,0.245l-4.067,5.12c-0.293-0.086-0.604-0.133-0.927-0.133 c-0.569,0-1.108,0.144-1.575,0.399l-4.825-3.287c-0.011-1.819-1.488-3.291-3.31-3.291c-1.828,0-3.31,1.482-3.31,3.31 c0,0.303,0.041,0.595,0.117,0.874L12.9,21.087c-0.189-0.034-0.384-0.052-0.583-0.052c-1.829,0-3.312,1.481-3.312,3.311 C9.005,26.174,10.488,27.654,12.317,27.654z"></path> <path d="M46.419,6.75c0-3.463-2.808-6.271-6.271-6.271H6.271C2.808,0.479,0,3.286,0,6.75V8.67c0,0.942,0.764,1.707,1.707,1.707 h0.085v21.707c0,2.555,2.078,4.659,4.634,4.659h3.472l-2.841,6.364c-0.455,1.02,0.003,2.207,1.022,2.66 c0.268,0.121,0.546,0.173,0.822,0.173c0.772,0,1.511-0.448,1.845-1.2l3.451-7.73c0.041-0.092,0.074-0.182,0.1-0.267h17.909 c0.026,0.085,0.06,0.175,0.1,0.267l3.45,7.736c0.335,0.752,1.074,1.194,1.846,1.194c0.274,0,0.555-0.058,0.821-0.177 c1.021-0.455,1.478-1.637,1.022-2.655l-2.842-6.365h3.473c2.556,0,4.635-2.104,4.635-4.659V10.377 c0.941,0,1.707-0.764,1.707-1.707L46.419,6.75L46.419,6.75z M40.445,31.111c0,0.932-0.729,1.707-1.66,1.707H7.718 c-0.932,0-1.659-0.773-1.659-1.707V10.377h34.386V31.111z"></path> </g> </g> </g></svg>