<svg width="22" height="21" viewBox="0 0 22 21" fill="none" xmlns="http://www.w3.org/2000/svg">
<path d="M11 0C4.92609 0 0 4.70217 0 10.5C0 16.2978 4.92609 21 11 21C17.0739 21 22 16.2978 22 10.5C22 4.70217 17.0739 0 11 0ZM11.8848 19.1283C11.837 19.1283 11.7891 19.1283 11.7174 19.1511V14.1978C12.9609 14.175 14.0848 14.1522 15.113 14.0837C14.2043 16.7543 12.5065 18.5348 11.8848 19.1283ZM10.1152 19.1283C9.46957 18.512 7.79565 16.7315 6.88696 14.0837C7.8913 14.1522 9.03913 14.1978 10.2826 14.1978V19.1511C10.2348 19.1511 10.187 19.1283 10.1152 19.1283ZM1.91304 10.5C1.91304 9.92935 1.98478 9.3587 2.08043 8.81087C2.60652 8.71956 3.61087 8.58261 5.02174 8.44565C4.90217 9.10761 4.83043 9.79239 4.83043 10.5228C4.83043 11.2533 4.90217 11.938 4.99783 12.5772C3.61087 12.4402 2.58261 12.3033 2.05652 12.212C1.98478 11.6413 1.91304 11.0707 1.91304 10.5ZM6.28913 10.5C6.28913 9.72391 6.38478 8.99348 6.52826 8.3087C7.62826 8.24022 8.87174 8.17174 10.2826 8.17174V12.8283C8.89565 12.8054 7.62826 12.7598 6.50435 12.6685C6.38478 12.0065 6.28913 11.2761 6.28913 10.5ZM11.8609 1.87174C12.5065 2.48804 14.1565 4.31413 15.0891 6.9163C14.0848 6.84783 12.9609 6.80217 11.7174 6.80217V1.84891C11.7652 1.84891 11.813 1.87174 11.8609 1.87174ZM10.2826 1.84891V6.80217C9.03913 6.825 7.91522 6.84783 6.91087 6.9163C7.81957 4.31413 9.49348 2.48804 10.1152 1.87174C10.187 1.87174 10.2348 1.84891 10.2826 1.84891ZM11.7174 12.8283V8.17174C13.1043 8.19457 14.3717 8.24022 15.4717 8.3087C15.6152 8.99348 15.7109 9.72391 15.7109 10.5C15.7109 11.2761 15.6391 12.0065 15.4957 12.6913C14.3957 12.7598 13.1283 12.8054 11.7174 12.8283ZM16.9543 8.44565C18.3652 8.58261 19.3696 8.71956 19.8957 8.81087C20.0152 9.3587 20.087 9.92935 20.087 10.5C20.087 11.0707 20.0152 11.6413 19.9196 12.1891C19.3935 12.2804 18.3891 12.4174 16.9783 12.5543C17.0978 11.8924 17.1457 11.2076 17.1457 10.4772C17.1457 9.79239 17.0739 9.08478 16.9543 8.44565ZM19.4652 7.35C18.7957 7.2587 17.8391 7.14457 16.6196 7.03043C16.0457 5.06739 15.0413 3.49239 14.2043 2.37391C16.6196 3.2413 18.5326 5.06739 19.4652 7.35ZM7.79565 2.37391C6.93478 3.46957 5.95435 5.04457 5.38043 7.00761C4.18478 7.09891 3.22826 7.23587 2.53478 7.32717C3.46739 5.06739 5.40435 3.2413 7.79565 2.37391ZM2.53478 13.65C3.20435 13.7413 4.16087 13.8554 5.35652 13.9696C5.93043 15.9326 6.88696 17.5076 7.74783 18.6033C5.35652 17.713 3.46739 15.9098 2.53478 13.65ZM14.2522 18.6033C15.113 17.5076 16.0696 15.9554 16.6435 13.9924C17.8391 13.9011 18.7957 13.7641 19.4652 13.6728C18.5326 15.9098 16.6435 17.713 14.2522 18.6033Z" fill="#03C4E3"/>
</svg>
