<?xml version="1.0" encoding="utf-8"?>
<!-- Generator: Adobe Illustrator 26.0.3, SVG Export Plug-In . SVG Version: 6.00 Build 0)  -->
<svg version="1.0" id="katman_1" xmlns="http://www.w3.org/2000/svg" xmlns:xlink="http://www.w3.org/1999/xlink" x="0px" y="0px"
	 viewBox="0 0 600 450" style="enable-background:new 0 0 600 450;" xml:space="preserve">
<style type="text/css">
	.st0{fill:#010202;}
	.st1{fill:#FFFFFE;}
	.st2{fill:#E1241C;}
	.st3{fill:#FFFFFF;}
	.st4{fill:#085DA9;}
</style>
<path class="st0" d="M192.9,331.9h3.8V320h13.5v-3.5h-13.5v-8.1h14.7V305h-18.5V331.9z M223.3,308.3h6.7v23.6h3.8V305h-10.6V308.3z
	 M250.4,304.2c-2.7,0-4.7,1.8-4.7,4.7c0,2.9,2,4.7,4.7,4.7s4.7-1.8,4.7-4.7C255,306,253,304.2,250.4,304.2 M250.4,312.7
	c-2.2,0-3.8-1.4-3.8-3.8s1.6-3.9,3.8-3.9s3.8,1.4,3.8,3.9S252.5,312.7,250.4,312.7"/>
<path class="st0" d="M252.4,307.9c0-1-0.7-1.5-2-1.5h-2v5.1h1.1v-1.9h0.7l1.1,1.9h1.2l-1.2-2.1C252,309.2,252.5,308.6,252.4,307.9
	 M250.5,308.6h-1v-1.3h1c0.5,0,0.8,0.3,0.8,0.6C251.3,308.4,251,308.6,250.5,308.6 M277.6,308.5h9.3v23.4h3.8v-23.4h9.3V305h-22.4
	L277.6,308.5z M312.7,331.9h18.5v-3.5h-14.7V320H330v-3.5h-13.5v-8.1h14.7V305h-18.5L312.7,331.9z M352,305l-9.6,26.9h4.1l2.4-7.1
	h11.7l2.4,7.1h4.1l-9.6-26.9L352,305z M350.2,321.4l4.6-13.3l4.6,13.3H350.2z M394.2,329l-7.7-24H380v26.9h3.8v-23.3l7.4,23.3h5.9
	l7.5-23.6v23.6h3.8V305h-6.6L394.2,329z M70.2,271.6h12.6l6.6-7.5h36l6.6,7.5h12.6l-37.2-40.7L70.2,271.6z M95.7,257l11.7-13.1
	l11.7,13.1L95.7,257z M342.5,232.2h-10.6v39.4h10.6V232.2z M431.1,256.5l-44-24.3h-10.8v39.4h9.9v-29.1l54.9,30.2v-40.5h-10V256.5z
	 M178.1,232.2h-10.6v39.4h48.4l3-7.1h-40.7L178.1,232.2z M485.5,264.5v-9.4h43.2V248h-43.2v-8.7h43.2v-7.1h-53.8v39.4h53.3l2-7.1
	L485.5,264.5z M286.7,232.2h-45.5v39.4h10.6v-13.2h34.4c12.8,0,17.7-5.4,17.7-13.3C303.9,237.5,298.5,232.2,286.7,232.2
	 M284.2,251.3h-32.4v-12h32.3c6.4,0,8.4,2,8.4,6.1C292.5,249.1,289.7,251.3,284.2,251.3"/>
<path class="st0" d="M266.3,364.2l-8.5,6.7h30.9l8.5-6.7L266.3,364.2z"/>
<path class="st1" d="M297.1,364.2l-8.5,6.7H303l8.5-6.7L297.1,364.2z"/>
<path class="st2" d="M311.5,364.2L303,371h31l8.5-6.7H311.5z"/>
<path class="st3" d="M232.3,105v36.7c-1-3.6-2.5-7-4.4-10.1c-3.5-5.9-8.4-10.9-14.3-14.5l-0.1-0.1l-66.8-37.2v9.5l-14.5-7.6v73
	c0,11.5,4.6,22.4,12.7,30.5c11.2,11,27.4,15.2,42.5,10.9c1.2,0.1,2.3,0.1,3.5,0.1c19.2,0,36.1-12.6,41.4-31v30.7h52.9
	c11.6,0,22.1-7,26.4-17.8l6.3,17.8h35.6l2.4-8.9l2.4,8.9h35.5l17.3-49.1h0.4v49.1h45v-49.1h13.9V105h-91.1l-3.6,10.2l-2.7-10.2
	h-34.1l-2.7,10.2l-3.6-10.2L232.3,105z"/>
<path class="st4" d="M461.2,114h-45.3l-8.2,23.4h13v49.1h26.6v-49.1h13.9L461.2,114z M385.8,114l-11.3,31.9l-8.6-31.9h-20l-8.6,31.9
	L325.9,114h-27l25.5,72.5h22l9.4-35.3l9.4,35.3h22l25.5-72.5H385.8z M291.5,149.3c5.6-3.5,9-9.6,9.1-16.2c0-10.5-8.6-19.1-19.2-19.1
	h-39.8v72.5h43.7c10.6,0,19.3-8.6,19.3-19.1C304.5,159,299,151.9,291.5,149.3 M263.8,132h7.1c2.1,0,3.8,2.2,3.8,4.9
	c0,2.7-1.7,4.9-3.8,4.9h-7.1V132z M274.6,170.6h-10.8V160h10.8c2.4,0,4.3,2.4,4.3,5.3S277,170.6,274.6,170.6 M207.6,124L207.6,124
	l-51.7-28.8v9.1l-14.5-7.6v57.8c0,18.7,15.3,33.9,34.1,33.9c3.7,0,7.4-0.6,10.9-1.8c1.4,0.2,2.9,0.3,4.4,0.3
	c18.7,0,33.9-15,33.9-33.6C224.7,140.7,217.8,129.7,207.6,124 M175.6,183.1c-16,0-28.9-12.9-28.9-28.7v-49.3l16.1,8.9v40.4
	c0,7,5.7,12.7,12.8,12.7c7.1,0,12.8-5.7,12.8-12.7c0-5.7-3.8-10.6-9.2-12.2v-16.3c14.3,1.8,25.3,13.8,25.3,28.5
	C204.5,170.3,191.5,183.1,175.6,183.1"/>
</svg>
