<svg xmlns="http://www.w3.org/2000/svg" width="64" height="64"><path fill="#B2001E" fill-rule="evenodd" d="m40.2 54.8-.4 1.5-.8-.1v-.5c-.4-.2-.8-.3-1.3-.3-1.7 0-2.5 2.1-2.5 3.5 0 1.1.6 1.6 1.7 1.6h.3l.2-1v-.4L37 59l.1-.9H40l-.2.9-.4.1-.2.4-.3 1.6c-.9.3-1.7.4-2.6.4-1.6 0-2.8-.7-2.9-2.4l.3-.4c.2-.2.4-.5.5-.8.2-.3.3-.7.3-1.1 0-.2 0-.4-.1-.6.1-.2.4-.4.4-.4.9-.9 1.9-1.3 3.2-1.3.7 0 1.5.1 2.2.3" clip-rule="evenodd"/><path fill="#111516" fill-rule="evenodd" d="M7.1 60.5H8l2.3-3.5v.1l-.6 3-.1.4h-.3l-.3.9h2.6l.1-.9h-.4l.1-.4.8-4.1.1-.3.4-.1.3-.9h-2.1l-2.7 3.9-1-3.9H4.9l-.1.9.4.1-.1.3-.8 4.1-.1.4h-.4l-.3.9h2.1l.1-.9h-.2v-.4l.7-3.2.9 3.6M14.1 61.6c1 0 1.9-.4 2.6-1.2.6-.6 1.1-1.6 1.1-2.5 0-.5-.3-1-.7-1.3-.4-.2-.9-.3-1.4-.3-1 0-1.9.4-2.5 1.2-.6.6-1.1 1.6-1.1 2.5 0 .5.3 1 .7 1.3.2.2.8.3 1.3.3m1-4.4c.6 0 .7.7.7 1.1 0 .7-.4 2.4-1.3 2.4-.6 0-.7-.7-.7-1.1 0-.8.4-2.4 1.3-2.4z" clip-rule="evenodd"/><path fill="#111516" fill-rule="evenodd" d="m20.3 56.3-2.3.1-.1.9.4.1-.1.4-.5 2.4-.3 1.3h1.9l.4-1.7c.2-.4 1.2-1.9 1.6-1.9.1 0 .2.1.1.5l-.4 1.8-.3 1.3h2.4l.1-.9-.4-.1v-.4l.4-2.2c.2-1.2-.1-1.6-.8-1.6-1.1 0-2.1 1.3-2.5 2.3h-.1l.5-2.3" clip-rule="evenodd"/><path fill="#111516" fill-rule="evenodd" d="M28.2 59.8c-.7.3-1.5.7-2.3.7-.5 0-.9-.2-.9-.8 1.3 0 3.2-.8 3.2-2.3 0-.4-.2-.6-.4-.8-.3-.2-.6-.3-1-.3-.9 0-1.8.4-2.5 1.1-.6.6-1.1 1.6-1.1 2.5 0 1.2 1.1 1.7 2.1 1.7.9 0 1.8-.2 2.7-.6l.2-1.2m-3.1-1c.1-.5.5-1.5 1-1.5.3 0 .4.2.4.5s-.2.6-.5.8c-.2.2-.6.2-.9.2z" clip-rule="evenodd"/><path fill="#B2001E" fill-rule="evenodd" d="m42.6 56.3-2.3.1-.1.9.4.1v.2L40 60l-.4 1.5h1.9l.4-1.8c.4-.6 1.1-1.8 1.9-1.8.2 0 .3.1.5.2l.6-1.6c-.1-.1-.3-.1-.4-.1-1 0-2 1.4-2.4 2.2H42l.6-2.3M46.8 61.5l2.3-.1.1-.9-.4-.1V60l.5-2.3.4-1.5-1.3.1h-.2l-.9-.1c-1.1 0-1.9.6-2.5 1.4-.6.7-1.1 1.7-1.1 2.6 0 .6.4 1.3 1 1.3 1.1 0 2.1-1.3 2.5-2.2h.1l-.5 2.2m.7-3.3c-.3.4-1.2 2-1.7 2-.2 0-.2-.2-.2-.3 0-.5.3-1.2.5-1.7.2-.4.5-1 1.1-1 .2 0 .4.1.6.2l-.3.8zM52.3 56.3l-2.2.1-.1.9.4.1v.4l-.5 2.4-.3 1.3h1.7l.4-1.9.1-.1c.2-.4 1.1-1.7 1.5-1.7.1 0 .2 0 .1.6l-.4 1.7-.3 1.3h1.7l.4-1.9.1-.1c.2-.4 1.1-1.7 1.5-1.7.2 0 .2.1.1.6l-.5 1.8-.3 1.3h2.2l.1-.9-.4-.1V60l.5-2.2c0-.2.1-.4.1-.6 0-.5-.3-1-.8-1-.6 0-1.2.4-1.6.9-.4.4-.6.9-.9 1.4h-.1l.2-.7c0-.2.1-.4.1-.6 0-.5-.3-.9-.8-.9-.6 0-1.2.5-1.6.9-.4.4-.6.9-.8 1.4h-.1l.5-2.3" clip-rule="evenodd"/><path fill="#111516" fill-rule="evenodd" d="M31.6 56.4c.3.3.5.7.5 1.1 0 .8-.8 1.5-1.3 2.1-.1-1.1-.3-2.2-.7-3.3l-1.9.1-.1.9.4.1c.5 1.3.8 2.7.8 4l-.2.2c-.6.6-1.2 1.3-1.9 1.8l1.9-.1c.6-1.1 1.4-2 2.2-2.9l.5-.6 1.2-1.4c.3-.4.7-.9.7-1.5 0-.2-.1-.4-.1-.5h-2" clip-rule="evenodd"/><path fill="#B2001E" fill-rule="evenodd" d="m60 61.4-.2-.3c0-.1-.1-.1-.1-.1.2 0 .3-.1.3-.3 0-.1-.1-.2-.3-.2h-.3v.9h.1V61l.3.4h.2m-.2-.6c0 .1-.1.2-.2.2h-.1v-.3h.1c.2-.1.2 0 .2.1zm-.1-.5c.4 0 .7.3.7.7 0 .4-.3.7-.7.7-.4 0-.7-.3-.7-.7 0-.4.3-.7.7-.7zm0-.2c-.5 0-.8.4-.8.8 0 .5.4.8.8.8.5 0 .8-.4.8-.8s-.4-.8-.8-.8z" clip-rule="evenodd"/><g fill-rule="evenodd" clip-rule="evenodd"><path fill="#EB1C2E" d="m53.1 47.6-.7-1c-.1-.2-.2-.3-.3-.4.5 0 .8-.4.8-.9 0-.4-.3-.7-1-.7H51v3h.5v-1.3l.9 1.3h.7m-.6-2.2c0 .2-.2.5-.7.5h-.2v-1h.4c.4.1.5.2.5.5zM52 44c1.2 0 2.1 1 2.1 2.2 0 1.2-.9 2.1-2.1 2.1-1.2 0-2.1-1-2.1-2.2 0-1.2.9-2.1 2.1-2.1zm0-.5c-1.5 0-2.7 1.2-2.7 2.7 0 1.5 1.1 2.7 2.7 2.7 1.4 0 2.7-1.2 2.7-2.7 0-1.6-1.2-2.7-2.7-2.7z"/><path fill="#B2001E" d="M33.1.6C19.7.6 8.8 11.5 8.8 24.9S19.7 49.1 33 49.1c13.4 0 24.2-10.9 24.2-24.2C57.3 11.5 46.4.6 33.1.6zm18.7 20.1c.2 1.7-.5 3.4-1.9 4.9 1.3-1.5 1.9-3.2 1.5-4.8-.6-3-3.9-5-8.3-5.3.4 1 .7 2.1.8 3.2.4 2.5.2 4.3 0 6.4 0 0-.6.6-1 .8.3-1.8.5-4 .2-6.5-.1-1.3-.5-2.7-1-4-1.1 0-2.2.1-3.4.3-5.2 1-9.5 4-10.5 7.1.4-3.6 6.3-7.3 12.2-8.2.5-.1.9-.1 1.3-.1-1.1-2.3-3-4.1-5.6-4.3-1-.1-1.8.2-2.2.4l-.4-.1c.5-.3 1.5-.8 2.8-.8 3 0 5.2 2.2 6.5 4.8 5.1 0 8.5 2.6 9 6.2zm-26.6-2.4c.6-4.8 2.4-7.3 2.9-7.8C32.5 11.8 37 14 37 14c-4.3-.2-8.8 2.1-11.8 4.3zm-2.7-5.9-1.9-2.9c-.2-.5-.2-.6.5-.6 1.8.1 4.1.6 4.1.6C27.1 7 29.4 5.3 32 4.9c3-.5 6.2.9 8.8 3.3-2.7-2.1-5.7-3.1-8.5-2.4-7.7 1.9-10.7 13.6-7.7 24.4 0 0-1 .1-2.4-.3-1.4-6.2-1-10.8.1-14.5-5.9 1-7.3 4.3-8.1 5.6 2-6.9 8.3-8.6 8.3-8.6zm.9 21.7c-6-.7-11-4.5-11.8-9.2-.5-2.6.8-5.5 2.9-7.8-1.9 2.4-2.7 5-2.1 7.6 1.4 6.1 10.6 9.2 20.6 6.9 8-1.8 14-6.6 15.4-11.5-.5 2.6-2.2 5.2-4.7 7.5l-.1.1c-.5 1.9-1.3 2.9-1.3 2.9l-1 .6s.5-.9.9-2.4c-3.3 2.5-7.6 4.5-12.2 5.3-1.5.3-2.9.4-4.2.4 2.2 5.5 6.1 10.1 11.5 12-7-2.1-11.5-7-13.9-12.4zm19.7 4.2-.2 1.8c-.1.7-.3.7-1 .7-5.1-.3-10.9-4.2-10.9-4.2 9.1-1.4 15.2-7.4 15.2-7.4 2.2-2.2 1.2-.2 1.1.3-.3.8-2.7 5.1-2.7 5.1 7.5-1.3 9.4-6.7 9.4-6.7-2.5 7.7-10.9 10.4-10.9 10.4z"/></g><path fill="#CC0224" fill-rule="evenodd" d="M29 41.9c-2.5-2.2-4.4-4.9-5.6-7.8-6-.7-11-4.5-11.8-9.2-.5-2.6.8-5.5 2.9-7.8-1.9 2.4-2.7 5-2.1 7.6 1.4 6.1 10.6 9.2 20.6 6.9 8-1.8 14-6.6 15.4-11.5-.5 2.6-2.2 5.2-4.7 7.5l-.1.1c-.5 1.9-1.3 2.9-1.3 2.9l-1 .6s.5-.9.9-2.4c-3.3 2.5-7.6 4.5-12.2 5.3-1.5.3-2.9.4-4.2.4 1.1 2.8 2.7 5.3 4.6 7.4 2.2-.4 4.3-1.1 6.3-2-3.2-1.2-5.9-3-5.9-3 9.1-1.4 15.2-7.4 15.2-7.4 2.2-2.2 1.2-.2 1.1.3-.2.6-1.6 3-2.3 4.3 5-5 8-11.9 8-19.5 0-1.2-.1-2.4-.2-3.6C48.3 4.6 41.2.6 33.1.6 19.7.6 8.8 11.5 8.8 24.9c0 5.6 1.9 10.7 5 14.8 3.5 1.6 7.3 2.5 11.4 2.5 1.3-.1 2.6-.2 3.8-.3zm-3.8-23.6c.6-4.8 2.4-7.3 2.9-7.8C32.5 11.8 37 14 37 14c-4.3-.2-8.8 2.1-11.8 4.3zm17.5-3.8c5.2 0 8.6 2.6 9.1 6.1.2 1.7-.5 3.4-1.9 4.9 1.3-1.5 1.9-3.2 1.5-4.8-.6-3-3.9-5-8.3-5.3.4 1 .7 2.1.8 3.2.4 2.5.2 4.3 0 6.4 0 0-.6.6-1 .8.3-1.8.5-4 .2-6.5-.1-1.3-.5-2.7-1-4-1.1 0-2.2.1-3.4.3-5.2 1-9.5 4-10.5 7.1.4-3.6 6.3-7.3 12.2-8.2.5-.1.9-.1 1.3-.1-1.1-2.3-3-4.1-5.6-4.3-1-.1-1.8.2-2.2.4l-.4-.1c.5-.3 1.5-.8 2.8-.8 2.8.1 5.1 2.3 6.4 4.9zm-20.2-2.1-1.9-2.9c-.2-.5-.2-.6.5-.6 1.8.1 4.1.6 4.1.6C27.1 7 29.4 5.3 32 4.9c3-.5 6.2.9 8.8 3.3-2.7-2.1-5.7-3.1-8.5-2.4-7.7 1.9-10.7 13.6-7.7 24.4 0 0-1 .1-2.4-.3-1.4-6.2-1-10.8.1-14.5-5.9 1-7.3 4.3-8.1 5.6 2-6.9 8.3-8.6 8.3-8.6z" clip-rule="evenodd"/><path fill="#EB1C2E" fill-rule="evenodd" d="M33.1.6C20.3.6 9.9 10.5 8.9 23c.9 1.3 2 2.5 3.2 3.5-.2-.6-.4-1.2-.5-1.8-.5-2.6.8-5.5 2.9-7.8-1.9 2.4-2.7 5-2.1 7.6.5 2 1.7 3.6 3.6 4.9 1.2.7 2.4 1.3 3.8 1.8 3.7 1.2 8.4 1.4 13.3.2 8-1.8 14-6.6 15.4-11.5-.1.7-.4 1.4-.7 2.1.8-1.3 1.6-2.7 2.2-4.1-1.5-1.5-3.9-2.4-6.8-2.5.4 1 .7 2.1.8 3.2.4 2.5.2 4.3 0 6.4 0 0-.6.6-1 .8.3-1.8.5-4 .2-6.5-.1-1.3-.5-2.7-1-4-1.1 0-2.2.1-3.4.3-5.2 1-9.5 4-10.5 7.1.4-3.6 6.3-7.3 12.2-8.2.5-.1.9-.1 1.3-.1-1.1-2.3-3-4.1-5.6-4.3-1-.1-1.8.2-2.2.4l-.4-.1c.5-.3 1.5-.8 2.8-.8 3 0 5.2 2.2 6.5 4.8 3.3 0 5.9 1 7.5 2.7.9-2.5 1.4-5.2 1.5-8C47.1 4 40.5.6 33.1.6zM37 13.9c-4.3-.2-8.8 2.2-11.8 4.4.6-4.8 2.4-7.3 2.9-7.8 4.4 1.2 8.9 3.4 8.9 3.4zm-4.7-8c-7.7 1.9-10.7 13.6-7.7 24.4 0 0-1 .1-2.4-.3-1.4-6.2-1-10.8.1-14.5-5.9 1-7.3 4.3-8.1 5.6 2.1-7 8.4-8.7 8.4-8.7l-1.9-2.9c-.2-.5-.2-.6.5-.6 1.8.1 4.1.6 4.1.6 1.9-2.5 4.2-4.2 6.8-4.6 3-.5 6.2.9 8.8 3.3-2.8-2.1-5.8-3-8.6-2.3z" clip-rule="evenodd"/></svg>