<?xml version="1.0" encoding="UTF-8" standalone="no"?>
<svg
   xmlns:dc="http://purl.org/dc/elements/1.1/"
   xmlns:cc="http://creativecommons.org/ns#"
   xmlns:rdf="http://www.w3.org/1999/02/22-rdf-syntax-ns#"
   xmlns:svg="http://www.w3.org/2000/svg"
   xmlns="http://www.w3.org/2000/svg"
   xmlns:sodipodi="http://sodipodi.sourceforge.net/DTD/sodipodi-0.dtd"
   xmlns:inkscape="http://www.inkscape.org/namespaces/inkscape"
   version="1.0"
   width="256"
   height="256"
   viewBox="0 0 191.99999 192.00001"
   preserveAspectRatio="xMidYMid meet"
   id="svg6"
   sodipodi:docname="800px-Emblem_of_the_First_Galactic_Empire.svg.svg"
   inkscape:version="0.92.3 (2405546, 2018-03-11)">
  <metadata
     id="metadata12">
    <rdf:RDF>
      <cc:Work
         rdf:about="">
        <dc:format>image/svg+xml</dc:format>
        <dc:type
           rdf:resource="http://purl.org/dc/dcmitype/StillImage" />
        <dc:title></dc:title>
      </cc:Work>
    </rdf:RDF>
  </metadata>
  <defs
     id="defs10" />
  <sodipodi:namedview
     pagecolor="#ffffff"
     bordercolor="#666666"
     borderopacity="1"
     objecttolerance="10"
     gridtolerance="10"
     guidetolerance="10"
     inkscape:pageopacity="0"
     inkscape:pageshadow="2"
     inkscape:window-width="1920"
     inkscape:window-height="1017"
     id="namedview8"
     showgrid="false"
     units="px"
     inkscape:zoom="0.55874063"
     inkscape:cx="383.03408"
     inkscape:cy="576.87026"
     inkscape:window-x="-8"
     inkscape:window-y="-8"
     inkscape:window-maximized="1"
     inkscape:current-layer="svg6" />
  <g
     transform="matrix(0.02121108,0,0,-0.02121108,0.9675483,190.16325)"
     id="g4"
     style="fill:#fafafa;stroke:none;fill-opacity:1">
    <path
       d="M 4200,8433 C 3362,8370 2587,8061 1940,7531 1802,7418 1554,7175 1438,7038 909,6415 588,5671 498,4855 c -17,-159 -17,-671 0,-830 87,-787 386,-1502 886,-2120 120,-148 434,-459 581,-576 545,-432 1112,-695 1780,-823 392,-75 879,-86 1290,-30 626,87 1238,331 1763,702 347,246 702,604 959,967 374,527 617,1165 700,1835 22,182 25,692 5,875 -125,1129 -697,2126 -1609,2806 -587,438 -1302,705 -2058,769 -110,9 -488,11 -595,3 z m 105,-465 7,-126 -79,-7 c -184,-15 -570,-79 -588,-97 -2,-2 11,-62 29,-133 19,-72 33,-130 32,-131 0,0 -46,-13 -101,-29 -464,-132 -920,-394 -1273,-730 l -93,-88 -93,92 c -52,52 -98,92 -103,90 -33,-14 -245,-268 -351,-421 -37,-53 -71,-97 -75,-98 -10,0 -217,139 -217,147 0,9 127,185 204,283 554,704 1377,1191 2262,1339 167,28 412,51 425,41 4,-3 10,-62 14,-132 z m 600,116 c 594,-64 1192,-292 1690,-645 355,-252 633,-531 896,-900 38,-53 69,-99 69,-102 0,-8 -206,-147 -217,-147 -4,1 -33,37 -63,81 -66,98 -212,281 -298,374 l -62,68 -23,-19 c -12,-10 -57,-52 -99,-93 l -77,-75 -88,85 c -340,328 -817,603 -1263,730 -63,18 -116,33 -116,34 -1,0 13,58 32,130 18,71 31,131 29,133 -18,18 -404,82 -588,97 l -79,7 7,126 c 4,70 9,129 10,132 4,7 69,3 240,-16 z M 4664,6900 c 71,-5 131,-12 134,-15 3,-2 -28,-280 -68,-616 -60,-500 -71,-612 -60,-619 7,-5 34,-11 58,-15 68,-10 211,-59 294,-101 118,-59 216,-131 318,-231 83,-82 97,-93 114,-83 10,7 234,173 496,370 l 478,359 63,-89 c 104,-147 275,-460 258,-474 -2,-1 -258,-112 -570,-245 l -565,-242 27,-82 c 76,-231 78,-512 4,-744 -13,-43 -21,-79 -17,-81 4,-1 257,-109 562,-240 482,-207 555,-241 552,-258 -11,-58 -183,-369 -274,-491 l -39,-53 -132,99 c -72,54 -286,214 -474,354 -188,141 -350,261 -361,268 -17,11 -28,3 -97,-70 -97,-101 -199,-179 -318,-242 -97,-50 -242,-102 -319,-114 -24,-4 -50,-10 -57,-14 -10,-6 4,-144 60,-610 40,-331 70,-604 67,-607 -3,-3 -78,-10 -166,-16 -152,-11 -453,0 -469,16 -3,3 26,276 66,607 56,466 70,604 60,610 -7,4 -33,10 -57,14 -68,10 -211,59 -294,101 -122,62 -218,132 -324,238 l -101,101 -489,-367 c -268,-201 -492,-364 -496,-361 -5,2 -48,64 -96,137 -100,151 -231,402 -216,416 5,5 259,116 564,246 305,131 556,238 557,239 1,0 -9,36 -22,78 -74,232 -72,518 4,745 l 28,83 -31,13 c -209,88 -1102,470 -1105,473 -2,2 25,63 61,136 68,138 137,256 214,364 l 45,63 478,-359 c 263,-198 487,-364 497,-371 17,-10 31,1 114,83 106,105 214,181 334,238 94,44 214,85 278,94 25,4 51,11 58,15 11,7 0,119 -60,619 -40,336 -71,613 -68,616 7,7 200,22 298,23 41,1 133,-3 204,-8 z M 1333,6054 c 61,-31 113,-57 114,-58 2,-1 -26,-65 -61,-142 -95,-208 -189,-475 -173,-491 4,-3 58,-20 122,-38 64,-18 119,-35 122,-38 3,-3 -7,-54 -21,-114 -115,-483 -115,-983 0,-1466 14,-60 24,-111 21,-114 -3,-3 -58,-20 -123,-39 -64,-18 -119,-36 -122,-38 -15,-15 82,-289 174,-490 35,-77 63,-141 61,-142 -6,-5 -228,-114 -233,-114 -3,0 -27,46 -54,103 -467,989 -467,2145 0,3134 27,57 51,103 54,103 4,0 57,-25 119,-56 z m 6467,-47 c 171,-362 281,-751 330,-1172 18,-151 24,-497 11,-660 -29,-361 -102,-699 -222,-1020 -47,-124 -158,-373 -170,-381 -6,-3 -220,96 -236,110 -2,1 26,65 61,142 92,201 189,475 174,490 -3,2 -58,20 -122,38 -65,19 -120,36 -123,39 -3,3 7,54 21,114 110,461 114,966 11,1416 -14,61 -28,124 -31,138 -6,25 -3,28 52,44 33,9 90,25 127,36 l 69,20 -7,37 c -12,63 -105,311 -171,456 -35,77 -63,141 -61,142 8,6 224,113 230,113 5,1 30,-45 57,-102 z M 1680,2509 c 100,-148 343,-439 367,-439 4,0 49,41 100,92 l 92,91 93,-88 c 352,-335 810,-598 1273,-730 55,-16 101,-29 101,-29 1,-1 -13,-59 -32,-131 -18,-71 -31,-131 -29,-134 18,-18 386,-78 593,-97 l 74,-6 -7,-127 c -4,-69 -9,-128 -10,-131 -5,-8 -177,6 -320,25 -889,121 -1733,587 -2304,1273 -89,107 -271,351 -271,364 0,9 201,147 215,147 6,0 35,-36 65,-80 z m 5775,11 c 58,-39 105,-73 105,-77 0,-10 -137,-198 -219,-301 C 6751,1404 5887,920 4947,800 4863,790 4766,780 4730,779 l -65,-3 -7,85 c -3,46 -6,105 -7,130 l -1,47 73,7 c 211,19 573,78 592,97 2,2 -11,62 -29,133 -19,72 -33,130 -32,130 0,1 53,16 116,34 450,129 922,402 1262,729 l 88,85 96,-92 c 53,-51 99,-91 104,-89 29,11 247,274 348,420 37,53 71,97 75,98 4,0 55,-32 112,-70 z"
       id="path2"
       inkscape:connector-curvature="0"
       style="fill:#fafafa;fill-opacity:1" />
  </g>
</svg>
