<?xml version="1.0" encoding="UTF-8" standalone="no"?>
<svg
   xmlns:dc="http://purl.org/dc/elements/1.1/"
   xmlns:cc="http://creativecommons.org/ns#"
   xmlns:rdf="http://www.w3.org/1999/02/22-rdf-syntax-ns#"
   xmlns:svg="http://www.w3.org/2000/svg"
   xmlns="http://www.w3.org/2000/svg"
   xmlns:sodipodi="http://sodipodi.sourceforge.net/DTD/sodipodi-0.dtd"
   xmlns:inkscape="http://www.inkscape.org/namespaces/inkscape"
   width="256"
   height="256"
   version="1.1"
   id="svg20"
   sodipodi:docname="Galactic_Republic.svg"
   inkscape:version="0.92.3 (2405546, 2018-03-11)">
  <metadata
     id="metadata26">
    <rdf:RDF>
      <cc:Work
         rdf:about="">
        <dc:format>image/svg+xml</dc:format>
        <dc:type
           rdf:resource="http://purl.org/dc/dcmitype/StillImage" />
        <dc:title></dc:title>
      </cc:Work>
    </rdf:RDF>
  </metadata>
  <defs
     id="defs24" />
  <sodipodi:namedview
     pagecolor="#ffffff"
     bordercolor="#666666"
     borderopacity="1"
     objecttolerance="10"
     gridtolerance="10"
     guidetolerance="10"
     inkscape:pageopacity="0"
     inkscape:pageshadow="2"
     inkscape:window-width="1920"
     inkscape:window-height="1017"
     id="namedview22"
     showgrid="false"
     inkscape:zoom="1.5733333"
     inkscape:cx="-90.391384"
     inkscape:cy="7.1142398"
     inkscape:window-x="-8"
     inkscape:window-y="-8"
     inkscape:window-maximized="1"
     inkscape:current-layer="svg20" />
  <path
     style="opacity:1;fill:#fafafa;fill-opacity:1;fill-rule:nonzero;stroke:none;stroke-width:4.49432278;stroke-miterlimit:4;stroke-dasharray:none;stroke-opacity:1"
     d="M 118.43632,244.35715 C 101.59559,242.66788 88.480065,238.8586 74.394107,231.56549 53.843556,220.92529 37.127033,204.65444 25.741636,184.21015 21.099983,175.87532 17.48738,166.75133 15.064595,157.24421 12.064968,145.47354 11.695159,142.23412 11.704005,127.8064 11.712473,113.99369 12.148697,110.06579 14.871092,99.288943 25.304694,57.986571 58.074677,25.290208 99.5816,14.768745 c 11.63712,-2.949858 27.85846,-4.148349 39.80037,-2.940595 61.39644,6.209379 107.42279,58.822349 105.19402,120.24785 -1.05519,29.08113 -12.37127,55.79436 -32.43304,76.56283 -6.81421,7.05424 -12.31853,11.6737 -19.97673,16.76531 -19.29951,12.83143 -41.58474,19.41514 -64.93167,19.18272 -3.97387,-0.0395 -7.93308,-0.14293 -8.79823,-0.22971 z m 22.93433,-12.48067 c 19.09074,-2.54186 37.09143,-10.20595 52.12086,-22.19129 21.40371,-17.06857 35.66905,-43.02668 38.62706,-70.2882 0.60807,-5.60408 0.60788,-17.13052 -3.9e-4,-22.73175 C 228.8898,86.936455 212.68097,59.519387 188.09832,42.206081 160.44728,22.73174 123.82136,17.920624 92.119878,29.598526 77.210699,35.090635 64.063681,43.684731 52.798134,55.302824 36.741335,71.86211 27.244775,91.62482 24.00508,115.22229 c -0.83943,6.11429 -0.732307,20.59663 0.199655,26.99218 3.276643,22.48579 13.007458,42.41194 28.591774,58.54845 16.473692,17.0574 37.830611,27.86596 61.370201,31.05895 6.04653,0.82017 21.2253,0.85064 27.20394,0.0546 z"
     id="path885"
     inkscape:connector-curvature="0" />
  <path
     style="opacity:1;fill:#fafafa;fill-opacity:1;fill-rule:nonzero;stroke:none;stroke-width:4.49432278;stroke-miterlimit:4;stroke-dasharray:none;stroke-opacity:1"
     d="M 176.27825,55.168735 C 167.5949,49.250841 155.85554,44.403574 145.15831,42.319087 l -5.27758,-1.028404 -0.003,-5.505545 -0.003,-5.505545 h 1.17947 c 2.36477,0 12.37126,2.283579 17.84364,4.072092 9.04912,2.957487 20.84136,9.08724 28.0061,14.55793 l 1.89791,1.449163 -3.91093,3.892808 c -2.151,2.141044 -4.00804,3.877996 -4.12675,3.859893 -0.1187,-0.0181 -2.13715,-1.342338 -4.48543,-2.942744 z"
     id="path887"
     inkscape:connector-curvature="0" />
  <path
     style="opacity:1;fill:#fafafa;fill-opacity:1;fill-rule:nonzero;stroke:none;stroke-width:4.49432278;stroke-miterlimit:4;stroke-dasharray:none;stroke-opacity:1"
     d="M 71.01177,54.211861 67.111008,50.279329 70.346992,47.98013 C 79.893986,41.196893 90.508407,36.116045 101.634,33.003847 c 4.96807,-1.389733 11.50602,-2.724254 13.34639,-2.724254 h 1.07394 v 5.556241 5.556242 l -3.4831,0.557942 c -11.03693,1.767952 -24.030205,7.110715 -34.075658,14.01172 -1.747451,1.200461 -3.268502,2.182656 -3.380112,2.182656 -0.11161,0 -1.958271,-1.76964 -4.10369,-3.932533 z"
     id="path889"
     inkscape:connector-curvature="0" />
  <path
     style="opacity:1;fill:#fafafa;fill-opacity:1;fill-rule:nonzero;stroke:none;stroke-width:4.49432278;stroke-miterlimit:4;stroke-dasharray:none;stroke-opacity:1"
     d="m 30.212761,115.1664 c 0,-2.3171 2.460084,-12.82289 4.301798,-18.37083 1.107776,-3.337035 3.409472,-8.898759 5.114883,-12.359388 2.917577,-5.920364 8.638138,-15.163136 10.173424,-16.43731 0.592174,-0.49146 1.255818,-0.01323 4.542325,3.273281 l 3.848831,3.84883 -2.940478,4.432884 C 48.543311,89.6698 43.984371,101.02719 41.883101,112.86277 l -0.578489,3.25839 h -5.545925 c -5.354522,0 -5.545926,-0.0329 -5.545926,-0.95476 z"
     id="path891"
     inkscape:connector-curvature="0" />
  <path
     style="opacity:1;fill:#fafafa;fill-opacity:1;fill-rule:nonzero;stroke:none;stroke-width:4.49432278;stroke-miterlimit:4;stroke-dasharray:none;stroke-opacity:1"
     d="m 120.54865,182.27616 v -18.78769 l -3.25839,-1.03035 c -1.79211,-0.56669 -4.5567,-1.73387 -6.14353,-2.59372 l -2.88515,-1.56337 -13.29699,13.29145 -13.296987,13.29144 -5.278066,-5.27806 -5.278065,-5.27807 13.291446,-13.29699 13.291447,-13.29699 -1.571441,-2.88514 c -0.864292,-1.58684 -2.011357,-4.35143 -2.549034,-6.14354 l -0.977593,-3.25838 h -18.83238 -18.83238 v -7.41564 -7.41563 h 18.787692 18.787693 l 1.036646,-3.25838 c 0.570156,-1.79211 1.755708,-4.63942 2.63456,-6.32735 L 97.77604,107.96078 84.561024,94.740067 71.346008,81.519354 l 5.158324,-5.172999 5.158323,-5.172999 13.263303,13.245015 13.263302,13.245013 3.58031,-1.807343 c 1.96916,-0.994039 4.75003,-2.132556 6.17969,-2.530037 l 2.59939,-0.722695 V 73.800839 54.998368 h 7.41563 7.41563 v 18.80945 18.809451 l 2.80896,0.76374 c 1.54492,0.420057 4.32411,1.562846 6.17598,2.53953 l 3.36703,1.77579 13.37453,-13.368957 13.37453,-13.368958 5.27802,5.278019 5.27802,5.278021 -13.36896,13.374531 -13.36896,13.374535 1.7758,3.36703 c 0.97668,1.85186 2.11947,4.63106 2.53953,6.17598 l 0.76373,2.80895 h 18.80946 18.80945 v 7.41563 7.41564 h -18.80247 -18.80248 l -0.72269,2.59938 c -0.39748,1.42967 -1.536,4.21053 -2.53004,6.1797 l -1.80734,3.5803 13.24501,13.26331 13.24502,13.2633 -5.173,5.15832 -5.173,5.15833 -13.22071,-13.21502 -13.22072,-13.21502 -3.06896,1.59791 c -1.68793,0.87886 -4.53524,2.06441 -6.32735,2.63457 l -3.25839,1.03664 v 18.78769 18.7877 h -7.41563 -7.41563 z"
     id="path893"
     inkscape:connector-curvature="0" />
  <path
     style="opacity:1;fill:#fafafa;fill-opacity:1;fill-rule:nonzero;stroke:none;stroke-width:4.49432278;stroke-miterlimit:4;stroke-dasharray:none;stroke-opacity:1"
     d="m 48.03236,185.6708 c -8.216354,-11.53484 -13.960037,-24.67352 -16.675768,-38.14585 -1.687362,-8.37075 -2.145645,-7.58388 4.41697,-7.58388 h 5.5608 l 0.730092,3.99061 c 2.068969,11.30879 6.663814,22.64614 13.202101,32.57496 l 2.917993,4.43116 -3.751387,3.77098 c -2.063262,2.07403 -3.897316,3.77097 -4.075675,3.77097 -0.178359,0 -1.224665,-1.26402 -2.325126,-2.80895 z"
     id="path895"
     inkscape:connector-curvature="0" />
  <path
     style="opacity:1;fill:#fafafa;fill-opacity:1;fill-rule:nonzero;stroke:none;stroke-width:4.49432278;stroke-miterlimit:4;stroke-dasharray:none;stroke-opacity:1"
     d="m 108.18926,224.6102 c -11.933407,-2.46406 -24.407559,-7.68038 -34.688195,-14.5056 -3.011304,-1.99917 -5.616059,-3.86294 -5.788345,-4.1417 -0.183003,-0.29611 1.283607,-2.1037 3.527311,-4.34741 l 3.840559,-3.84055 4.419664,2.93712 c 9.784114,6.50213 21.216106,11.14286 32.563456,13.21888 l 3.99062,0.73009 v 5.5608 5.5608 l -1.23594,-0.0294 c -0.67977,-0.0162 -3.66288,-0.53054 -6.62913,-1.14302 z"
     id="path897"
     inkscape:connector-curvature="0" />
  <path
     style="opacity:1;fill:#fafafa;fill-opacity:1;fill-rule:nonzero;stroke:none;stroke-width:4.49432278;stroke-miterlimit:4;stroke-dasharray:none;stroke-opacity:1"
     d="m 139.87424,220.25187 v -5.53076 l 4.15725,-0.78659 c 12.02769,-2.27574 23.55441,-7.05944 33.51048,-13.90716 l 3.28616,-2.2602 3.99905,3.98051 3.99904,3.98052 -3.0156,2.19359 c -10.75894,7.82621 -24.96527,14.01845 -38.3525,16.71702 -8.3686,1.68693 -7.58388,2.14086 -7.58388,-4.38693 z"
     id="path899"
     inkscape:connector-curvature="0" />
  <path
     style="opacity:1;fill:#fafafa;fill-opacity:1;fill-rule:nonzero;stroke:none;stroke-width:4.49432278;stroke-miterlimit:4;stroke-dasharray:none;stroke-opacity:1"
     d="m 201.72543,184.93881 -3.93592,-3.95425 3.19713,-4.90397 c 6.2259,-9.54968 10.68069,-20.42473 12.72926,-31.07468 l 0.97424,-5.06484 h 5.51283 5.51283 v 1.17947 c 0,2.39059 -2.2637,12.25659 -4.06208,17.70399 -3.01509,9.1329 -8.24715,19.38504 -13.80614,27.05292 l -2.18622,3.0156 z"
     id="path901"
     inkscape:connector-curvature="0" />
  <path
     style="opacity:1;fill:#fafafa;fill-opacity:1;fill-rule:nonzero;stroke:none;stroke-width:4.49432278;stroke-miterlimit:4;stroke-dasharray:none;stroke-opacity:1"
     d="m 213.67631,110.83708 c -2.08366,-10.69297 -6.85465,-22.249263 -12.92093,-31.297071 l -2.9814,-4.446742 3.93132,-3.949618 3.93132,-3.949618 1.44916,1.897911 c 5.41065,7.086121 11.52103,18.843609 14.55237,28.001443 1.75824,5.311745 4.07765,15.464045 4.07765,17.848305 v 1.17947 l -5.50554,-0.003 -5.50555,-0.003 -1.0284,-5.27759 z"
     id="path903"
     inkscape:connector-curvature="0" />
</svg>
