<?xml version="1.0" encoding="UTF-8" standalone="no"?>
<svg
   xmlns:dc="http://purl.org/dc/elements/1.1/"
   xmlns:cc="http://creativecommons.org/ns#"
   xmlns:rdf="http://www.w3.org/1999/02/22-rdf-syntax-ns#"
   xmlns:svg="http://www.w3.org/2000/svg"
   xmlns="http://www.w3.org/2000/svg"
   xmlns:sodipodi="http://sodipodi.sourceforge.net/DTD/sodipodi-0.dtd"
   xmlns:inkscape="http://www.inkscape.org/namespaces/inkscape"
   version="1.0"
   width="256"
   height="256"
   viewBox="0 0 191.99999 192"
   preserveAspectRatio="xMidYMid meet"
   id="svg38"
   sodipodi:docname="jedi-master-logo.svg"
   inkscape:version="0.92.3 (2405546, 2018-03-11)">
  <metadata
     id="metadata44">
    <rdf:RDF>
      <cc:Work
         rdf:about="">
        <dc:format>image/svg+xml</dc:format>
        <dc:type
           rdf:resource="http://purl.org/dc/dcmitype/StillImage" />
        <dc:title />
      </cc:Work>
    </rdf:RDF>
  </metadata>
  <defs
     id="defs42" />
  <sodipodi:namedview
     pagecolor="#ffffff"
     bordercolor="#666666"
     borderopacity="1"
     objecttolerance="10"
     gridtolerance="10"
     guidetolerance="10"
     inkscape:pageopacity="0"
     inkscape:pageshadow="2"
     inkscape:window-width="1920"
     inkscape:window-height="1017"
     id="namedview40"
     showgrid="false"
     units="px"
     inkscape:zoom="0.59"
     inkscape:cx="-145.8418"
     inkscape:cy="200"
     inkscape:window-x="-8"
     inkscape:window-y="-8"
     inkscape:window-maximized="1"
     inkscape:current-layer="svg38" />
  <g
     transform="matrix(0.06131172,0,0,-0.06131172,34.045805,187.66102)"
     id="g36"
     style="fill:#fafafa;fill-opacity:1;stroke:none">
    <path
       d="m 1000,2858 c 0,-126 -2,-183 -16,-526 l -6,-142 -34,21 c -38,23 -44,13 -19,-31 21,-36 20,-37 -35,-44 -96,-13 -102,-22 -23,-36 l 72,-13 -15,-29 c -19,-36 -14,-42 20,-27 14,7 29,10 32,6 3,-3 10,-101 16,-219 11,-214 27,-302 29,-153 0,44 2,98 4,120 2,22 7,89 10,148 8,119 5,116 71,90 16,-6 15,-3 -4,29 l -22,35 72,13 c 77,13 75,23 -7,35 -27,4 -53,9 -57,12 -5,2 1,22 12,44 23,45 20,47 -25,19 l -33,-20 -6,187 c -4,104 -8,224 -11,268 -2,44 -4,140 -5,213 0,81 -4,132 -10,132 -6,0 -10,-51 -10,-132 z"
       id="path2"
       inkscape:connector-curvature="0"
       style="fill:#fafafa;fill-opacity:1" />
    <path
       d="m 715,2667 c -56,-22 -90,-45 -137,-94 -43,-44 -108,-142 -108,-162 0,-5 16,-5 35,-1 l 34,8 -21,-41 c -33,-65 -68,-164 -84,-241 -31,-142 -16,-382 32,-520 22,-62 2,-31 -39,61 -105,233 -129,466 -66,614 12,27 20,52 17,54 -3,3 -23,-8 -46,-25 -45,-32 -81,-81 -107,-144 -16,-38 -16,-39 5,-33 17,4 21,2 16,-11 -47,-144 -58,-196 -63,-299 -9,-182 30,-358 117,-528 38,-73 39,-78 15,-55 -44,41 -115,141 -150,210 -41,81 -59,161 -53,233 2,31 1,54 -3,51 -21,-13 -62,-174 -66,-264 -10,-190 55,-344 216,-514 59,-62 51,-61 -49,2 -102,64 -175,148 -201,232 -5,17 -8,-2 -8,-56 -2,-144 44,-241 169,-356 50,-47 80,-83 80,-95 0,-25 39,-155 49,-166 5,-4 15,12 25,36 20,54 58,92 82,83 15,-6 15,-9 -6,-28 -58,-54 -77,-179 -44,-303 20,-79 30,-86 38,-28 8,60 53,139 116,205 l 48,50 -39,60 c -191,296 -82,686 235,839 44,22 86,39 93,39 19,0 17,9 -31,111 -109,230 -168,462 -170,659 -1,152 18,245 74,353 21,43 36,77 32,76 -4,0 -20,-6 -37,-12 z"
       id="path4"
       inkscape:connector-curvature="0"
       style="fill:#fafafa;fill-opacity:1" />
    <path
       d="m 1274,2618 c 59,-108 81,-202 80,-358 0,-103 -5,-160 -23,-240 -31,-140 -82,-292 -142,-419 -27,-58 -46,-108 -42,-112 5,-3 32,-14 61,-24 112,-36 254,-161 311,-273 63,-125 83,-259 57,-381 -17,-80 -62,-186 -102,-238 l -25,-34 46,-52 c 64,-70 103,-142 111,-200 8,-58 18,-51 38,28 32,122 14,247 -43,304 -19,19 -19,22 -6,27 23,9 61,-31 81,-83 9,-23 20,-43 24,-43 9,0 50,146 50,177 0,13 21,38 55,66 64,52 121,118 143,164 15,32 32,44 32,23 0,-22 19,-8 29,21 12,34 15,206 5,233 -8,20 -24,21 -24,1 0,-57 -98,-173 -200,-237 -102,-64 -107,-63 -40,8 147,157 210,299 210,479 0,61 3,76 12,67 51,-51 24,102 -34,185 -44,65 -53,57 -54,-50 -1,-71 -6,-105 -23,-147 -28,-68 -117,-203 -165,-249 l -35,-34 43,85 c 133,266 152,560 51,820 -5,13 -2,15 14,11 27,-7 26,-3 -4,57 -30,60 -72,109 -114,133 -36,21 -39,12 -11,-43 65,-127 39,-371 -66,-611 -48,-112 -56,-117 -28,-20 67,233 46,499 -57,702 l -28,57 34,-8 c 46,-10 45,2 -5,77 -67,100 -140,161 -228,188 -21,6 -21,4 12,-57 z"
       id="path6"
       inkscape:connector-curvature="0"
       style="fill:#fafafa;fill-opacity:1" />
    <path
       d="m 925,1444 c -11,-2 -40,-10 -65,-16 C 733,1397 592,1280 532,1157 447,984 460,789 567,628 647,506 761,432 912,402 c 327,-64 635,211 615,548 -16,274 -229,484 -502,496 -44,1 -89,1 -100,-2 z m 228,-55 c 81,-27 143,-67 204,-132 96,-102 133,-196 133,-337 0,-439 -524,-655 -835,-344 -98,98 -154,249 -141,386 18,202 151,367 344,429 81,26 214,25 295,-2 z"
       id="path8"
       inkscape:connector-curvature="0"
       style="fill:#fafafa;fill-opacity:1" />
    <path
       d="m 868,1360 c -61,-19 -148,-65 -148,-79 0,-5 6,-14 14,-20 11,-10 26,-6 68,18 29,16 72,34 96,41 31,8 42,16 42,30 0,28 -10,30 -72,10 z"
       id="path10"
       inkscape:connector-curvature="0"
       style="fill:#fafafa;fill-opacity:1" />
    <path
       d="m 1050,1356 c 0,-20 6,-26 33,-31 17,-4 62,-21 99,-37 56,-26 70,-29 83,-18 11,9 12,16 5,25 -15,18 -139,72 -182,79 -35,6 -38,5 -38,-18 z"
       id="path12"
       inkscape:connector-curvature="0"
       style="fill:#fafafa;fill-opacity:1" />
    <path
       d="m 970,1188 -1,-83 -37,-17 -37,-18 -40,38 c -83,78 -82,78 -105,57 -21,-19 -20,-19 39,-79 l 60,-61 -12,-37 -12,-37 -85,-3 -85,-3 -3,-34 -3,-34 84,7 84,7 22,-43 22,-43 -63,-57 -63,-57 22,-23 23,-22 62,60 63,61 37,-16 38,-16 v -82 -83 h 30 30 v 83 82 l 39,16 39,17 53,-54 c 29,-30 58,-54 65,-54 6,0 18,8 27,18 16,17 13,22 -42,76 l -59,58 17,38 16,39 83,7 c 82,6 83,7 80,33 -3,25 -5,26 -84,29 l -81,3 -17,35 c -16,35 -16,36 13,72 16,20 41,48 55,61 24,23 25,26 9,43 -9,10 -20,18 -25,18 -5,0 -32,-25 -61,-55 l -52,-55 -42,12 -43,12 v 83 83 h -30 -30 z"
       id="path14"
       inkscape:connector-curvature="0"
       style="fill:#fafafa;fill-opacity:1" />
    <path
       d="m 1342,1198 c -17,-17 -15,-25 10,-61 12,-16 32,-57 44,-91 22,-62 30,-71 52,-58 17,11 -10,100 -51,170 -34,56 -37,58 -55,40 z"
       id="path16"
       inkscape:connector-curvature="0"
       style="fill:#fafafa;fill-opacity:1" />
    <path
       d="m 614,1165 c -26,-40 -64,-138 -64,-167 0,-23 4,-28 24,-28 20,0 25,6 30,43 4,23 20,66 36,96 23,41 27,57 19,68 -16,19 -26,16 -45,-12 z"
       id="path18"
       inkscape:connector-curvature="0"
       style="fill:#fafafa;fill-opacity:1" />
    <path
       d="m 1406,831 c -3,-21 -19,-65 -36,-96 -23,-44 -28,-61 -19,-71 6,-8 16,-14 21,-14 13,0 75,137 84,183 6,35 5,37 -19,37 -21,0 -25,-6 -31,-39 z"
       id="path20"
       inkscape:connector-curvature="0"
       style="fill:#fafafa;fill-opacity:1" />
    <path
       d="m 550,841 c 0,-28 32,-111 65,-167 26,-44 28,-45 46,-29 18,17 18,19 -8,63 -15,25 -34,68 -43,96 -13,38 -22,52 -38,54 -17,3 -22,-2 -22,-17 z"
       id="path22"
       inkscape:connector-curvature="0"
       style="fill:#fafafa;fill-opacity:1" />
    <path
       d="m 1195,559 c -27,-16 -67,-32 -87,-35 -32,-5 -38,-11 -38,-30 0,-31 26,-31 101,0 82,33 123,64 108,82 -15,19 -25,17 -84,-17 z"
       id="path24"
       inkscape:connector-curvature="0"
       style="fill:#fafafa;fill-opacity:1" />
    <path
       d="m 741,566 c -15,-18 28,-50 102,-76 80,-28 112,-29 112,-5 0,16 -14,24 -67,41 -37,12 -77,29 -90,38 -28,20 -42,20 -57,2 z"
       id="path26"
       inkscape:connector-curvature="0"
       style="fill:#fafafa;fill-opacity:1" />
    <path
       d="M 508,209 505,68 466,34 C 435,8 431,0 446,0 c 25,1 95,33 117,54 14,14 17,37 17,131 0,121 9,145 51,145 10,0 19,5 19,10 0,6 -30,10 -69,10 h -69 z"
       id="path28"
       inkscape:connector-curvature="0"
       style="fill:#fafafa;fill-opacity:1" />
    <path
       d="m 660,342 c 0,-4 14,-13 30,-19 l 30,-11 V 191 70 h 124 c 137,0 136,-1 136,73 0,35 -16,35 -35,-2 -8,-16 -25,-33 -36,-36 -23,-8 -98,-9 -105,-2 -2,2 -7,25 -10,50 l -7,47 h 37 c 47,0 50,27 4,32 -32,3 -33,5 -33,48 v 45 l 65,1 c 86,2 90,2 90,14 0,6 -55,10 -145,10 -80,0 -145,-4 -145,-8 z"
       id="path30"
       inkscape:connector-curvature="0"
       style="fill:#fafafa;fill-opacity:1" />
    <path
       d="m 990,340 c 0,-5 9,-10 19,-10 23,0 54,-28 45,-41 -3,-6 -3,-58 1,-116 l 8,-105 101,4 c 153,6 219,50 219,145 0,49 -19,75 -73,103 -45,23 -120,36 -120,21 0,-6 6,-11 13,-11 7,0 28,-15 45,-33 55,-57 62,-125 17,-167 -28,-26 -83,-40 -113,-29 -21,8 -22,14 -22,129 v 120 h -70 c -40,0 -70,-4 -70,-10 z"
       id="path32"
       inkscape:connector-curvature="0"
       style="fill:#fafafa;fill-opacity:1" />
    <path
       d="m 1437,343 c -4,-3 -7,-60 -7,-125 V 100 l -30,-6 c -61,-13 -27,-24 70,-24 60,0 100,4 100,10 0,6 -8,10 -18,10 -36,0 -42,20 -42,142 v 118 h -33 c -19,0 -37,-3 -40,-7 z"
       id="path34"
       inkscape:connector-curvature="0"
       style="fill:#fafafa;fill-opacity:1" />
  </g>
</svg>
